<svg width="40" height="40" viewBox="0 0 40 40" fill="none" xmlns="http://www.w3.org/2000/svg">
<path d="M19.9676 11.9838C17.7712 11.9838 15.8909 12.766 14.3268 14.3306C12.7626 15.8951 11.9806 17.7759 11.9806 19.973C11.9806 21.4709 12.3553 22.8524 13.1048 24.1173C13.8542 25.3823 14.8939 26.3643 16.2237 27.0634C16.7562 27.3297 17.1309 27.7205 17.3479 28.2358C17.5649 28.7511 17.5562 29.2757 17.3219 29.8096C17.089 30.2757 16.7395 30.6252 16.2736 30.8582C15.8077 31.0912 15.3418 31.0912 14.8759 30.8582C12.7793 29.8596 11.1073 28.3782 9.86002 26.4142C8.61271 24.4502 7.98839 22.3031 7.98706 19.973C7.98706 16.6441 9.15183 13.8146 11.4814 11.4844C13.8109 9.15427 16.6397 7.98918 19.9676 7.98918C22.3305 7.98918 24.5023 8.61367 26.4831 9.86264C28.4639 11.1116 29.9361 12.8173 30.8999 14.9797C31.0996 15.4458 31.0916 15.9118 30.876 16.3778C30.6603 16.8439 30.3189 17.1767 29.8516 17.3765C29.3191 17.6095 28.7867 17.6095 28.2542 17.3765C27.7217 17.1435 27.3224 16.7606 27.0561 16.228C26.3573 14.8965 25.3755 13.8566 24.1109 13.1082C22.8463 12.3599 21.4652 11.9851 19.9676 11.9838ZM19.9676 3.99459C15.5082 3.99459 11.731 5.54249 8.636 8.6383C5.54102 11.7341 3.99353 15.5123 3.99353 19.973C3.99353 24.1673 5.37462 27.7624 8.13681 30.7583C10.899 33.7543 14.3601 35.452 18.52 35.8515C19.0857 35.918 19.5763 36.1677 19.9916 36.6004C20.4069 37.0332 20.5986 37.5325 20.5667 38.0984C20.5347 38.6643 20.3264 39.1303 19.9417 39.4965C19.557 39.8627 19.0831 40.0291 18.52 39.9958C15.9242 39.8294 13.5028 39.1803 11.2558 38.0485C9.00873 36.9167 7.04525 35.4433 5.36531 33.6285C3.68536 31.8136 2.37083 29.7331 1.4217 27.3869C0.47257 25.0408 -0.00132838 22.5694 2.79659e-06 19.973C2.79659e-06 17.21 0.524486 14.6135 1.57345 12.1835C2.62242 9.75346 4.04478 7.63965 5.84054 5.84209C7.63629 4.04452 9.74953 2.62178 12.1803 1.57387C14.611 0.525955 17.2068 0.00133153 19.9676 0C25.1925 0 29.7438 1.78092 33.6215 5.34277C37.4992 8.90461 39.6204 13.2987 39.9852 18.5249C40.0517 19.0575 39.894 19.5156 39.512 19.8991C39.1299 20.2825 38.6553 20.4903 38.0883 20.5222C37.5212 20.5542 37.014 20.3711 36.5667 19.973C36.1195 19.5748 35.8612 19.0921 35.792 18.5249C35.2928 14.5303 33.5543 11.1103 30.5764 8.26481C27.5986 5.41933 24.0623 3.99592 19.9676 3.99459ZM35.0432 38.9473L28.4539 32.4061L26.9563 36.95C26.7899 37.416 26.4738 37.641 26.0078 37.625C25.5419 37.6091 25.2258 37.3674 25.0594 36.9L20.5167 21.7705C20.3836 21.4043 20.4668 21.0715 20.7663 20.7719C21.0659 20.4723 21.3986 20.3891 21.7647 20.5222L36.8902 25.0661C37.3561 25.2325 37.5977 25.5487 37.615 26.0148C37.6323 26.4808 37.4074 26.797 36.9401 26.9635L32.3975 28.4615L38.9868 35.0525C39.5526 35.6184 39.8354 36.2676 39.8354 36.9999C39.8354 37.7322 39.5526 38.3814 38.9868 38.9473C38.4211 39.5132 37.7641 39.7961 37.016 39.7961C36.2679 39.7961 35.6103 39.5132 35.0432 38.9473Z" fill="url(#paint0_linear_3105_11487)"/>
<defs>
<linearGradient id="paint0_linear_3105_11487" x1="-2.456e-06" y1="39.8242" x2="36.3321" y2="-2.88183" gradientUnits="userSpaceOnUse">
<stop stop-color="#FDFCA4"/>
<stop offset="1" stop-color="#D9AD49"/>
</linearGradient>
</defs>
</svg>
