<svg width="41" height="40" viewBox="0 0 41 40" fill="none" xmlns="http://www.w3.org/2000/svg">
<path d="M17.9012 23.6L13.6012 19.3C13.2345 18.9333 12.7678 18.75 12.2012 18.75C11.6345 18.75 11.1678 18.9333 10.8012 19.3C10.4345 19.6667 10.2512 20.1333 10.2512 20.7C10.2512 21.2667 10.4345 21.7333 10.8012 22.1L16.5012 27.8C16.9012 28.2 17.3678 28.4 17.9012 28.4C18.4345 28.4 18.9012 28.2 19.3012 27.8L30.6012 16.5C30.9678 16.1333 31.1512 15.6667 31.1512 15.1C31.1512 14.5333 30.9678 14.0667 30.6012 13.7C30.2345 13.3333 29.7678 13.15 29.2012 13.15C28.6345 13.15 28.1678 13.3333 27.8012 13.7L17.9012 23.6ZM20.7012 40C17.9345 40 15.3345 39.4747 12.9012 38.424C10.4678 37.3733 8.35117 35.9487 6.55117 34.15C4.75117 32.3513 3.32651 30.2347 2.27717 27.8C1.22784 25.3653 0.702508 22.7653 0.701174 20C0.699841 17.2347 1.22517 14.6347 2.27717 12.2C3.32917 9.76533 4.75384 7.64866 6.55117 5.85C8.3485 4.05133 10.4652 2.62667 12.9012 1.576C15.3372 0.525333 17.9372 0 20.7012 0C23.4652 0 26.0652 0.525333 28.5012 1.576C30.9372 2.62667 33.0538 4.05133 34.8512 5.85C36.6485 7.64866 38.0738 9.76533 39.1271 12.2C40.1805 14.6347 40.7051 17.2347 40.7011 20C40.6971 22.7653 40.1718 25.3653 39.1252 27.8C38.0785 30.2347 36.6538 32.3513 34.8512 34.15C33.0485 35.9487 30.9318 37.374 28.5012 38.426C26.0705 39.478 23.4705 40.0027 20.7012 40Z" fill="url(#paint0_linear_3105_11493)"/>
<defs>
<linearGradient id="paint0_linear_3105_11493" x1="0.701169" y1="39.8242" x2="37.0333" y2="-2.88183" gradientUnits="userSpaceOnUse">
<stop stop-color="#FDFCA4"/>
<stop offset="1" stop-color="#D9AD49"/>
</linearGradient>
</defs>
</svg>
