<svg width="28" height="40" viewBox="0 0 28 40" fill="none" xmlns="http://www.w3.org/2000/svg">
<path d="M8.23099 25.9643H2.03373C1.23408 25.9643 0.642345 25.6034 0.258515 24.8816C-0.125316 24.1598 -0.0833348 23.4621 0.384458 22.7887L15.3279 1.11422C15.661 0.643768 16.0942 0.316466 16.6273 0.132317C17.1604 -0.0518323 17.7101 -0.0437672 18.2765 0.156512C18.843 0.356791 19.2594 0.709631 19.526 1.21503C19.7925 1.72044 19.8925 2.2581 19.8259 2.82802L18.2266 15.8831H25.9731C26.8394 15.8831 27.4478 16.2696 27.7983 17.0425C28.1488 17.8153 28.0402 18.5378 27.4725 19.2099L11.0297 39.0698C10.6632 39.5066 10.2134 39.7923 9.68035 39.9267C9.14725 40.0611 8.63081 40.0107 8.13103 39.7755C7.63125 39.5402 7.24009 39.1793 6.95755 38.6928C6.67501 38.2062 6.56639 37.6766 6.6317 37.104L8.23099 25.9643Z" fill="url(#paint0_linear_3105_11499)"/>
<defs>
<linearGradient id="paint0_linear_3105_11499" x1="-0.000978282" y1="39.8242" x2="36.1177" y2="10.1056" gradientUnits="userSpaceOnUse">
<stop stop-color="#FDFCA4"/>
<stop offset="1" stop-color="#D9AD49"/>
</linearGradient>
</defs>
</svg>
