<svg xmlns="http://www.w3.org/2000/svg" width="10" height="10" fill="none" viewBox="0 0 10 10">
  <path fill="url(#a)" d="M9.331 10c-1.053 0-2.133-.264-3.24-.791-1.106-.528-2.136-1.269-3.09-2.222-.946-.954-1.682-1.982-2.21-3.085C.264 2.8 0 1.722 0 .67 0 .48.063.323.188.194A.625.625 0 0 1 .655 0h1.546c.17 0 .318.054.445.16a.792.792 0 0 1 .257.412l.31 1.49c.029.175.024.328-.016.459a.654.654 0 0 1-.207.32L1.619 4.12c.256.466.54.898.85 1.298.31.4.642.778.994 1.135.363.363.753.7 1.171 1.013.419.312.878.606 1.378.883l1.337-1.36a.73.73 0 0 1 .343-.217c.127-.035.267-.042.421-.02l1.315.268a.75.75 0 0 1 .413.256c.106.13.159.278.159.446v1.522a.625.625 0 0 1-.194.469.657.657 0 0 1-.475.187Z"/>
  <defs>
    <linearGradient id="a" x1="5.321" x2="5.321" y1="0" y2="10" gradientUnits="userSpaceOnUse">
      <stop stop-color="#FDFCA4"/>
      <stop offset="1" stop-color="#D9AD49"/>
    </linearGradient>
  </defs>
</svg>
