<svg xmlns="http://www.w3.org/2000/svg" width="13" height="12" fill="none" viewBox="0 0 13 12">
  <path fill="url(#a)" d="M6.668 0A6 6 0 1 1 3.65 11.187l-2.136.583a.5.5 0 0 1-.614-.614l.582-2.137A6 6 0 0 1 6.668 0ZM4.623 3.18l-.12.005a.577.577 0 0 0-.223.06.776.776 0 0 0-.176.137c-.072.067-.113.126-.157.183a1.638 1.638 0 0 0-.34 1.007c.002.294.078.58.198.848.246.541.65 1.114 1.182 1.645.129.128.255.256.39.376a5.669 5.669 0 0 0 2.304 1.227l.341.052c.111.006.222-.002.334-.007.175-.01.345-.057.5-.139a3.1 3.1 0 0 0 .23-.132s.025-.017.074-.054a1.38 1.38 0 0 0 .198-.173.689.689 0 0 0 .126-.181c.047-.098.094-.284.113-.44.015-.119.01-.183.009-.224-.003-.064-.056-.13-.114-.159l-.35-.156s-.522-.228-.84-.373a.298.298 0 0 0-.106-.024.29.29 0 0 0-.227.076c-.003-.001-.043.033-.477.558a.21.21 0 0 1-.221.078.86.86 0 0 1-.115-.04c-.074-.03-.1-.042-.15-.064a3.615 3.615 0 0 1-.946-.602c-.075-.066-.146-.138-.218-.207a3.779 3.779 0 0 1-.612-.761l-.035-.057a.554.554 0 0 1-.061-.123c-.023-.088.036-.16.036-.16s.146-.159.214-.245c.066-.084.122-.166.158-.224.07-.114.093-.231.056-.322-.168-.41-.342-.819-.521-1.224-.036-.08-.14-.138-.236-.15l-.097-.01a2.03 2.03 0 0 0-.242.003l.12-.005.001.001Z"/>
  <defs>
    <linearGradient id="a" x1="7.053" x2="7.053" y1="0" y2="12" gradientUnits="userSpaceOnUse">
      <stop stop-color="#FDFCA4"/>
      <stop offset="1" stop-color="#D9AD49"/>
    </linearGradient>
  </defs>
</svg>
