<svg width="344" height="281" viewBox="0 0 344 281" fill="none" xmlns="http://www.w3.org/2000/svg">
<g filter="url(#filter0_ddi_2015_705)">
<mask id="path-1-inside-1_2015_705" fill="white">
<path d="M94.056 237V176.616L102.216 184.488H81.576V169.8H113.064V237H94.056ZM152.834 238.344C147.074 238.344 141.954 236.968 137.474 234.216C133.058 231.464 129.57 227.496 127.01 222.312C124.45 217.128 123.17 210.824 123.17 203.4C123.17 195.976 124.45 189.672 127.01 184.488C129.57 179.304 133.058 175.336 137.474 172.584C141.954 169.832 147.074 168.456 152.834 168.456C158.53 168.456 163.586 169.832 168.002 172.584C172.482 175.336 176.002 179.304 178.562 184.488C181.122 189.672 182.402 195.976 182.402 203.4C182.402 210.824 181.122 217.128 178.562 222.312C176.002 227.496 172.482 231.464 168.002 234.216C163.586 236.968 158.53 238.344 152.834 238.344ZM152.834 222.792C154.882 222.792 156.674 222.152 158.21 220.872C159.81 219.592 161.058 217.544 161.954 214.728C162.85 211.848 163.298 208.072 163.298 203.4C163.298 198.664 162.85 194.888 161.954 192.072C161.058 189.256 159.81 187.208 158.21 185.928C156.674 184.648 154.882 184.008 152.834 184.008C150.786 184.008 148.962 184.648 147.362 185.928C145.826 187.208 144.578 189.256 143.618 192.072C142.722 194.888 142.274 198.664 142.274 203.4C142.274 208.072 142.722 211.848 143.618 214.728C144.578 217.544 145.826 219.592 147.362 220.872C148.962 222.152 150.786 222.792 152.834 222.792ZM218.553 238.344C212.793 238.344 207.673 236.968 203.193 234.216C198.777 231.464 195.289 227.496 192.729 222.312C190.169 217.128 188.889 210.824 188.889 203.4C188.889 195.976 190.169 189.672 192.729 184.488C195.289 179.304 198.777 175.336 203.193 172.584C207.673 169.832 212.793 168.456 218.553 168.456C224.249 168.456 229.305 169.832 233.721 172.584C238.201 175.336 241.721 179.304 244.281 184.488C246.841 189.672 248.121 195.976 248.121 203.4C248.121 210.824 246.841 217.128 244.281 222.312C241.721 227.496 238.201 231.464 233.721 234.216C229.305 236.968 224.249 238.344 218.553 238.344ZM218.553 222.792C220.601 222.792 222.393 222.152 223.929 220.872C225.529 219.592 226.777 217.544 227.673 214.728C228.569 211.848 229.017 208.072 229.017 203.4C229.017 198.664 228.569 194.888 227.673 192.072C226.777 189.256 225.529 187.208 223.929 185.928C222.393 184.648 220.601 184.008 218.553 184.008C216.505 184.008 214.681 184.648 213.081 185.928C211.545 187.208 210.297 189.256 209.337 192.072C208.441 194.888 207.993 198.664 207.993 203.4C207.993 208.072 208.441 211.848 209.337 214.728C210.297 217.544 211.545 219.592 213.081 220.872C214.681 222.152 216.505 222.792 218.553 222.792ZM264.496 237L310.384 169.8H324.208L278.32 237H264.496ZM270.64 206.184C267.376 206.184 264.432 205.448 261.808 203.976C259.184 202.504 257.136 200.392 255.664 197.64C254.192 194.824 253.456 191.464 253.456 187.56C253.456 183.656 254.192 180.328 255.664 177.576C257.136 174.824 259.184 172.712 261.808 171.24C264.432 169.704 267.376 168.936 270.64 168.936C273.968 168.936 276.912 169.704 279.472 171.24C282.096 172.712 284.144 174.824 285.616 177.576C287.152 180.328 287.92 183.656 287.92 187.56C287.92 191.4 287.152 194.728 285.616 197.544C284.144 200.36 282.096 202.504 279.472 203.976C276.912 205.448 273.968 206.184 270.64 206.184ZM270.736 197.064C272.336 197.064 273.648 196.328 274.672 194.856C275.76 193.384 276.304 190.952 276.304 187.56C276.304 184.168 275.76 181.736 274.672 180.264C273.648 178.792 272.336 178.056 270.736 178.056C269.136 178.056 267.76 178.792 266.608 180.264C265.52 181.736 264.976 184.168 264.976 187.56C264.976 190.952 265.52 193.384 266.608 194.856C267.76 196.328 269.136 197.064 270.736 197.064ZM318.064 237.864C314.736 237.864 311.76 237.128 309.136 235.656C306.576 234.184 304.56 232.072 303.088 229.32C301.616 226.504 300.88 223.144 300.88 219.24C300.88 215.336 301.616 212.008 303.088 209.256C304.56 206.504 306.576 204.392 309.136 202.92C311.76 201.384 314.736 200.616 318.064 200.616C321.392 200.616 324.336 201.384 326.896 202.92C329.52 204.392 331.568 206.504 333.04 209.256C334.576 212.008 335.344 215.336 335.344 219.24C335.344 223.144 334.576 226.504 333.04 229.32C331.568 232.072 329.52 234.184 326.896 235.656C324.336 237.128 321.392 237.864 318.064 237.864ZM318.064 228.744C319.664 228.744 321.008 228.008 322.096 226.536C323.184 225.064 323.728 222.632 323.728 219.24C323.728 215.848 323.184 213.416 322.096 211.944C321.008 210.472 319.664 209.736 318.064 209.736C316.528 209.736 315.184 210.472 314.032 211.944C312.944 213.416 312.4 215.848 312.4 219.24C312.4 222.632 312.944 225.064 314.032 226.536C315.184 228.008 316.528 228.744 318.064 228.744Z"/>
</mask>
<path d="M94.056 237V176.616L102.216 184.488H81.576V169.8H113.064V237H94.056ZM152.834 238.344C147.074 238.344 141.954 236.968 137.474 234.216C133.058 231.464 129.57 227.496 127.01 222.312C124.45 217.128 123.17 210.824 123.17 203.4C123.17 195.976 124.45 189.672 127.01 184.488C129.57 179.304 133.058 175.336 137.474 172.584C141.954 169.832 147.074 168.456 152.834 168.456C158.53 168.456 163.586 169.832 168.002 172.584C172.482 175.336 176.002 179.304 178.562 184.488C181.122 189.672 182.402 195.976 182.402 203.4C182.402 210.824 181.122 217.128 178.562 222.312C176.002 227.496 172.482 231.464 168.002 234.216C163.586 236.968 158.53 238.344 152.834 238.344ZM152.834 222.792C154.882 222.792 156.674 222.152 158.21 220.872C159.81 219.592 161.058 217.544 161.954 214.728C162.85 211.848 163.298 208.072 163.298 203.4C163.298 198.664 162.85 194.888 161.954 192.072C161.058 189.256 159.81 187.208 158.21 185.928C156.674 184.648 154.882 184.008 152.834 184.008C150.786 184.008 148.962 184.648 147.362 185.928C145.826 187.208 144.578 189.256 143.618 192.072C142.722 194.888 142.274 198.664 142.274 203.4C142.274 208.072 142.722 211.848 143.618 214.728C144.578 217.544 145.826 219.592 147.362 220.872C148.962 222.152 150.786 222.792 152.834 222.792ZM218.553 238.344C212.793 238.344 207.673 236.968 203.193 234.216C198.777 231.464 195.289 227.496 192.729 222.312C190.169 217.128 188.889 210.824 188.889 203.4C188.889 195.976 190.169 189.672 192.729 184.488C195.289 179.304 198.777 175.336 203.193 172.584C207.673 169.832 212.793 168.456 218.553 168.456C224.249 168.456 229.305 169.832 233.721 172.584C238.201 175.336 241.721 179.304 244.281 184.488C246.841 189.672 248.121 195.976 248.121 203.4C248.121 210.824 246.841 217.128 244.281 222.312C241.721 227.496 238.201 231.464 233.721 234.216C229.305 236.968 224.249 238.344 218.553 238.344ZM218.553 222.792C220.601 222.792 222.393 222.152 223.929 220.872C225.529 219.592 226.777 217.544 227.673 214.728C228.569 211.848 229.017 208.072 229.017 203.4C229.017 198.664 228.569 194.888 227.673 192.072C226.777 189.256 225.529 187.208 223.929 185.928C222.393 184.648 220.601 184.008 218.553 184.008C216.505 184.008 214.681 184.648 213.081 185.928C211.545 187.208 210.297 189.256 209.337 192.072C208.441 194.888 207.993 198.664 207.993 203.4C207.993 208.072 208.441 211.848 209.337 214.728C210.297 217.544 211.545 219.592 213.081 220.872C214.681 222.152 216.505 222.792 218.553 222.792ZM264.496 237L310.384 169.8H324.208L278.32 237H264.496ZM270.64 206.184C267.376 206.184 264.432 205.448 261.808 203.976C259.184 202.504 257.136 200.392 255.664 197.64C254.192 194.824 253.456 191.464 253.456 187.56C253.456 183.656 254.192 180.328 255.664 177.576C257.136 174.824 259.184 172.712 261.808 171.24C264.432 169.704 267.376 168.936 270.64 168.936C273.968 168.936 276.912 169.704 279.472 171.24C282.096 172.712 284.144 174.824 285.616 177.576C287.152 180.328 287.92 183.656 287.92 187.56C287.92 191.4 287.152 194.728 285.616 197.544C284.144 200.36 282.096 202.504 279.472 203.976C276.912 205.448 273.968 206.184 270.64 206.184ZM270.736 197.064C272.336 197.064 273.648 196.328 274.672 194.856C275.76 193.384 276.304 190.952 276.304 187.56C276.304 184.168 275.76 181.736 274.672 180.264C273.648 178.792 272.336 178.056 270.736 178.056C269.136 178.056 267.76 178.792 266.608 180.264C265.52 181.736 264.976 184.168 264.976 187.56C264.976 190.952 265.52 193.384 266.608 194.856C267.76 196.328 269.136 197.064 270.736 197.064ZM318.064 237.864C314.736 237.864 311.76 237.128 309.136 235.656C306.576 234.184 304.56 232.072 303.088 229.32C301.616 226.504 300.88 223.144 300.88 219.24C300.88 215.336 301.616 212.008 303.088 209.256C304.56 206.504 306.576 204.392 309.136 202.92C311.76 201.384 314.736 200.616 318.064 200.616C321.392 200.616 324.336 201.384 326.896 202.92C329.52 204.392 331.568 206.504 333.04 209.256C334.576 212.008 335.344 215.336 335.344 219.24C335.344 223.144 334.576 226.504 333.04 229.32C331.568 232.072 329.52 234.184 326.896 235.656C324.336 237.128 321.392 237.864 318.064 237.864ZM318.064 228.744C319.664 228.744 321.008 228.008 322.096 226.536C323.184 225.064 323.728 222.632 323.728 219.24C323.728 215.848 323.184 213.416 322.096 211.944C321.008 210.472 319.664 209.736 318.064 209.736C316.528 209.736 315.184 210.472 314.032 211.944C312.944 213.416 312.4 215.848 312.4 219.24C312.4 222.632 312.944 225.064 314.032 226.536C315.184 228.008 316.528 228.744 318.064 228.744Z" fill="url(#paint0_linear_2015_705)"/>
<path d="M94.056 237H93.056V238H94.056V237ZM94.056 176.616L94.7503 175.896L93.056 174.262V176.616H94.056ZM102.216 184.488V185.488H104.693L102.91 183.768L102.216 184.488ZM81.576 184.488H80.576V185.488H81.576V184.488ZM81.576 169.8V168.8H80.576V169.8H81.576ZM113.064 169.8H114.064V168.8H113.064V169.8ZM113.064 237V238H114.064V237H113.064ZM95.056 237V176.616H93.056V237H95.056ZM93.3617 177.336L101.522 185.208L102.91 183.768L94.7503 175.896L93.3617 177.336ZM102.216 183.488H81.576V185.488H102.216V183.488ZM82.576 184.488V169.8H80.576V184.488H82.576ZM81.576 170.8H113.064V168.8H81.576V170.8ZM112.064 169.8V237H114.064V169.8H112.064ZM113.064 236H94.056V238H113.064V236ZM137.474 234.216L136.945 235.065L136.951 235.068L137.474 234.216ZM127.01 222.312L126.114 222.755L127.01 222.312ZM127.01 184.488L126.114 184.045L127.01 184.488ZM137.474 172.584L136.951 171.732L136.945 171.735L137.474 172.584ZM168.002 172.584L167.473 173.433L167.479 173.436L168.002 172.584ZM178.562 184.488L177.666 184.931L178.562 184.488ZM178.562 222.312L177.666 221.869L178.562 222.312ZM168.002 234.216L167.479 233.364L167.473 233.367L168.002 234.216ZM158.21 220.872L157.586 220.091L157.578 220.097L157.57 220.104L158.21 220.872ZM161.954 214.728L162.907 215.031L162.909 215.025L161.954 214.728ZM158.21 185.928L157.57 186.696L157.578 186.703L157.586 186.709L158.21 185.928ZM147.362 185.928L146.738 185.147L146.73 185.153L146.722 185.16L147.362 185.928ZM143.618 192.072L142.672 191.749L142.668 191.759L142.665 191.769L143.618 192.072ZM143.618 214.728L142.663 215.025L142.667 215.038L142.672 215.051L143.618 214.728ZM147.362 220.872L146.722 221.64L146.73 221.647L146.738 221.653L147.362 220.872ZM152.834 237.344C147.241 237.344 142.305 236.01 137.998 233.364L136.951 235.068C141.603 237.926 146.908 239.344 152.834 239.344V237.344ZM138.003 233.367C133.762 230.724 130.394 226.905 127.907 221.869L126.114 222.755C128.747 228.087 132.354 232.204 136.945 235.065L138.003 233.367ZM127.907 221.869C125.431 216.856 124.17 210.713 124.17 203.4H122.17C122.17 210.935 123.469 217.4 126.114 222.755L127.907 221.869ZM124.17 203.4C124.17 196.087 125.431 189.944 127.907 184.931L126.114 184.045C123.469 189.4 122.17 195.865 122.17 203.4H124.17ZM127.907 184.931C130.394 179.895 133.762 176.076 138.003 173.433L136.945 171.735C132.354 174.596 128.747 178.713 126.114 184.045L127.907 184.931ZM137.998 173.436C142.305 170.79 147.241 169.456 152.834 169.456V167.456C146.908 167.456 141.603 168.874 136.951 171.732L137.998 173.436ZM152.834 169.456C158.362 169.456 163.231 170.789 167.473 173.433L168.531 171.735C163.942 168.875 158.699 167.456 152.834 167.456V169.456ZM167.479 173.436C171.783 176.08 175.18 179.898 177.666 184.931L179.459 184.045C176.824 178.71 173.182 174.592 168.526 171.732L167.479 173.436ZM177.666 184.931C180.141 189.944 181.402 196.087 181.402 203.4H183.402C183.402 195.865 182.103 189.4 179.459 184.045L177.666 184.931ZM181.402 203.4C181.402 210.713 180.141 216.856 177.666 221.869L179.459 222.755C182.103 217.4 183.402 210.935 183.402 203.4H181.402ZM177.666 221.869C175.18 226.902 171.783 230.72 167.479 233.364L168.526 235.068C173.182 232.208 176.824 228.09 179.459 222.755L177.666 221.869ZM167.473 233.367C163.231 236.011 158.362 237.344 152.834 237.344V239.344C158.699 239.344 163.942 237.925 168.531 235.065L167.473 233.367ZM152.834 223.792C155.11 223.792 157.13 223.074 158.85 221.64L157.57 220.104C156.218 221.23 154.655 221.792 152.834 221.792V223.792ZM158.835 221.653C160.643 220.206 161.977 217.956 162.907 215.031L161.001 214.425C160.14 217.132 158.977 218.978 157.586 220.091L158.835 221.653ZM162.909 215.025C163.847 212.011 164.298 208.124 164.298 203.4H162.298C162.298 208.02 161.854 211.685 160.999 214.431L162.909 215.025ZM164.298 203.4C164.298 198.615 163.847 194.724 162.907 191.769L161.001 192.375C161.853 195.052 162.298 198.713 162.298 203.4H164.298ZM162.907 191.769C161.977 188.844 160.643 186.594 158.835 185.147L157.586 186.709C158.977 187.822 160.14 189.668 161.001 192.375L162.907 191.769ZM158.85 185.16C157.13 183.726 155.11 183.008 152.834 183.008V185.008C154.655 185.008 156.218 185.57 157.57 186.696L158.85 185.16ZM152.834 183.008C150.559 183.008 148.515 183.725 146.738 185.147L147.987 186.709C149.41 185.571 151.013 185.008 152.834 185.008V183.008ZM146.722 185.16C144.992 186.601 143.664 188.839 142.672 191.749L144.565 192.395C145.492 189.673 146.66 187.815 148.002 186.696L146.722 185.16ZM142.665 191.769C141.725 194.724 141.274 198.615 141.274 203.4H143.274C143.274 198.713 143.719 195.052 144.571 192.375L142.665 191.769ZM141.274 203.4C141.274 208.124 141.726 212.011 142.663 215.025L144.573 214.431C143.719 211.685 143.274 208.02 143.274 203.4H141.274ZM142.672 215.051C143.664 217.961 144.992 220.199 146.722 221.64L148.002 220.104C146.66 218.985 145.492 217.127 144.565 214.405L142.672 215.051ZM146.738 221.653C148.515 223.075 150.559 223.792 152.834 223.792V221.792C151.013 221.792 149.41 221.229 147.987 220.091L146.738 221.653ZM203.193 234.216L202.664 235.065L202.67 235.068L203.193 234.216ZM192.729 222.312L191.832 222.755L192.729 222.312ZM192.729 184.488L191.832 184.045L192.729 184.488ZM203.193 172.584L202.67 171.732L202.664 171.735L203.193 172.584ZM233.721 172.584L233.192 173.433L233.198 173.436L233.721 172.584ZM244.281 184.488L243.384 184.931L244.281 184.488ZM244.281 222.312L243.384 221.869L244.281 222.312ZM233.721 234.216L233.198 233.364L233.192 233.367L233.721 234.216ZM223.929 220.872L223.304 220.091L223.296 220.097L223.289 220.104L223.929 220.872ZM227.673 214.728L228.626 215.031L228.628 215.025L227.673 214.728ZM223.929 185.928L223.289 186.696L223.296 186.703L223.304 186.709L223.929 185.928ZM213.081 185.928L212.456 185.147L212.449 185.153L212.441 185.16L213.081 185.928ZM209.337 192.072L208.39 191.749L208.387 191.759L208.384 191.769L209.337 192.072ZM209.337 214.728L208.382 215.025L208.386 215.038L208.39 215.051L209.337 214.728ZM213.081 220.872L212.441 221.64L212.449 221.647L212.456 221.653L213.081 220.872ZM218.553 237.344C212.96 237.344 208.024 236.01 203.716 233.364L202.67 235.068C207.322 237.926 212.626 239.344 218.553 239.344V237.344ZM203.722 233.367C199.481 230.724 196.113 226.905 193.626 221.869L191.832 222.755C194.465 228.087 198.073 232.204 202.664 235.065L203.722 233.367ZM193.626 221.869C191.15 216.856 189.889 210.713 189.889 203.4H187.889C187.889 210.935 189.188 217.4 191.832 222.755L193.626 221.869ZM189.889 203.4C189.889 196.087 191.15 189.944 193.626 184.931L191.832 184.045C189.188 189.4 187.889 195.865 187.889 203.4H189.889ZM193.626 184.931C196.113 179.895 199.481 176.076 203.722 173.433L202.664 171.735C198.073 174.596 194.465 178.713 191.832 184.045L193.626 184.931ZM203.716 173.436C208.024 170.79 212.96 169.456 218.553 169.456V167.456C212.626 167.456 207.322 168.874 202.67 171.732L203.716 173.436ZM218.553 169.456C224.08 169.456 228.95 170.789 233.192 173.433L234.25 171.735C229.66 168.875 224.418 167.456 218.553 167.456V169.456ZM233.198 173.436C237.501 176.08 240.899 179.898 243.384 184.931L245.178 184.045C242.543 178.71 238.901 174.592 234.244 171.732L233.198 173.436ZM243.384 184.931C245.86 189.944 247.121 196.087 247.121 203.4H249.121C249.121 195.865 247.822 189.4 245.178 184.045L243.384 184.931ZM247.121 203.4C247.121 210.713 245.86 216.856 243.384 221.869L245.178 222.755C247.822 217.4 249.121 210.935 249.121 203.4H247.121ZM243.384 221.869C240.899 226.902 237.501 230.72 233.198 233.364L234.244 235.068C238.901 232.208 242.543 228.09 245.178 222.755L243.384 221.869ZM233.192 233.367C228.95 236.011 224.08 237.344 218.553 237.344V239.344C224.418 239.344 229.66 237.925 234.25 235.065L233.192 233.367ZM218.553 223.792C220.829 223.792 222.849 223.074 224.569 221.64L223.289 220.104C221.937 221.23 220.373 221.792 218.553 221.792V223.792ZM224.554 221.653C226.362 220.206 227.695 217.956 228.626 215.031L226.72 214.425C225.859 217.132 224.696 218.978 223.304 220.091L224.554 221.653ZM228.628 215.025C229.565 212.011 230.017 208.124 230.017 203.4H228.017C228.017 208.02 227.573 211.685 226.718 214.431L228.628 215.025ZM230.017 203.4C230.017 198.615 229.566 194.724 228.626 191.769L226.72 192.375C227.572 195.052 228.017 198.713 228.017 203.4H230.017ZM228.626 191.769C227.695 188.844 226.362 186.594 224.554 185.147L223.304 186.709C224.696 187.822 225.859 189.668 226.72 192.375L228.626 191.769ZM224.569 185.16C222.849 183.726 220.829 183.008 218.553 183.008V185.008C220.373 185.008 221.937 185.57 223.289 186.696L224.569 185.16ZM218.553 183.008C216.278 183.008 214.234 183.725 212.456 185.147L213.706 186.709C215.128 185.571 216.732 185.008 218.553 185.008V183.008ZM212.441 185.16C210.711 186.601 209.383 188.839 208.39 191.749L210.284 192.395C211.211 189.673 212.379 187.815 213.721 186.696L212.441 185.16ZM208.384 191.769C207.444 194.724 206.993 198.615 206.993 203.4H208.993C208.993 198.713 209.438 195.052 210.29 192.375L208.384 191.769ZM206.993 203.4C206.993 208.124 207.445 212.011 208.382 215.025L210.292 214.431C209.437 211.685 208.993 208.02 208.993 203.4H206.993ZM208.39 215.051C209.383 217.961 210.711 220.199 212.441 221.64L213.721 220.104C212.379 218.985 211.211 217.127 210.284 214.405L208.39 215.051ZM212.456 221.653C214.234 223.075 216.278 223.792 218.553 223.792V221.792C216.732 221.792 215.128 221.229 213.706 220.091L212.456 221.653ZM264.496 237L263.67 236.436L262.602 238H264.496V237ZM310.384 169.8V168.8H309.856L309.558 169.236L310.384 169.8ZM324.208 169.8L325.034 170.364L326.102 168.8H324.208V169.8ZM278.32 237V238H278.848L279.146 237.564L278.32 237ZM255.664 197.64L254.777 198.103L254.782 198.112L255.664 197.64ZM255.664 177.576L256.546 178.048L255.664 177.576ZM261.808 171.24L262.297 172.112L262.305 172.108L262.313 172.103L261.808 171.24ZM279.472 171.24L278.957 172.097L278.97 172.105L278.982 172.112L279.472 171.24ZM285.616 177.576L284.734 178.048L284.738 178.056L284.743 178.063L285.616 177.576ZM285.616 197.544L284.738 197.065L284.734 197.073L284.73 197.081L285.616 197.544ZM279.472 203.976L278.982 203.104L278.973 203.109L279.472 203.976ZM274.672 194.856L273.868 194.262L273.859 194.273L273.851 194.285L274.672 194.856ZM274.672 180.264L273.851 180.835L273.859 180.847L273.868 180.858L274.672 180.264ZM266.608 180.264L265.82 179.648L265.812 179.659L265.804 179.67L266.608 180.264ZM266.608 194.856L265.804 195.45L265.812 195.461L265.82 195.472L266.608 194.856ZM309.136 235.656L308.637 236.523L308.646 236.528L309.136 235.656ZM303.088 229.32L302.201 229.783L302.206 229.792L303.088 229.32ZM303.088 209.256L303.97 209.728L303.088 209.256ZM309.136 202.92L309.634 203.787L309.641 203.783L309.136 202.92ZM326.896 202.92L326.381 203.777L326.394 203.785L326.407 203.792L326.896 202.92ZM333.04 209.256L332.158 209.728L332.162 209.736L332.167 209.743L333.04 209.256ZM333.04 229.32L332.162 228.841L332.158 228.848L333.04 229.32ZM326.896 235.656L326.406 234.784L326.397 234.789L326.896 235.656ZM322.096 226.536L322.9 227.13V227.13L322.096 226.536ZM322.096 211.944L322.9 211.35L322.096 211.944ZM314.032 211.944L313.244 211.328L313.236 211.339L313.228 211.35L314.032 211.944ZM314.032 226.536L313.228 227.13L313.236 227.141L313.244 227.152L314.032 226.536ZM265.322 237.564L311.21 170.364L309.558 169.236L263.67 236.436L265.322 237.564ZM310.384 170.8H324.208V168.8H310.384V170.8ZM323.382 169.236L277.494 236.436L279.146 237.564L325.034 170.364L323.382 169.236ZM278.32 236H264.496V238H278.32V236ZM270.64 205.184C267.532 205.184 264.759 204.485 262.297 203.104L261.318 204.848C264.104 206.411 267.219 207.184 270.64 207.184V205.184ZM262.297 203.104C259.846 201.729 257.931 199.759 256.546 197.168L254.782 198.112C256.34 201.025 258.522 203.279 261.318 204.848L262.297 203.104ZM256.55 197.177C255.168 194.533 254.456 191.339 254.456 187.56H252.456C252.456 191.589 253.216 195.115 254.778 198.103L256.55 197.177ZM254.456 187.56C254.456 183.78 255.168 180.623 256.546 178.048L254.782 177.104C253.215 180.033 252.456 183.532 252.456 187.56H254.456ZM256.546 178.048C257.931 175.457 259.846 173.487 262.297 172.112L261.318 170.368C258.522 171.937 256.34 174.191 254.782 177.104L256.546 178.048ZM262.313 172.103C264.772 170.663 267.54 169.936 270.64 169.936V167.936C267.212 167.936 264.091 168.745 261.303 170.377L262.313 172.103ZM270.64 169.936C273.808 169.936 276.57 170.665 278.957 172.097L279.986 170.383C277.253 168.743 274.128 167.936 270.64 167.936V169.936ZM278.982 172.112C281.434 173.487 283.348 175.457 284.734 178.048L286.498 177.104C284.939 174.191 282.758 171.937 279.961 170.368L278.982 172.112ZM284.743 178.063C286.178 180.635 286.92 183.786 286.92 187.56H288.92C288.92 183.526 288.126 180.021 286.489 177.089L284.743 178.063ZM286.92 187.56C286.92 191.266 286.179 194.422 284.738 197.065L286.494 198.023C288.124 195.034 288.92 191.534 288.92 187.56H286.92ZM284.73 197.081C283.342 199.735 281.428 201.732 278.982 203.104L279.961 204.848C282.764 203.276 284.945 200.985 286.502 198.007L284.73 197.081ZM278.973 203.109C276.583 204.483 273.815 205.184 270.64 205.184V207.184C274.12 207.184 277.24 206.413 279.97 204.843L278.973 203.109ZM270.736 198.064C272.707 198.064 274.308 197.13 275.493 195.427L273.851 194.285C272.988 195.526 271.965 196.064 270.736 196.064V198.064ZM275.476 195.45C276.761 193.712 277.304 191.008 277.304 187.56H275.304C275.304 190.896 274.759 193.056 273.868 194.262L275.476 195.45ZM277.304 187.56C277.304 184.112 276.761 181.408 275.476 179.67L273.868 180.858C274.759 182.064 275.304 184.224 275.304 187.56H277.304ZM275.493 179.693C274.308 177.99 272.707 177.056 270.736 177.056V179.056C271.965 179.056 272.988 179.594 273.851 180.835L275.493 179.693ZM270.736 177.056C268.774 177.056 267.126 177.979 265.82 179.648L267.395 180.88C268.394 179.605 269.497 179.056 270.736 179.056V177.056ZM265.804 179.67C264.519 181.408 263.976 184.112 263.976 187.56H265.976C265.976 184.224 266.521 182.064 267.412 180.858L265.804 179.67ZM263.976 187.56C263.976 191.008 264.519 193.712 265.804 195.45L267.412 194.262C266.521 193.056 265.976 190.896 265.976 187.56H263.976ZM265.82 195.472C267.126 197.141 268.774 198.064 270.736 198.064V196.064C269.497 196.064 268.394 195.515 267.395 194.24L265.82 195.472ZM318.064 236.864C314.888 236.864 312.084 236.163 309.625 234.784L308.646 236.528C311.435 238.093 314.583 238.864 318.064 238.864V236.864ZM309.634 234.789C307.246 233.416 305.359 231.445 303.97 228.848L302.206 229.792C303.761 232.699 305.906 234.952 308.637 236.523L309.634 234.789ZM303.974 228.857C302.592 226.213 301.88 223.019 301.88 219.24H299.88C299.88 223.269 300.64 226.795 302.202 229.783L303.974 228.857ZM301.88 219.24C301.88 215.46 302.592 212.303 303.97 209.728L302.206 208.784C300.639 211.713 299.88 215.212 299.88 219.24H301.88ZM303.97 209.728C305.359 207.131 307.246 205.16 309.634 203.787L308.637 202.053C305.906 203.624 303.761 205.877 302.206 208.784L303.97 209.728ZM309.641 203.783C312.097 202.345 314.896 201.616 318.064 201.616V199.616C314.575 199.616 311.422 200.423 308.631 202.057L309.641 203.783ZM318.064 201.616C321.232 201.616 323.994 202.345 326.381 203.777L327.41 202.063C324.677 200.423 321.552 199.616 318.064 199.616V201.616ZM326.407 203.792C328.858 205.167 330.772 207.137 332.158 209.728L333.922 208.784C332.363 205.871 330.182 203.617 327.385 202.048L326.407 203.792ZM332.167 209.743C333.602 212.315 334.344 215.466 334.344 219.24H336.344C336.344 215.206 335.55 211.701 333.913 208.769L332.167 209.743ZM334.344 219.24C334.344 223.013 333.602 226.201 332.162 228.841L333.918 229.799C335.549 226.807 336.344 223.275 336.344 219.24H334.344ZM332.158 228.848C330.772 231.439 328.858 233.409 326.407 234.784L327.385 236.528C330.182 234.959 332.363 232.705 333.922 229.792L332.158 228.848ZM326.397 234.789C324.007 236.163 321.239 236.864 318.064 236.864V238.864C321.544 238.864 324.664 238.093 327.394 236.523L326.397 234.789ZM318.064 229.744C320.03 229.744 321.654 228.815 322.9 227.13L321.292 225.942C320.361 227.201 319.298 227.744 318.064 227.744V229.744ZM322.9 227.13C324.185 225.392 324.728 222.688 324.728 219.24H322.728C322.728 222.576 322.183 224.736 321.292 225.942L322.9 227.13ZM324.728 219.24C324.728 215.792 324.185 213.088 322.9 211.35L321.292 212.538C322.183 213.744 322.728 215.904 322.728 219.24H324.728ZM322.9 211.35C321.654 209.665 320.03 208.736 318.064 208.736V210.736C319.298 210.736 320.361 211.279 321.292 212.538L322.9 211.35ZM318.064 208.736C316.153 208.736 314.54 209.672 313.244 211.328L314.819 212.56C315.827 211.272 316.902 210.736 318.064 210.736V208.736ZM313.228 211.35C311.943 213.088 311.4 215.792 311.4 219.24H313.4C313.4 215.904 313.945 213.744 314.836 212.538L313.228 211.35ZM311.4 219.24C311.4 222.688 311.943 225.392 313.228 227.13L314.836 225.942C313.945 224.736 313.4 222.576 313.4 219.24H311.4ZM313.244 227.152C314.54 228.808 316.153 229.744 318.064 229.744V227.744C316.902 227.744 315.827 227.208 314.819 225.92L313.244 227.152Z" fill="url(#paint1_linear_2015_705)" mask="url(#path-1-inside-1_2015_705)"/>
</g>
<path opacity="0.6" d="M7.4 130V112.784H24.52V130H19.528V115.76L20.648 116.88H11.24L12.36 115.76V130H7.4ZM37.7223 130.256C35.7596 130.256 34.0316 129.872 32.5383 129.104C31.0663 128.336 29.9249 127.291 29.1143 125.968C28.3036 124.624 27.8983 123.099 27.8983 121.392C27.8983 119.664 28.2929 118.139 29.0823 116.816C29.8929 115.472 30.9916 114.427 32.3783 113.68C33.7649 112.912 35.3329 112.528 37.0823 112.528C38.7676 112.528 40.2823 112.891 41.6263 113.616C42.9916 114.32 44.0689 115.344 44.8583 116.688C45.6476 118.011 46.0423 119.6 46.0423 121.456C46.0423 121.648 46.0316 121.872 46.0103 122.128C45.9889 122.363 45.9676 122.587 45.9463 122.8H31.9623V119.888H43.3223L41.4023 120.752C41.4023 119.856 41.2209 119.077 40.8583 118.416C40.4956 117.755 39.9943 117.243 39.3543 116.88C38.7143 116.496 37.9676 116.304 37.1143 116.304C36.2609 116.304 35.5036 116.496 34.8423 116.88C34.2023 117.243 33.7009 117.765 33.3383 118.448C32.9756 119.109 32.7943 119.899 32.7943 120.816V121.584C32.7943 122.523 32.9969 123.355 33.4023 124.08C33.8289 124.784 34.4156 125.328 35.1623 125.712C35.9303 126.075 36.8263 126.256 37.8503 126.256C38.7676 126.256 39.5676 126.117 40.2503 125.84C40.9543 125.563 41.5943 125.147 42.1703 124.592L44.8263 127.472C44.0369 128.368 43.0449 129.061 41.8503 129.552C40.6556 130.021 39.2796 130.256 37.7223 130.256ZM60.0128 130.256C58.5621 130.256 57.2928 129.936 56.2048 129.296C55.1168 128.656 54.2634 127.685 53.6448 126.384C53.0474 125.061 52.7488 123.397 52.7488 121.392C52.7488 119.365 53.0368 117.701 53.6128 116.4C54.1888 115.099 55.0208 114.128 56.1088 113.488C57.1968 112.848 58.4981 112.528 60.0128 112.528C61.6341 112.528 63.0848 112.901 64.3647 113.648C65.6661 114.373 66.6901 115.397 67.4368 116.72C68.2048 118.043 68.5888 119.6 68.5888 121.392C68.5888 123.205 68.2048 124.773 67.4368 126.096C66.6901 127.419 65.6661 128.443 64.3647 129.168C63.0848 129.893 61.6341 130.256 60.0128 130.256ZM49.8368 136.208V112.784H54.6048V116.304L54.5088 121.424L54.8288 126.512V136.208H49.8368ZM59.1488 126.16C59.9808 126.16 60.7168 125.968 61.3568 125.584C62.0181 125.2 62.5408 124.656 62.9248 123.952C63.3301 123.227 63.5328 122.373 63.5328 121.392C63.5328 120.389 63.3301 119.536 62.9248 118.832C62.5408 118.128 62.0181 117.584 61.3568 117.2C60.7168 116.816 59.9808 116.624 59.1488 116.624C58.3168 116.624 57.5701 116.816 56.9088 117.2C56.2474 117.584 55.7248 118.128 55.3408 118.832C54.9568 119.536 54.7648 120.389 54.7648 121.392C54.7648 122.373 54.9568 123.227 55.3408 123.952C55.7248 124.656 56.2474 125.2 56.9088 125.584C57.5701 125.968 58.3168 126.16 59.1488 126.16ZM80.5035 130.256C78.5408 130.256 76.8128 129.872 75.3195 129.104C73.8475 128.336 72.7062 127.291 71.8955 125.968C71.0848 124.624 70.6795 123.099 70.6795 121.392C70.6795 119.664 71.0742 118.139 71.8635 116.816C72.6742 115.472 73.7728 114.427 75.1595 113.68C76.5462 112.912 78.1142 112.528 79.8635 112.528C81.5488 112.528 83.0635 112.891 84.4075 113.616C85.7728 114.32 86.8502 115.344 87.6395 116.688C88.4288 118.011 88.8235 119.6 88.8235 121.456C88.8235 121.648 88.8128 121.872 88.7915 122.128C88.7702 122.363 88.7488 122.587 88.7275 122.8H74.7435V119.888H86.1035L84.1835 120.752C84.1835 119.856 84.0022 119.077 83.6395 118.416C83.2768 117.755 82.7755 117.243 82.1355 116.88C81.4955 116.496 80.7488 116.304 79.8955 116.304C79.0422 116.304 78.2848 116.496 77.6235 116.88C76.9835 117.243 76.4822 117.765 76.1195 118.448C75.7568 119.109 75.5755 119.899 75.5755 120.816V121.584C75.5755 122.523 75.7782 123.355 76.1835 124.08C76.6102 124.784 77.1968 125.328 77.9435 125.712C78.7115 126.075 79.6075 126.256 80.6315 126.256C81.5488 126.256 82.3488 126.117 83.0315 125.84C83.7355 125.563 84.3755 125.147 84.9515 124.592L87.6075 127.472C86.8182 128.368 85.8262 129.061 84.6315 129.552C83.4368 130.021 82.0608 130.256 80.5035 130.256ZM92.65 130V112.784H109.77V130H104.778V115.76L105.898 116.88H96.49L97.61 115.76V130H92.65ZM112.38 129.968L112.636 125.872C112.764 125.893 112.892 125.915 113.02 125.936C113.148 125.936 113.266 125.936 113.372 125.936C113.97 125.936 114.439 125.765 114.78 125.424C115.122 125.083 115.378 124.624 115.548 124.048C115.719 123.451 115.836 122.779 115.9 122.032C115.986 121.285 116.05 120.507 116.092 119.696L116.348 112.784H131.068V130H126.076V115.664L127.196 116.88H119.644L120.7 115.6L120.476 119.92C120.412 121.456 120.284 122.864 120.092 124.144C119.922 125.424 119.634 126.533 119.228 127.472C118.823 128.389 118.279 129.104 117.596 129.616C116.914 130.107 116.039 130.352 114.972 130.352C114.588 130.352 114.183 130.32 113.756 130.256C113.33 130.192 112.871 130.096 112.38 129.968ZM146.173 130V126.64L145.853 125.904V119.888C145.853 118.821 145.522 117.989 144.861 117.392C144.221 116.795 143.229 116.496 141.885 116.496C140.967 116.496 140.061 116.645 139.165 116.944C138.29 117.221 137.543 117.605 136.925 118.096L135.133 114.608C136.071 113.947 137.202 113.435 138.525 113.072C139.847 112.709 141.191 112.528 142.557 112.528C145.181 112.528 147.218 113.147 148.669 114.384C150.119 115.621 150.845 117.552 150.845 120.176V130H146.173ZM140.925 130.256C139.581 130.256 138.429 130.032 137.469 129.584C136.509 129.115 135.773 128.485 135.261 127.696C134.749 126.907 134.493 126.021 134.493 125.04C134.493 124.016 134.738 123.12 135.229 122.352C135.741 121.584 136.541 120.987 137.629 120.56C138.717 120.112 140.135 119.888 141.885 119.888H146.461V122.8H142.429C141.255 122.8 140.445 122.992 139.997 123.376C139.57 123.76 139.357 124.24 139.357 124.816C139.357 125.456 139.602 125.968 140.093 126.352C140.605 126.715 141.298 126.896 142.173 126.896C143.005 126.896 143.751 126.704 144.413 126.32C145.074 125.915 145.554 125.328 145.853 124.56L146.621 126.864C146.258 127.973 145.597 128.816 144.637 129.392C143.677 129.968 142.439 130.256 140.925 130.256ZM158.861 130V115.728L159.981 116.88H153.037V112.784H169.645V116.88H162.701L163.821 115.728V130H158.861ZM190.034 130V112.784H194.994V130H190.034ZM181.362 118.288C183.624 118.309 185.32 118.821 186.45 119.824C187.602 120.805 188.178 122.203 188.178 124.016C188.178 125.915 187.528 127.397 186.226 128.464C184.925 129.509 183.08 130.032 180.69 130.032L172.306 130V112.784H177.266V118.288H181.362ZM180.242 126.48C181.202 126.501 181.938 126.299 182.45 125.872C182.962 125.445 183.218 124.805 183.218 123.952C183.218 123.099 182.962 122.491 182.45 122.128C181.938 121.744 181.202 121.541 180.242 121.52L177.266 121.488V126.48H180.242Z" fill="white"/>
<path opacity="0.6" d="M91.464 274.256C89.6293 274.256 87.9973 273.872 86.568 273.104C85.16 272.336 84.04 271.291 83.208 269.968C82.3973 268.624 81.992 267.099 81.992 265.392C81.992 263.664 82.3973 262.139 83.208 260.816C84.04 259.472 85.16 258.427 86.568 257.68C87.9973 256.912 89.6293 256.528 91.464 256.528C93.2773 256.528 94.8987 256.912 96.328 257.68C97.7573 258.427 98.8773 259.461 99.688 260.784C100.499 262.107 100.904 263.643 100.904 265.392C100.904 267.099 100.499 268.624 99.688 269.968C98.8773 271.291 97.7573 272.336 96.328 273.104C94.8987 273.872 93.2773 274.256 91.464 274.256ZM91.464 270.16C92.296 270.16 93.0427 269.968 93.704 269.584C94.3653 269.2 94.888 268.656 95.272 267.952C95.656 267.227 95.848 266.373 95.848 265.392C95.848 264.389 95.656 263.536 95.272 262.832C94.888 262.128 94.3653 261.584 93.704 261.2C93.0427 260.816 92.296 260.624 91.464 260.624C90.632 260.624 89.8853 260.816 89.224 261.2C88.5627 261.584 88.0293 262.128 87.624 262.832C87.24 263.536 87.048 264.389 87.048 265.392C87.048 266.373 87.24 267.227 87.624 267.952C88.0293 268.656 88.5627 269.2 89.224 269.584C89.8853 269.968 90.632 270.16 91.464 270.16ZM115.928 271.76V260.88H110.296L110.2 263.088C110.157 264.005 110.104 264.88 110.04 265.712C109.976 266.544 109.848 267.301 109.656 267.984C109.485 268.645 109.229 269.211 108.888 269.68C108.546 270.128 108.088 270.437 107.512 270.608L102.584 269.904C103.202 269.904 103.704 269.723 104.088 269.36C104.472 268.976 104.77 268.453 104.984 267.792C105.197 267.109 105.357 266.341 105.464 265.488C105.57 264.613 105.645 263.696 105.688 262.736L105.911 256.784H120.92V271.76H115.928ZM102.008 277.712V269.904H123.384V277.712H118.744V274H106.648V277.712H102.008ZM134.589 274.256C132.754 274.256 131.122 273.872 129.693 273.104C128.285 272.336 127.165 271.291 126.333 269.968C125.522 268.624 125.117 267.099 125.117 265.392C125.117 263.664 125.522 262.139 126.333 260.816C127.165 259.472 128.285 258.427 129.693 257.68C131.122 256.912 132.754 256.528 134.589 256.528C136.402 256.528 138.024 256.912 139.453 257.68C140.882 258.427 142.002 259.461 142.813 260.784C143.624 262.107 144.029 263.643 144.029 265.392C144.029 267.099 143.624 268.624 142.813 269.968C142.002 271.291 140.882 272.336 139.453 273.104C138.024 273.872 136.402 274.256 134.589 274.256ZM134.589 270.16C135.421 270.16 136.168 269.968 136.829 269.584C137.49 269.2 138.013 268.656 138.397 267.952C138.781 267.227 138.973 266.373 138.973 265.392C138.973 264.389 138.781 263.536 138.397 262.832C138.013 262.128 137.49 261.584 136.829 261.2C136.168 260.816 135.421 260.624 134.589 260.624C133.757 260.624 133.01 260.816 132.349 261.2C131.688 261.584 131.154 262.128 130.749 262.832C130.365 263.536 130.173 264.389 130.173 265.392C130.173 266.373 130.365 267.227 130.749 267.952C131.154 268.656 131.688 269.2 132.349 269.584C133.01 269.968 133.757 270.16 134.589 270.16ZM156.007 274.384C154.599 274.384 153.319 274.181 152.167 273.776C151.015 273.349 150.012 272.699 149.159 271.824C148.327 270.928 147.676 269.787 147.207 268.4C146.759 267.013 146.535 265.36 146.535 263.44C146.535 262.075 146.652 260.827 146.887 259.696C147.121 258.565 147.473 257.541 147.943 256.624C148.412 255.685 149.009 254.864 149.735 254.16C150.481 253.435 151.345 252.837 152.327 252.368C153.329 251.877 154.46 251.504 155.719 251.248L163.911 249.616L164.583 253.904L157.351 255.344C156.924 255.429 156.433 255.547 155.879 255.696C155.345 255.824 154.801 256.027 154.247 256.304C153.713 256.581 153.212 256.976 152.743 257.488C152.295 257.979 151.932 258.629 151.655 259.44C151.377 260.229 151.239 261.211 151.239 262.384C151.239 262.747 151.249 263.024 151.271 263.216C151.313 263.408 151.345 263.611 151.367 263.824C151.409 264.037 151.431 264.368 151.431 264.816L149.831 263.248C150.3 262.245 150.897 261.392 151.623 260.688C152.369 259.984 153.223 259.451 154.183 259.088C155.164 258.704 156.252 258.512 157.447 258.512C159.068 258.512 160.487 258.843 161.703 259.504C162.94 260.144 163.9 261.051 164.583 262.224C165.265 263.397 165.607 264.731 165.607 266.224C165.607 267.845 165.201 269.275 164.391 270.512C163.58 271.728 162.449 272.677 160.999 273.36C159.569 274.043 157.905 274.384 156.007 274.384ZM156.263 270.512C157.095 270.512 157.831 270.331 158.471 269.968C159.111 269.584 159.601 269.083 159.943 268.464C160.305 267.824 160.487 267.109 160.487 266.32C160.487 265.552 160.305 264.869 159.943 264.272C159.601 263.675 159.111 263.205 158.471 262.864C157.831 262.523 157.084 262.352 156.231 262.352C155.399 262.352 154.652 262.523 153.991 262.864C153.329 263.184 152.817 263.632 152.455 264.208C152.092 264.784 151.911 265.456 151.911 266.224C151.911 267.013 152.092 267.739 152.455 268.4C152.839 269.04 153.351 269.552 153.991 269.936C154.652 270.32 155.409 270.512 156.263 270.512ZM179.138 274.256C177.687 274.256 176.418 273.936 175.33 273.296C174.242 272.656 173.388 271.685 172.77 270.384C172.172 269.061 171.874 267.397 171.874 265.392C171.874 263.365 172.162 261.701 172.738 260.4C173.314 259.099 174.146 258.128 175.234 257.488C176.322 256.848 177.623 256.528 179.138 256.528C180.759 256.528 182.21 256.901 183.49 257.648C184.791 258.373 185.815 259.397 186.562 260.72C187.33 262.043 187.714 263.6 187.714 265.392C187.714 267.205 187.33 268.773 186.562 270.096C185.815 271.419 184.791 272.443 183.49 273.168C182.21 273.893 180.759 274.256 179.138 274.256ZM168.962 280.208V256.784H173.73V260.304L173.634 265.424L173.954 270.512V280.208H168.962ZM178.274 270.16C179.106 270.16 179.842 269.968 180.482 269.584C181.143 269.2 181.666 268.656 182.05 267.952C182.455 267.227 182.658 266.373 182.658 265.392C182.658 264.389 182.455 263.536 182.05 262.832C181.666 262.128 181.143 261.584 180.482 261.2C179.842 260.816 179.106 260.624 178.274 260.624C177.442 260.624 176.695 260.816 176.034 261.2C175.372 261.584 174.85 262.128 174.466 262.832C174.082 263.536 173.89 264.389 173.89 265.392C173.89 266.373 174.082 267.227 174.466 267.952C174.85 268.656 175.372 269.2 176.034 269.584C176.695 269.968 177.442 270.16 178.274 270.16ZM199.629 274.256C197.666 274.256 195.938 273.872 194.445 273.104C192.973 272.336 191.831 271.291 191.021 269.968C190.21 268.624 189.805 267.099 189.805 265.392C189.805 263.664 190.199 262.139 190.989 260.816C191.799 259.472 192.898 258.427 194.285 257.68C195.671 256.912 197.239 256.528 198.989 256.528C200.674 256.528 202.189 256.891 203.533 257.616C204.898 258.32 205.975 259.344 206.765 260.688C207.554 262.011 207.949 263.6 207.949 265.456C207.949 265.648 207.938 265.872 207.917 266.128C207.895 266.363 207.874 266.587 207.853 266.8H193.869V263.888H205.229L203.309 264.752C203.309 263.856 203.127 263.077 202.765 262.416C202.402 261.755 201.901 261.243 201.261 260.88C200.621 260.496 199.874 260.304 199.021 260.304C198.167 260.304 197.41 260.496 196.749 260.88C196.109 261.243 195.607 261.765 195.245 262.448C194.882 263.109 194.701 263.899 194.701 264.816V265.584C194.701 266.523 194.903 267.355 195.309 268.08C195.735 268.784 196.322 269.328 197.069 269.712C197.837 270.075 198.733 270.256 199.757 270.256C200.674 270.256 201.474 270.117 202.157 269.84C202.861 269.563 203.501 269.147 204.077 268.592L206.733 271.472C205.943 272.368 204.951 273.061 203.757 273.552C202.562 274.021 201.186 274.256 199.629 274.256ZM211.775 274V256.784H216.735V263.504H224.223V256.784H229.215V274H224.223V267.568H216.735V274H211.775ZM233.994 274V256.784H238.954V267.024L247.338 256.784H251.914V274H246.954V263.76L238.602 274H233.994ZM267.561 274V268.272L268.265 269.072H263.497C261.022 269.072 259.081 268.56 257.673 267.536C256.265 266.512 255.561 265.04 255.561 263.12C255.561 261.072 256.297 259.504 257.769 258.416C259.262 257.328 261.267 256.784 263.785 256.784H272.009V274H267.561ZM255.305 274L259.881 267.44H264.969L260.617 274H255.305ZM267.561 266.736V259.568L268.265 260.848H263.881C262.857 260.848 262.057 261.04 261.481 261.424C260.926 261.808 260.649 262.427 260.649 263.28C260.649 264.923 261.705 265.744 263.817 265.744H268.265L267.561 266.736Z" fill="white"/>
<g filter="url(#filter1_ddi_2015_705)">
<mask id="path-5-inside-2_2015_705" fill="white">
<path d="M37.928 94.344C32.168 94.344 27.048 92.968 22.568 90.216C18.152 87.464 14.664 83.496 12.104 78.312C9.544 73.128 8.264 66.824 8.264 59.4C8.264 51.976 9.544 45.672 12.104 40.488C14.664 35.304 18.152 31.336 22.568 28.584C27.048 25.832 32.168 24.456 37.928 24.456C43.624 24.456 48.68 25.832 53.096 28.584C57.576 31.336 61.096 35.304 63.656 40.488C66.216 45.672 67.496 51.976 67.496 59.4C67.496 66.824 66.216 73.128 63.656 78.312C61.096 83.496 57.576 87.464 53.096 90.216C48.68 92.968 43.624 94.344 37.928 94.344ZM37.928 78.792C39.976 78.792 41.768 78.152 43.304 76.872C44.904 75.592 46.152 73.544 47.048 70.728C47.944 67.848 48.392 64.072 48.392 59.4C48.392 54.664 47.944 50.888 47.048 48.072C46.152 45.256 44.904 43.208 43.304 41.928C41.768 40.648 39.976 40.008 37.928 40.008C35.88 40.008 34.056 40.648 32.456 41.928C30.92 43.208 29.672 45.256 28.712 48.072C27.816 50.888 27.368 54.664 27.368 59.4C27.368 64.072 27.816 67.848 28.712 70.728C29.672 73.544 30.92 75.592 32.456 76.872C34.056 78.152 35.88 78.792 37.928 78.792ZM83.8708 93L129.759 25.8H143.583L97.6948 93H83.8708ZM90.0148 62.184C86.7508 62.184 83.8068 61.448 81.1828 59.976C78.5588 58.504 76.5108 56.392 75.0388 53.64C73.5668 50.824 72.8308 47.464 72.8308 43.56C72.8308 39.656 73.5668 36.328 75.0388 33.576C76.5108 30.824 78.5588 28.712 81.1828 27.24C83.8068 25.704 86.7508 24.936 90.0148 24.936C93.3428 24.936 96.2868 25.704 98.8468 27.24C101.471 28.712 103.519 30.824 104.991 33.576C106.527 36.328 107.295 39.656 107.295 43.56C107.295 47.4 106.527 50.728 104.991 53.544C103.519 56.36 101.471 58.504 98.8468 59.976C96.2868 61.448 93.3428 62.184 90.0148 62.184ZM90.1108 53.064C91.7108 53.064 93.0228 52.328 94.0468 50.856C95.1348 49.384 95.6788 46.952 95.6788 43.56C95.6788 40.168 95.1348 37.736 94.0468 36.264C93.0228 34.792 91.7108 34.056 90.1108 34.056C88.5108 34.056 87.1348 34.792 85.9828 36.264C84.8948 37.736 84.3508 40.168 84.3508 43.56C84.3508 46.952 84.8948 49.384 85.9828 50.856C87.1348 52.328 88.5108 53.064 90.1108 53.064ZM137.439 93.864C134.111 93.864 131.135 93.128 128.511 91.656C125.951 90.184 123.935 88.072 122.463 85.32C120.991 82.504 120.255 79.144 120.255 75.24C120.255 71.336 120.991 68.008 122.463 65.256C123.935 62.504 125.951 60.392 128.511 58.92C131.135 57.384 134.111 56.616 137.439 56.616C140.767 56.616 143.711 57.384 146.271 58.92C148.895 60.392 150.943 62.504 152.415 65.256C153.951 68.008 154.719 71.336 154.719 75.24C154.719 79.144 153.951 82.504 152.415 85.32C150.943 88.072 148.895 90.184 146.271 91.656C143.711 93.128 140.767 93.864 137.439 93.864ZM137.439 84.744C139.039 84.744 140.383 84.008 141.471 82.536C142.559 81.064 143.103 78.632 143.103 75.24C143.103 71.848 142.559 69.416 141.471 67.944C140.383 66.472 139.039 65.736 137.439 65.736C135.903 65.736 134.559 66.472 133.407 67.944C132.319 69.416 131.775 71.848 131.775 75.24C131.775 78.632 132.319 81.064 133.407 82.536C134.559 84.008 135.903 84.744 137.439 84.744Z"/>
</mask>
<path d="M37.928 94.344C32.168 94.344 27.048 92.968 22.568 90.216C18.152 87.464 14.664 83.496 12.104 78.312C9.544 73.128 8.264 66.824 8.264 59.4C8.264 51.976 9.544 45.672 12.104 40.488C14.664 35.304 18.152 31.336 22.568 28.584C27.048 25.832 32.168 24.456 37.928 24.456C43.624 24.456 48.68 25.832 53.096 28.584C57.576 31.336 61.096 35.304 63.656 40.488C66.216 45.672 67.496 51.976 67.496 59.4C67.496 66.824 66.216 73.128 63.656 78.312C61.096 83.496 57.576 87.464 53.096 90.216C48.68 92.968 43.624 94.344 37.928 94.344ZM37.928 78.792C39.976 78.792 41.768 78.152 43.304 76.872C44.904 75.592 46.152 73.544 47.048 70.728C47.944 67.848 48.392 64.072 48.392 59.4C48.392 54.664 47.944 50.888 47.048 48.072C46.152 45.256 44.904 43.208 43.304 41.928C41.768 40.648 39.976 40.008 37.928 40.008C35.88 40.008 34.056 40.648 32.456 41.928C30.92 43.208 29.672 45.256 28.712 48.072C27.816 50.888 27.368 54.664 27.368 59.4C27.368 64.072 27.816 67.848 28.712 70.728C29.672 73.544 30.92 75.592 32.456 76.872C34.056 78.152 35.88 78.792 37.928 78.792ZM83.8708 93L129.759 25.8H143.583L97.6948 93H83.8708ZM90.0148 62.184C86.7508 62.184 83.8068 61.448 81.1828 59.976C78.5588 58.504 76.5108 56.392 75.0388 53.64C73.5668 50.824 72.8308 47.464 72.8308 43.56C72.8308 39.656 73.5668 36.328 75.0388 33.576C76.5108 30.824 78.5588 28.712 81.1828 27.24C83.8068 25.704 86.7508 24.936 90.0148 24.936C93.3428 24.936 96.2868 25.704 98.8468 27.24C101.471 28.712 103.519 30.824 104.991 33.576C106.527 36.328 107.295 39.656 107.295 43.56C107.295 47.4 106.527 50.728 104.991 53.544C103.519 56.36 101.471 58.504 98.8468 59.976C96.2868 61.448 93.3428 62.184 90.0148 62.184ZM90.1108 53.064C91.7108 53.064 93.0228 52.328 94.0468 50.856C95.1348 49.384 95.6788 46.952 95.6788 43.56C95.6788 40.168 95.1348 37.736 94.0468 36.264C93.0228 34.792 91.7108 34.056 90.1108 34.056C88.5108 34.056 87.1348 34.792 85.9828 36.264C84.8948 37.736 84.3508 40.168 84.3508 43.56C84.3508 46.952 84.8948 49.384 85.9828 50.856C87.1348 52.328 88.5108 53.064 90.1108 53.064ZM137.439 93.864C134.111 93.864 131.135 93.128 128.511 91.656C125.951 90.184 123.935 88.072 122.463 85.32C120.991 82.504 120.255 79.144 120.255 75.24C120.255 71.336 120.991 68.008 122.463 65.256C123.935 62.504 125.951 60.392 128.511 58.92C131.135 57.384 134.111 56.616 137.439 56.616C140.767 56.616 143.711 57.384 146.271 58.92C148.895 60.392 150.943 62.504 152.415 65.256C153.951 68.008 154.719 71.336 154.719 75.24C154.719 79.144 153.951 82.504 152.415 85.32C150.943 88.072 148.895 90.184 146.271 91.656C143.711 93.128 140.767 93.864 137.439 93.864ZM137.439 84.744C139.039 84.744 140.383 84.008 141.471 82.536C142.559 81.064 143.103 78.632 143.103 75.24C143.103 71.848 142.559 69.416 141.471 67.944C140.383 66.472 139.039 65.736 137.439 65.736C135.903 65.736 134.559 66.472 133.407 67.944C132.319 69.416 131.775 71.848 131.775 75.24C131.775 78.632 132.319 81.064 133.407 82.536C134.559 84.008 135.903 84.744 137.439 84.744Z" fill="url(#paint2_linear_2015_705)"/>
<path d="M22.568 90.216L22.0391 91.0647L22.0446 91.0681L22.568 90.216ZM12.104 78.312L11.2074 78.7548L12.104 78.312ZM12.104 40.488L11.2074 40.0452H11.2074L12.104 40.488ZM22.568 28.584L22.0446 27.7319L22.0391 27.7353L22.568 28.584ZM53.096 28.584L52.5671 29.4327L52.5726 29.4361L53.096 28.584ZM63.656 40.488L62.7594 40.9308L63.656 40.488ZM63.656 78.312L62.7594 77.8692L63.656 78.312ZM53.096 90.216L52.5726 89.3639L52.5671 89.3673L53.096 90.216ZM43.304 76.872L42.6793 76.0911L42.6715 76.0974L42.6638 76.1038L43.304 76.872ZM47.048 70.728L48.0009 71.0312L48.0029 71.0251L47.048 70.728ZM43.304 41.928L42.6638 42.6962L42.6715 42.7026L42.6793 42.7089L43.304 41.928ZM32.456 41.928L31.8313 41.1471L31.8235 41.1534L31.8158 41.1598L32.456 41.928ZM28.712 48.072L27.7655 47.7493L27.7622 47.759L27.7591 47.7688L28.712 48.072ZM28.712 70.728L27.7571 71.0251L27.7611 71.0379L27.7655 71.0507L28.712 70.728ZM32.456 76.872L31.8158 77.6402L31.8235 77.6466L31.8313 77.6529L32.456 76.872ZM37.928 93.344C32.3345 93.344 27.3991 92.0101 23.0914 89.3639L22.0446 91.0681C26.6969 93.9259 32.0015 95.344 37.928 95.344V93.344ZM23.0969 89.3673C18.856 86.7245 15.4877 82.9054 13.0006 77.8692L11.2074 78.7548C13.8403 84.0865 17.448 88.2035 22.0391 91.0647L23.0969 89.3673ZM13.0006 77.8692C10.5251 72.8563 9.264 66.7126 9.264 59.4H7.264C7.264 66.9354 8.56287 73.3997 11.2074 78.7548L13.0006 77.8692ZM9.264 59.4C9.264 52.0874 10.5251 45.9437 13.0006 40.9308L11.2074 40.0452C8.56287 45.4003 7.264 51.8646 7.264 59.4H9.264ZM13.0006 40.9308C15.4877 35.8945 18.856 32.0755 23.0969 29.4327L22.0391 27.7353C17.448 30.5965 13.8403 34.7135 11.2074 40.0452L13.0006 40.9308ZM23.0914 29.4361C27.3991 26.7899 32.3345 25.456 37.928 25.456V23.456C32.0015 23.456 26.6969 24.8741 22.0446 27.7319L23.0914 29.4361ZM37.928 25.456C43.4554 25.456 48.3247 26.7888 52.5671 29.4327L53.6249 27.7353C49.0353 24.8751 43.7926 23.456 37.928 23.456V25.456ZM52.5726 29.4361C56.8763 32.0798 60.2742 35.8982 62.7594 40.9308L64.5526 40.0452C61.9179 34.7098 58.2757 30.5922 53.6194 27.7319L52.5726 29.4361ZM62.7594 40.9308C65.2349 45.9437 66.496 52.0874 66.496 59.4H68.496C68.496 51.8646 67.1971 45.4003 64.5526 40.0452L62.7594 40.9308ZM66.496 59.4C66.496 66.7126 65.2349 72.8563 62.7594 77.8692L64.5526 78.7548C67.1971 73.3997 68.496 66.9354 68.496 59.4H66.496ZM62.7594 77.8692C60.2742 82.9018 56.8763 86.7202 52.5726 89.3639L53.6194 91.0681C58.2757 88.2078 61.9179 84.0902 64.5526 78.7548L62.7594 77.8692ZM52.5671 89.3673C48.3247 92.0112 43.4554 93.344 37.928 93.344V95.344C43.7926 95.344 49.0353 93.9249 53.6249 91.0647L52.5671 89.3673ZM37.928 79.792C40.2037 79.792 42.2238 79.0739 43.9442 77.6402L42.6638 76.1038C41.3122 77.2301 39.7483 77.792 37.928 77.792V79.792ZM43.9287 77.6529C45.737 76.2062 47.0703 73.9561 48.0009 71.0312L46.0951 70.4248C45.2337 73.1319 44.071 74.9778 42.6793 76.0911L43.9287 77.6529ZM48.0029 71.0251C48.9405 68.0113 49.392 64.1239 49.392 59.4H47.392C47.392 64.0201 46.9475 67.6847 46.0931 70.4309L48.0029 71.0251ZM49.392 59.4C49.392 54.6152 48.9411 50.7237 48.0009 47.7688L46.0951 48.3752C46.9469 51.0523 47.392 54.7128 47.392 59.4H49.392ZM48.0009 47.7688C47.0703 44.8439 45.737 42.5938 43.9287 41.1471L42.6793 42.7089C44.071 43.8222 45.2337 45.6681 46.0951 48.3752L48.0009 47.7688ZM43.9442 41.1598C42.2238 39.7261 40.2037 39.008 37.928 39.008V41.008C39.7483 41.008 41.3122 41.5699 42.6638 42.6962L43.9442 41.1598ZM37.928 39.008C35.6528 39.008 33.6085 39.7254 31.8313 41.1471L33.0807 42.7089C34.5035 41.5706 36.1072 41.008 37.928 41.008V39.008ZM31.8158 41.1598C30.086 42.6013 28.7578 44.8386 27.7655 47.7493L29.6585 48.3947C30.5862 45.6733 31.754 43.8147 33.0962 42.6962L31.8158 41.1598ZM27.7591 47.7688C26.8189 50.7237 26.368 54.6152 26.368 59.4H28.368C28.368 54.7128 28.8131 51.0523 29.6649 48.3752L27.7591 47.7688ZM26.368 59.4C26.368 64.1239 26.8195 68.0113 27.7571 71.0251L29.6669 70.4309C28.8125 67.6847 28.368 64.0201 28.368 59.4H26.368ZM27.7655 71.0507C28.7578 73.9613 30.086 76.1987 31.8158 77.6402L33.0962 76.1038C31.754 74.9853 30.5862 73.1266 29.6585 70.4053L27.7655 71.0507ZM31.8313 77.6529C33.6085 79.0746 35.6528 79.792 37.928 79.792V77.792C36.1072 77.792 34.5035 77.2294 33.0807 76.0911L31.8313 77.6529ZM83.8708 93L83.0449 92.4361L81.977 94H83.8708V93ZM129.759 25.8V24.8H129.231L128.933 25.2361L129.759 25.8ZM143.583 25.8L144.409 26.3639L145.477 24.8H143.583V25.8ZM97.6947 93V94H98.2228L98.5206 93.5639L97.6947 93ZM75.0387 53.64L74.1525 54.1033L74.157 54.1116L75.0387 53.64ZM75.0387 33.576L75.9205 34.0476L75.0387 33.576ZM81.1827 27.24L81.672 28.1121L81.68 28.1076L81.6879 28.103L81.1827 27.24ZM98.8467 27.24L98.3323 28.0975L98.3448 28.105L98.3575 28.1121L98.8467 27.24ZM104.991 33.576L104.109 34.0476L104.113 34.0555L104.118 34.0634L104.991 33.576ZM104.991 53.544L104.113 53.0651L104.109 53.0729L104.105 53.0807L104.991 53.544ZM98.8467 59.976L98.3575 59.1038L98.3483 59.1091L98.8467 59.976ZM94.0468 50.856L93.2426 50.2616L93.234 50.2732L93.2258 50.2849L94.0468 50.856ZM94.0468 36.264L93.2258 36.8351L93.234 36.8468L93.2426 36.8584L94.0468 36.264ZM85.9827 36.264L85.1952 35.6477L85.1868 35.6585L85.1786 35.6696L85.9827 36.264ZM85.9827 50.856L85.1786 51.4504L85.1868 51.4615L85.1952 51.4723L85.9827 50.856ZM128.511 91.656L128.012 92.523L128.022 92.5281L128.511 91.656ZM122.463 85.32L121.576 85.7833L121.581 85.7916L122.463 85.32ZM122.463 65.256L123.345 65.7277L122.463 65.256ZM128.511 58.92L129.009 59.7869L129.016 59.783L128.511 58.92ZM146.271 58.92L145.756 59.7775L145.769 59.785L145.782 59.7921L146.271 58.92ZM152.415 65.256L151.533 65.7277L151.537 65.7355L151.542 65.7434L152.415 65.256ZM152.415 85.32L151.537 84.8411L151.533 84.8484L152.415 85.32ZM146.271 91.656L145.781 90.7838L145.772 90.7891L146.271 91.656ZM141.471 82.536L142.275 83.1304V83.1304L141.471 82.536ZM141.471 67.944L142.275 67.3496L141.471 67.944ZM133.407 67.944L132.619 67.3277L132.611 67.3385L132.603 67.3496L133.407 67.944ZM133.407 82.536L132.603 83.1304L132.611 83.1415L132.619 83.1523L133.407 82.536ZM84.6966 93.5639L130.585 26.3639L128.933 25.2361L83.0449 92.4361L84.6966 93.5639ZM129.759 26.8H143.583V24.8H129.759V26.8ZM142.757 25.2361L96.8689 92.4361L98.5206 93.5639L144.409 26.3639L142.757 25.2361ZM97.6947 92H83.8708V94H97.6947V92ZM90.0147 61.184C86.9071 61.184 84.134 60.485 81.672 59.1039L80.6935 60.8481C83.4795 62.411 86.5944 63.184 90.0147 63.184V61.184ZM81.672 59.1039C79.2208 57.7288 77.3061 55.7588 75.9205 53.1683L74.157 54.1116C75.7154 57.0252 77.8967 59.2792 80.6935 60.8481L81.672 59.1039ZM75.925 53.1767C74.5429 50.5328 73.8307 47.339 73.8307 43.56H71.8307C71.8307 47.589 72.5906 51.1152 74.1525 54.1033L75.925 53.1767ZM73.8307 43.56C73.8307 39.78 74.5432 36.6226 75.9205 34.0476L74.157 33.1043C72.5903 36.0334 71.8307 39.532 71.8307 43.56H73.8307ZM75.9205 34.0476C77.3061 31.4572 79.2208 29.4872 81.672 28.1121L80.6935 26.3679C77.8967 27.9368 75.7154 30.1908 74.157 33.1043L75.9205 34.0476ZM81.6879 28.103C84.1474 26.6633 86.9148 25.936 90.0147 25.936V23.936C86.5867 23.936 83.4661 24.7447 80.6776 26.377L81.6879 28.103ZM90.0147 25.936C93.1829 25.936 95.945 26.6651 98.3323 28.0975L99.3612 26.3825C96.6285 24.7428 93.5026 23.936 90.0147 23.936V25.936ZM98.3575 28.1121C100.809 29.4872 102.723 31.4572 104.109 34.0476L105.873 33.1043C104.314 30.1908 102.133 27.9368 99.336 26.3679L98.3575 28.1121ZM104.118 34.0634C105.553 36.6348 106.295 39.7864 106.295 43.56H108.295C108.295 39.5256 107.501 36.0212 105.864 33.0886L104.118 34.0634ZM106.295 43.56C106.295 47.2656 105.554 50.4224 104.113 53.0651L105.869 54.0229C107.499 51.0336 108.295 47.5344 108.295 43.56H106.295ZM104.105 53.0807C102.717 55.735 100.803 57.7322 98.3575 59.1039L99.336 60.8481C102.139 59.2758 104.32 56.985 105.877 54.0073L104.105 53.0807ZM98.3483 59.1091C95.9584 60.4833 93.1905 61.184 90.0147 61.184V63.184C93.495 63.184 96.6151 62.4127 99.3452 60.8429L98.3483 59.1091ZM90.1107 54.064C92.0816 54.064 93.683 53.13 94.8677 51.4271L93.2258 50.2849C92.3625 51.526 91.34 52.064 90.1107 52.064V54.064ZM94.8509 51.4504C96.1357 49.7121 96.6787 47.0078 96.6787 43.56H94.6787C94.6787 46.8962 94.1338 49.0559 93.2426 50.2616L94.8509 51.4504ZM96.6787 43.56C96.6787 40.1122 96.1357 37.4079 94.8509 35.6696L93.2426 36.8584C94.1338 38.0641 94.6787 40.2238 94.6787 43.56H96.6787ZM94.8677 35.6929C93.683 33.99 92.0816 33.056 90.1107 33.056V35.056C91.34 35.056 92.3625 35.594 93.2258 36.8351L94.8677 35.6929ZM90.1107 33.056C88.1494 33.056 86.5009 33.9793 85.1952 35.6477L86.7703 36.8803C87.7686 35.6047 88.8721 35.056 90.1107 35.056V33.056ZM85.1786 35.6696C83.8938 37.4079 83.3508 40.1122 83.3508 43.56H85.3508C85.3508 40.2238 85.8957 38.0641 86.7869 36.8584L85.1786 35.6696ZM83.3508 43.56C83.3508 47.0078 83.8938 49.7121 85.1786 51.4504L86.7869 50.2616C85.8957 49.0559 85.3508 46.8962 85.3508 43.56H83.3508ZM85.1952 51.4723C86.5009 53.1407 88.1494 54.064 90.1107 54.064V52.064C88.8721 52.064 87.7686 51.5153 86.7703 50.2397L85.1952 51.4723ZM137.439 92.864C134.263 92.864 131.459 92.1634 129 90.7839L128.022 92.5281C130.81 94.0926 133.958 94.864 137.439 94.864V92.864ZM129.009 90.7891C126.621 89.4158 124.734 87.4451 123.345 84.8484L121.581 85.7916C123.136 88.6989 125.281 90.9522 128.012 92.5229L129.009 90.7891ZM123.349 84.8567C121.967 82.2128 121.255 79.019 121.255 75.24H119.255C119.255 79.269 120.015 82.7952 121.577 85.7833L123.349 84.8567ZM121.255 75.24C121.255 71.46 121.967 68.3026 123.345 65.7277L121.581 64.7843C120.014 67.7134 119.255 71.212 119.255 75.24H121.255ZM123.345 65.7277C124.734 63.1309 126.621 61.1602 129.009 59.7869L128.012 58.0531C125.281 59.6238 123.136 61.8771 121.581 64.7843L123.345 65.7277ZM129.016 59.783C131.472 58.3451 134.271 57.616 137.439 57.616V55.616C133.95 55.616 130.797 56.4229 128.006 58.057L129.016 59.783ZM137.439 57.616C140.607 57.616 143.369 58.3451 145.756 59.7775L146.785 58.0625C144.052 56.4229 140.927 55.616 137.439 55.616V57.616ZM145.782 59.7921C148.233 61.1672 150.147 63.1372 151.533 65.7277L153.297 64.7843C151.738 61.8708 149.557 59.6168 146.76 58.0479L145.782 59.7921ZM151.542 65.7434C152.977 68.3148 153.719 71.4664 153.719 75.24H155.719C155.719 71.2056 154.925 67.7012 153.288 64.7686L151.542 65.7434ZM153.719 75.24C153.719 79.0127 152.977 82.2007 151.537 84.8411L153.293 85.7989C154.924 82.8073 155.719 79.2753 155.719 75.24H153.719ZM151.533 84.8484C150.147 87.4388 148.233 89.4088 145.782 90.7839L146.76 92.5281C149.557 90.9592 151.738 88.7052 153.297 85.7916L151.533 84.8484ZM145.772 90.7891C143.382 92.1633 140.614 92.864 137.439 92.864V94.864C140.919 94.864 144.039 94.0927 146.769 92.5229L145.772 90.7891ZM137.439 85.744C139.405 85.744 141.029 84.8155 142.275 83.1304L140.667 81.9416C139.736 83.2005 138.673 83.744 137.439 83.744V85.744ZM142.275 83.1304C143.56 81.3921 144.103 78.6878 144.103 75.24H142.103C142.103 78.5762 141.558 80.7359 140.667 81.9416L142.275 83.1304ZM144.103 75.24C144.103 71.7922 143.56 69.0879 142.275 67.3496L140.667 68.5384C141.558 69.7441 142.103 71.9038 142.103 75.24H144.103ZM142.275 67.3496C141.029 65.6645 139.405 64.736 137.439 64.736V66.736C138.673 66.736 139.736 67.2795 140.667 68.5384L142.275 67.3496ZM137.439 64.736C135.528 64.736 133.915 65.6718 132.619 67.3277L134.194 68.5603C135.202 67.2722 136.277 66.736 137.439 66.736V64.736ZM132.603 67.3496C131.318 69.0879 130.775 71.7922 130.775 75.24H132.775C132.775 71.9038 133.32 69.7441 134.211 68.5384L132.603 67.3496ZM130.775 75.24C130.775 78.6878 131.318 81.3922 132.603 83.1304L134.211 81.9416C133.32 80.7359 132.775 78.5762 132.775 75.24H130.775ZM132.619 83.1523C133.915 84.8082 135.528 85.744 137.439 85.744V83.744C136.277 83.744 135.202 83.2078 134.194 81.9197L132.619 83.1523Z" fill="url(#paint3_linear_2015_705)" mask="url(#path-5-inside-2_2015_705)"/>
</g>
<defs>
<filter id="filter0_ddi_2015_705" x="73.5762" y="164.456" width="269.768" height="85.888" filterUnits="userSpaceOnUse" color-interpolation-filters="sRGB">
<feFlood flood-opacity="0" result="BackgroundImageFix"/>
<feColorMatrix in="SourceAlpha" type="matrix" values="0 0 0 0 0 0 0 0 0 0 0 0 0 0 0 0 0 0 127 0" result="hardAlpha"/>
<feOffset dx="4" dy="4"/>
<feGaussianBlur stdDeviation="2"/>
<feComposite in2="hardAlpha" operator="out"/>
<feColorMatrix type="matrix" values="0 0 0 0 1 0 0 0 0 1 0 0 0 0 1 0 0 0 0.04 0"/>
<feBlend mode="normal" in2="BackgroundImageFix" result="effect1_dropShadow_2015_705"/>
<feColorMatrix in="SourceAlpha" type="matrix" values="0 0 0 0 0 0 0 0 0 0 0 0 0 0 0 0 0 0 127 0" result="hardAlpha"/>
<feOffset dy="4"/>
<feGaussianBlur stdDeviation="4"/>
<feComposite in2="hardAlpha" operator="out"/>
<feColorMatrix type="matrix" values="0 0 0 0 0.929412 0 0 0 0 0.85098 0 0 0 0 0.482353 0 0 0 0.6 0"/>
<feBlend mode="normal" in2="effect1_dropShadow_2015_705" result="effect2_dropShadow_2015_705"/>
<feBlend mode="normal" in="SourceGraphic" in2="effect2_dropShadow_2015_705" result="shape"/>
<feColorMatrix in="SourceAlpha" type="matrix" values="0 0 0 0 0 0 0 0 0 0 0 0 0 0 0 0 0 0 127 0" result="hardAlpha"/>
<feOffset dx="2" dy="2"/>
<feGaussianBlur stdDeviation="1"/>
<feComposite in2="hardAlpha" operator="arithmetic" k2="-1" k3="1"/>
<feColorMatrix type="matrix" values="0 0 0 0 1 0 0 0 0 0.996237 0 0 0 0 0.983333 0 0 0 1 0"/>
<feBlend mode="normal" in2="shape" result="effect3_innerShadow_2015_705"/>
</filter>
<filter id="filter1_ddi_2015_705" x="0.263672" y="20.456" width="162.455" height="85.888" filterUnits="userSpaceOnUse" color-interpolation-filters="sRGB">
<feFlood flood-opacity="0" result="BackgroundImageFix"/>
<feColorMatrix in="SourceAlpha" type="matrix" values="0 0 0 0 0 0 0 0 0 0 0 0 0 0 0 0 0 0 127 0" result="hardAlpha"/>
<feOffset dx="4" dy="4"/>
<feGaussianBlur stdDeviation="2"/>
<feComposite in2="hardAlpha" operator="out"/>
<feColorMatrix type="matrix" values="0 0 0 0 1 0 0 0 0 1 0 0 0 0 1 0 0 0 0.04 0"/>
<feBlend mode="normal" in2="BackgroundImageFix" result="effect1_dropShadow_2015_705"/>
<feColorMatrix in="SourceAlpha" type="matrix" values="0 0 0 0 0 0 0 0 0 0 0 0 0 0 0 0 0 0 127 0" result="hardAlpha"/>
<feOffset dy="4"/>
<feGaussianBlur stdDeviation="4"/>
<feComposite in2="hardAlpha" operator="out"/>
<feColorMatrix type="matrix" values="0 0 0 0 0.929412 0 0 0 0 0.85098 0 0 0 0 0.482353 0 0 0 0.6 0"/>
<feBlend mode="normal" in2="effect1_dropShadow_2015_705" result="effect2_dropShadow_2015_705"/>
<feBlend mode="normal" in="SourceGraphic" in2="effect2_dropShadow_2015_705" result="shape"/>
<feColorMatrix in="SourceAlpha" type="matrix" values="0 0 0 0 0 0 0 0 0 0 0 0 0 0 0 0 0 0 127 0" result="hardAlpha"/>
<feOffset dx="2" dy="2"/>
<feGaussianBlur stdDeviation="1"/>
<feComposite in2="hardAlpha" operator="arithmetic" k2="-1" k3="1"/>
<feColorMatrix type="matrix" values="0 0 0 0 1 0 0 0 0 0.996237 0 0 0 0 0.983333 0 0 0 1 0"/>
<feBlend mode="normal" in2="shape" result="effect3_innerShadow_2015_705"/>
</filter>
<linearGradient id="paint0_linear_2015_705" x1="81" y1="144" x2="381.836" y2="169.345" gradientUnits="userSpaceOnUse">
<stop stop-color="#FDFCA4"/>
<stop offset="1" stop-color="#D9AD49"/>
</linearGradient>
<linearGradient id="paint1_linear_2015_705" x1="81" y1="260.486" x2="153.519" y2="73.2473" gradientUnits="userSpaceOnUse">
<stop stop-color="#FDFCA4"/>
<stop offset="1" stop-color="#D9AD49"/>
</linearGradient>
<linearGradient id="paint2_linear_2015_705" x1="5" y1="0" x2="183.746" y2="8.90648" gradientUnits="userSpaceOnUse">
<stop stop-color="#FDFCA4"/>
<stop offset="1" stop-color="#D9AD49"/>
</linearGradient>
<linearGradient id="paint3_linear_2015_705" x1="4.99999" y1="116.486" x2="103.686" y2="-34.2145" gradientUnits="userSpaceOnUse">
<stop stop-color="#FDFCA4"/>
<stop offset="1" stop-color="#D9AD49"/>
</linearGradient>
</defs>
</svg>
