<svg width="1366" height="1024" viewBox="0 0 1366 1024" fill="none" xmlns="http://www.w3.org/2000/svg">
<g clip-path="url(#clip0_185_3640)">
<g opacity="0.2">
<path d="M392.426 571.503C393.009 571.503 393.482 571.03 393.482 570.446C393.482 569.863 393.009 569.39 392.426 569.39C391.842 569.39 391.369 569.863 391.369 570.446C391.369 571.03 391.842 571.503 392.426 571.503Z" fill="url(#paint0_linear_185_3640)"/>
<path d="M356.353 495.13C356.353 495.734 355.9 496.187 355.297 496.187C354.693 496.187 354.24 495.734 354.24 495.13C354.24 494.527 354.693 494.074 355.297 494.074C355.75 493.923 356.353 494.376 356.353 495.13Z" fill="url(#paint1_linear_185_3640)"/>
<path d="M33.8085 581.012C34.392 581.012 34.865 580.538 34.865 579.955C34.865 579.371 34.392 578.898 33.8085 578.898C33.225 578.898 32.752 579.371 32.752 579.955C32.752 580.538 33.225 581.012 33.8085 581.012Z" fill="url(#paint2_linear_185_3640)"/>
<path d="M489.174 765.754C489.757 765.754 490.23 765.281 490.23 764.697C490.23 764.114 489.757 763.641 489.174 763.641C488.59 763.641 488.117 764.114 488.117 764.697C488.117 765.281 488.59 765.754 489.174 765.754Z" fill="url(#paint3_linear_185_3640)"/>
<path d="M448.121 740.095C448.704 740.095 449.178 739.622 449.178 739.039C449.178 738.455 448.704 737.982 448.121 737.982C447.537 737.982 447.064 738.455 447.064 739.039C447.064 739.622 447.537 740.095 448.121 740.095Z" fill="url(#paint4_linear_185_3640)"/>
<path d="M467.892 775.413C467.892 776.017 467.44 776.47 466.836 776.47C466.232 776.47 465.779 776.017 465.779 775.413C465.779 774.809 466.232 774.356 466.836 774.356C467.289 774.206 467.892 774.809 467.892 775.413Z" fill="url(#paint5_linear_185_3640)"/>
<path d="M481.929 823.863C481.929 824.466 481.477 824.919 480.873 824.919C480.269 824.919 479.816 824.466 479.816 823.863C479.816 823.259 480.269 822.806 480.873 822.806C481.326 822.655 481.929 823.108 481.929 823.863Z" fill="url(#paint6_linear_185_3640)"/>
<path d="M397.408 985.965C397.992 985.965 398.465 985.492 398.465 984.908C398.465 984.325 397.992 983.852 397.408 983.852C396.825 983.852 396.352 984.325 396.352 984.908C396.352 985.492 396.825 985.965 397.408 985.965Z" fill="url(#paint7_linear_185_3640)"/>
<path d="M306.697 879.104C307.281 879.104 307.754 878.631 307.754 878.048C307.754 877.464 307.281 876.991 306.697 876.991C306.114 876.991 305.641 877.464 305.641 878.048C305.641 878.631 306.114 879.104 306.697 879.104Z" fill="url(#paint8_linear_185_3640)"/>
<path d="M330.392 882.878C330.976 882.878 331.449 882.405 331.449 881.821C331.449 881.238 330.976 880.765 330.392 880.765C329.809 880.765 329.336 881.238 329.336 881.821C329.336 882.405 329.809 882.878 330.392 882.878Z" fill="url(#paint9_linear_185_3640)"/>
<path d="M40.1483 670.213C40.7319 670.213 41.2049 669.74 41.2049 669.156C41.2049 668.573 40.7319 668.1 40.1483 668.1C39.5648 668.1 39.0918 668.573 39.0918 669.156C39.0918 669.74 39.5648 670.213 40.1483 670.213Z" fill="url(#paint10_linear_185_3640)"/>
<path d="M60.5253 628.254C61.1088 628.254 61.5818 627.781 61.5818 627.197C61.5818 626.614 61.1088 626.141 60.5253 626.141C59.9418 626.141 59.4688 626.614 59.4688 627.197C59.4688 627.781 59.9418 628.254 60.5253 628.254Z" fill="url(#paint11_linear_185_3640)"/>
<path d="M119.992 531.354C120.576 531.354 121.049 530.881 121.049 530.298C121.049 529.714 120.576 529.241 119.992 529.241C119.409 529.241 118.936 529.714 118.936 530.298C118.936 530.881 119.409 531.354 119.992 531.354Z" fill="url(#paint12_linear_185_3640)"/>
<path d="M317.262 497.395C317.262 498.3 316.507 499.055 315.602 499.055C314.696 499.055 313.941 498.3 313.941 497.395C313.941 496.489 314.696 495.734 315.602 495.734C316.507 495.734 317.262 496.338 317.262 497.395Z" fill="url(#paint13_linear_185_3640)"/>
<path d="M491.438 707.645C491.438 708.55 490.683 709.305 489.777 709.305C488.872 709.305 488.117 708.55 488.117 707.645C488.117 706.739 488.872 705.984 489.777 705.984C490.683 705.984 491.438 706.739 491.438 707.645Z" fill="url(#paint14_linear_185_3640)"/>
<path d="M82.258 823.259C82.258 824.165 81.5033 824.919 80.5977 824.919C79.6922 824.919 78.9375 824.165 78.9375 823.259C78.9375 822.353 79.6922 821.599 80.5977 821.599C81.5033 821.599 82.258 822.353 82.258 823.259Z" fill="url(#paint15_linear_185_3640)"/>
<path d="M249.795 871.406C249.795 872.312 249.04 873.067 248.135 873.067C247.229 873.067 246.475 872.312 246.475 871.406C246.475 870.501 247.229 869.746 248.135 869.746C249.04 869.746 249.795 870.501 249.795 871.406Z" fill="url(#paint16_linear_185_3640)"/>
<path d="M363.145 885.443C363.145 886.349 362.39 887.104 361.484 887.104C360.579 887.104 359.824 886.349 359.824 885.443C359.824 884.538 360.579 883.783 361.484 883.783C362.541 883.783 363.145 884.538 363.145 885.443Z" fill="url(#paint17_linear_185_3640)"/>
<path d="M321.336 1017.21C321.336 1017.81 320.883 1018.26 320.279 1018.26C319.675 1018.26 319.223 1017.81 319.223 1017.21C319.223 1016.6 319.675 1016.15 320.279 1016.15C320.883 1016.15 321.336 1016.6 321.336 1017.21Z" fill="url(#paint18_linear_185_3640)"/>
<path d="M394.991 925.893C394.991 927.251 393.784 928.459 392.425 928.459C391.067 928.459 389.859 927.251 389.859 925.893C389.859 924.535 391.067 923.327 392.425 923.327C393.784 923.327 394.991 924.535 394.991 925.893Z" fill="url(#paint19_linear_185_3640)"/>
<path d="M81.5048 920.611C81.5048 921.969 80.2973 923.177 78.9389 923.177C77.5805 923.177 76.373 921.969 76.373 920.611C76.373 919.252 77.5805 918.045 78.9389 918.045C80.2973 918.045 81.5048 919.252 81.5048 920.611Z" fill="url(#paint20_linear_185_3640)"/>
<path d="M211.457 843.635C211.457 843.937 211.156 844.239 210.854 844.239C210.552 844.239 210.25 843.937 210.25 843.635C210.25 843.333 210.552 843.031 210.854 843.031C211.307 843.031 211.457 843.182 211.457 843.635Z" fill="url(#paint21_linear_185_3640)"/>
<path d="M438.762 812.694C438.762 812.995 438.46 813.297 438.158 813.297C437.857 813.297 437.555 812.995 437.555 812.694C437.555 812.392 437.857 812.09 438.158 812.09C438.46 812.09 438.762 812.241 438.762 812.694Z" fill="url(#paint22_linear_185_3640)"/>
<path d="M234.098 864.464C234.098 864.766 233.796 865.068 233.494 865.068C233.193 865.068 232.891 864.766 232.891 864.464C232.891 864.162 233.193 863.86 233.494 863.86C233.947 863.86 234.098 864.162 234.098 864.464Z" fill="url(#paint23_linear_185_3640)"/>
<path d="M488.721 742.208C488.721 742.51 488.419 742.812 488.117 742.812C487.816 742.812 487.514 742.51 487.514 742.208C487.514 741.906 487.816 741.604 488.117 741.604C488.419 741.604 488.721 741.906 488.721 742.208Z" fill="url(#paint24_linear_185_3640)"/>
<path d="M139.01 498.904C139.01 499.205 138.708 499.507 138.406 499.507C138.105 499.507 137.803 499.205 137.803 498.904C137.803 498.602 138.105 498.3 138.406 498.3C138.708 498.3 139.01 498.602 139.01 498.904Z" fill="url(#paint25_linear_185_3640)"/>
<path d="M63.9965 703.72C63.9965 704.022 63.6947 704.324 63.3928 704.324C63.0909 704.324 62.7891 704.022 62.7891 703.72C62.7891 703.418 63.0909 703.116 63.3928 703.116C63.8456 703.116 63.9965 703.418 63.9965 703.72Z" fill="url(#paint26_linear_185_3640)"/>
<path d="M87.391 720.624C87.391 720.926 87.0892 721.228 86.7873 721.228C86.4855 721.228 86.1836 720.926 86.1836 720.624C86.1836 720.322 86.4855 720.021 86.7873 720.021C87.0892 720.021 87.391 720.322 87.391 720.624Z" fill="url(#paint27_linear_185_3640)"/>
<path d="M254.776 515.809C254.776 516.111 254.474 516.413 254.172 516.413C253.87 516.413 253.568 516.111 253.568 515.809C253.568 515.507 253.87 515.205 254.172 515.205C254.474 515.205 254.776 515.507 254.776 515.809Z" fill="url(#paint28_linear_185_3640)"/>
<path d="M195.76 529.09C195.76 529.392 195.458 529.694 195.156 529.694C194.855 529.694 194.553 529.392 194.553 529.09C194.553 528.788 194.855 528.486 195.156 528.486C195.458 528.486 195.76 528.788 195.76 529.09Z" fill="url(#paint29_linear_185_3640)"/>
<path d="M202.704 475.962C202.704 476.264 202.402 476.566 202.1 476.566C201.798 476.566 201.496 476.264 201.496 475.962C201.496 475.66 201.798 475.358 202.1 475.358C202.402 475.358 202.704 475.66 202.704 475.962Z" fill="url(#paint30_linear_185_3640)"/>
<path d="M212.362 510.677C212.362 510.979 212.06 511.281 211.758 511.281C211.456 511.281 211.154 510.979 211.154 510.677C211.154 510.375 211.456 510.073 211.758 510.073C212.06 510.073 212.362 510.375 212.362 510.677Z" fill="url(#paint31_linear_185_3640)"/>
<path d="M361.184 579.955C361.184 580.257 360.882 580.559 360.58 580.559C360.278 580.559 359.977 580.257 359.977 579.955C359.977 579.653 360.278 579.352 360.58 579.352C360.882 579.352 361.184 579.653 361.184 579.955Z" fill="url(#paint32_linear_185_3640)"/>
<path d="M477.401 580.559C477.401 580.861 477.099 581.163 476.797 581.163C476.495 581.163 476.193 580.861 476.193 580.559C476.193 580.257 476.495 579.955 476.797 579.955C477.099 579.955 477.401 580.257 477.401 580.559Z" fill="url(#paint33_linear_185_3640)"/>
<path d="M438.762 543.127C438.762 543.429 438.46 543.731 438.158 543.731C437.857 543.731 437.555 543.429 437.555 543.127C437.555 542.825 437.857 542.523 438.158 542.523C438.46 542.523 438.762 542.825 438.762 543.127Z" fill="url(#paint34_linear_185_3640)"/>
<path d="M119.387 812.694C119.387 812.995 119.085 813.297 118.783 813.297C118.482 813.297 118.18 812.995 118.18 812.694C118.18 812.392 118.482 812.09 118.783 812.09C119.236 812.09 119.387 812.241 119.387 812.694Z" fill="url(#paint35_linear_185_3640)"/>
<path d="M438.762 578.446C438.762 578.747 438.46 579.049 438.158 579.049C437.857 579.049 437.555 578.747 437.555 578.446C437.555 578.144 437.857 577.842 438.158 577.842C438.46 577.842 438.762 578.144 438.762 578.446Z" fill="url(#paint36_linear_185_3640)"/>
<path d="M404.653 474.604C404.653 474.906 404.351 475.207 404.049 475.207C403.747 475.207 403.445 474.906 403.445 474.604C403.445 474.302 403.747 474 404.049 474C404.351 474 404.653 474.302 404.653 474.604Z" fill="url(#paint37_linear_185_3640)"/>
<path d="M545.622 656.478C545.622 656.78 545.32 657.081 545.018 657.081C544.716 657.081 544.414 656.78 544.414 656.478C544.414 656.176 544.716 655.874 545.018 655.874C545.32 655.874 545.622 656.176 545.622 656.478Z" fill="url(#paint38_linear_185_3640)"/>
<path d="M536.87 827.032C536.87 827.334 536.568 827.636 536.266 827.636C535.964 827.636 535.662 827.334 535.662 827.032C535.662 826.731 535.964 826.429 536.266 826.429C536.568 826.429 536.87 826.731 536.87 827.032Z" fill="url(#paint39_linear_185_3640)"/>
<path d="M442.989 949.59C442.989 949.892 442.687 950.194 442.385 950.194C442.083 950.194 441.781 949.892 441.781 949.59C441.781 949.288 442.083 948.986 442.385 948.986C442.687 948.986 442.989 949.288 442.989 949.59Z" fill="url(#paint40_linear_185_3640)"/>
<path d="M68.2216 905.065C68.2216 906.423 67.0141 907.631 65.6557 907.631C64.2973 907.631 63.0898 906.423 63.0898 905.065C63.0898 903.707 64.2973 902.499 65.6557 902.499C67.0141 902.499 68.2216 903.707 68.2216 905.065Z" fill="url(#paint41_linear_185_3640)"/>
<path d="M27.1688 627.197C27.1688 628.555 25.9614 629.763 24.603 629.763C23.2446 629.763 22.0371 628.555 22.0371 627.197C22.0371 625.838 23.2446 624.631 24.603 624.631C25.9614 624.48 27.1688 625.687 27.1688 627.197Z" fill="url(#paint42_linear_185_3640)"/>
<path d="M551.962 739.642C551.962 741 550.754 742.208 549.396 742.208C548.038 742.208 546.83 741 546.83 739.642C546.83 738.284 548.038 737.076 549.396 737.076C550.905 737.076 551.962 738.284 551.962 739.642Z" fill="url(#paint43_linear_185_3640)"/>
<path d="M392.425 515.356C392.425 516.714 391.217 517.922 389.859 517.922C388.5 517.922 387.293 516.714 387.293 515.356C387.293 513.998 388.5 512.79 389.859 512.79C391.217 512.79 392.425 513.847 392.425 515.356Z" fill="url(#paint44_linear_185_3640)"/>
<path d="M169.647 747.641C169.647 749 168.44 750.207 167.081 750.207C165.723 750.207 164.516 749 164.516 747.641C164.516 746.283 165.723 745.075 167.081 745.075C168.591 744.924 169.647 746.132 169.647 747.641Z" fill="url(#paint45_linear_185_3640)"/>
<path d="M189.118 836.843C189.118 838.202 187.911 839.409 186.552 839.409C185.194 839.409 183.986 838.202 183.986 836.843C183.986 835.485 185.194 834.277 186.552 834.277C187.911 834.277 189.118 835.485 189.118 836.843Z" fill="url(#paint46_linear_185_3640)"/>
<path d="M97.0497 680.174C97.0497 681.533 95.8422 682.74 94.4838 682.74C93.1255 682.74 91.918 681.533 91.918 680.174C91.918 678.816 93.1255 677.608 94.4838 677.608C95.8422 677.608 97.0497 678.816 97.0497 680.174Z" fill="url(#paint47_linear_185_3640)"/>
<path d="M163.46 677.609C163.46 678.967 162.252 680.175 160.894 680.175C159.536 680.175 158.328 678.967 158.328 677.609C158.328 676.25 159.536 675.043 160.894 675.043C162.252 675.043 163.46 676.25 163.46 677.609Z" fill="url(#paint48_linear_185_3640)"/>
<path d="M218.249 815.864C218.249 817.222 217.041 818.43 215.683 818.43C214.325 818.43 213.117 817.222 213.117 815.864C213.117 814.505 214.325 813.298 215.683 813.298C217.041 813.298 218.249 814.354 218.249 815.864Z" fill="url(#paint49_linear_185_3640)"/>
<path d="M112.142 971.174C112.142 971.777 111.69 972.23 111.086 972.23C110.482 972.23 110.029 971.777 110.029 971.174C110.029 970.57 110.482 970.117 111.086 970.117C111.539 970.117 112.142 970.57 112.142 971.174Z" fill="url(#paint50_linear_185_3640)"/>
<path d="M285.112 1021.43C285.112 1022.79 283.905 1024 282.546 1024C281.188 1024 279.98 1022.79 279.98 1021.43C279.98 1020.08 281.188 1018.87 282.546 1018.87C283.905 1018.87 285.112 1019.92 285.112 1021.43Z" fill="url(#paint51_linear_185_3640)"/>
<path d="M204.061 1011.77C204.061 1013.13 202.854 1014.34 201.496 1014.34C200.137 1014.34 198.93 1013.13 198.93 1011.77C198.93 1010.42 200.137 1009.21 201.496 1009.21C203.005 1009.21 204.061 1010.27 204.061 1011.77Z" fill="url(#paint52_linear_185_3640)"/>
<path d="M425.933 876.84C425.933 878.199 424.725 879.406 423.367 879.406C422.008 879.406 420.801 878.199 420.801 876.84C420.801 875.482 422.008 874.274 423.367 874.274C424.876 874.274 425.933 875.482 425.933 876.84Z" fill="url(#paint53_linear_185_3640)"/>
<path d="M214.175 986.417C214.175 987.776 212.967 988.983 211.609 988.983C210.25 988.983 209.043 987.776 209.043 986.417C209.043 985.059 210.25 983.852 211.609 983.852C212.967 983.852 214.175 985.059 214.175 986.417Z" fill="url(#paint54_linear_185_3640)"/>
<path d="M73.9559 608.632C73.9559 609.991 72.7485 611.198 71.3901 611.198C70.0317 611.198 68.8242 609.991 68.8242 608.632C68.8242 607.274 70.0317 606.066 71.3901 606.066C72.7485 606.066 73.9559 607.274 73.9559 608.632Z" fill="url(#paint55_linear_185_3640)"/>
<path d="M291.602 538.902C291.602 540.26 290.395 541.468 289.037 541.468C287.678 541.468 286.471 540.26 286.471 538.902C286.471 537.543 287.678 536.336 289.037 536.336C290.546 536.336 291.602 537.543 291.602 538.902Z" fill="url(#paint56_linear_185_3640)"/>
<path d="M347.297 558.221C347.297 558.824 346.844 559.277 346.24 559.277C345.636 559.277 345.184 558.824 345.184 558.221C345.184 557.617 345.636 557.164 346.24 557.164C346.844 557.013 347.297 557.617 347.297 558.221Z" fill="url(#paint57_linear_185_3640)"/>
<path d="M434.988 635.498C435.572 635.498 436.045 635.025 436.045 634.441C436.045 633.858 435.572 633.385 434.988 633.385C434.405 633.385 433.932 633.858 433.932 634.441C433.932 635.025 434.405 635.498 434.988 635.498Z" fill="url(#paint58_linear_185_3640)"/>
<path d="M337.939 595.954C338.523 595.954 338.996 595.481 338.996 594.897C338.996 594.314 338.523 593.841 337.939 593.841C337.356 593.841 336.883 594.314 336.883 594.897C336.883 595.481 337.356 595.954 337.939 595.954Z" fill="url(#paint59_linear_185_3640)"/>
<path d="M495.814 675.496C496.398 675.496 496.871 675.023 496.871 674.439C496.871 673.856 496.398 673.383 495.814 673.383C495.231 673.383 494.758 673.856 494.758 674.439C494.758 675.023 495.231 675.496 495.814 675.496Z" fill="url(#paint60_linear_185_3640)"/>
<path d="M109.578 491.207C110.162 491.207 110.635 490.734 110.635 490.15C110.635 489.567 110.162 489.094 109.578 489.094C108.995 489.094 108.521 489.567 108.521 490.15C108.521 490.734 108.995 491.207 109.578 491.207Z" fill="url(#paint61_linear_185_3640)"/>
<path d="M38.1854 861.747C38.7689 861.747 39.242 861.274 39.242 860.69C39.242 860.107 38.7689 859.634 38.1854 859.634C37.6019 859.634 37.1289 860.107 37.1289 860.69C37.1289 861.274 37.6019 861.747 38.1854 861.747Z" fill="url(#paint62_linear_185_3640)"/>
<path d="M1.05653 725.907C1.64003 725.907 2.11307 725.434 2.11307 724.85C2.11307 724.267 1.64003 723.794 1.05653 723.794C0.473021 723.794 0 724.267 0 724.85C0 725.434 0.473021 725.907 1.05653 725.907Z" fill="url(#paint63_linear_185_3640)"/>
<path d="M77.2771 769.829C77.2771 770.433 76.8243 770.886 76.2206 770.886C75.6169 770.886 75.1641 770.433 75.1641 769.829C75.1641 769.225 75.6169 768.772 76.2206 768.772C76.8243 768.622 77.2771 769.225 77.2771 769.829Z" fill="url(#paint64_linear_185_3640)"/>
<path d="M108.371 753.527C108.371 754.433 107.617 755.188 106.711 755.188C105.805 755.188 105.051 754.433 105.051 753.527C105.051 752.622 105.805 751.867 106.711 751.867C107.617 751.867 108.371 752.622 108.371 753.527Z" fill="url(#paint65_linear_185_3640)"/>
<path d="M44.828 614.217C45.4115 614.217 45.8845 613.744 45.8845 613.16C45.8845 612.577 45.4115 612.104 44.828 612.104C44.2445 612.104 43.7715 612.577 43.7715 613.16C43.7715 613.744 44.2445 614.217 44.828 614.217Z" fill="url(#paint66_linear_185_3640)"/>
<path d="M185.346 498.904C185.929 498.904 186.402 498.431 186.402 497.848C186.402 497.264 185.929 496.791 185.346 496.791C184.762 496.791 184.289 497.264 184.289 497.848C184.289 498.431 184.762 498.904 185.346 498.904Z" fill="url(#paint67_linear_185_3640)"/>
<path d="M322.392 582.521C322.976 582.521 323.449 582.048 323.449 581.465C323.449 580.881 322.976 580.408 322.392 580.408C321.809 580.408 321.336 580.881 321.336 581.465C321.336 582.048 321.809 582.521 322.392 582.521Z" fill="url(#paint68_linear_185_3640)"/>
<path d="M270.773 503.583C271.357 503.583 271.83 503.11 271.83 502.526C271.83 501.943 271.357 501.47 270.773 501.47C270.19 501.47 269.717 501.943 269.717 502.526C269.717 503.11 270.19 503.583 270.773 503.583Z" fill="url(#paint69_linear_185_3640)"/>
<path d="M531.586 792.318C532.169 792.318 532.642 791.845 532.642 791.262C532.642 790.678 532.169 790.205 531.586 790.205C531.002 790.205 530.529 790.678 530.529 791.262C530.529 791.845 531.002 792.318 531.586 792.318Z" fill="url(#paint70_linear_185_3640)"/>
<path d="M411.293 980.229C411.876 980.229 412.349 979.756 412.349 979.173C412.349 978.589 411.876 978.116 411.293 978.116C410.709 978.116 410.236 978.589 410.236 979.173C410.236 979.756 410.709 980.229 411.293 980.229Z" fill="url(#paint71_linear_185_3640)"/>
<path d="M141.273 981.437C141.857 981.437 142.33 980.964 142.33 980.381C142.33 979.797 141.857 979.324 141.273 979.324C140.69 979.324 140.217 979.797 140.217 980.381C140.217 980.964 140.69 981.437 141.273 981.437Z" fill="url(#paint72_linear_185_3640)"/>
<path d="M477.853 766.961C478.437 766.961 478.91 766.488 478.91 765.904C478.91 765.321 478.437 764.848 477.853 764.848C477.27 764.848 476.797 765.321 476.797 765.904C476.797 766.488 477.27 766.961 477.853 766.961Z" fill="url(#paint73_linear_185_3640)"/>
<path d="M481.174 777.526C481.757 777.526 482.23 777.053 482.23 776.47C482.23 775.886 481.757 775.413 481.174 775.413C480.59 775.413 480.117 775.886 480.117 776.47C480.117 777.053 480.59 777.526 481.174 777.526Z" fill="url(#paint74_linear_185_3640)"/>
<path d="M463.515 652.252C463.515 652.856 463.063 653.308 462.459 653.308C461.855 653.308 461.402 652.856 461.402 652.252C461.402 651.648 461.855 651.195 462.459 651.195C463.063 651.044 463.515 651.648 463.515 652.252Z" fill="url(#paint75_linear_185_3640)"/>
</g>
<g opacity="0.2">
<path d="M944.426 926.497C945.009 926.497 945.482 926.97 945.482 927.554C945.482 928.137 945.009 928.61 944.426 928.61C943.842 928.61 943.369 928.137 943.369 927.554C943.369 926.97 943.842 926.497 944.426 926.497Z" fill="url(#paint76_linear_185_3640)"/>
<path d="M908.353 1002.87C908.353 1002.27 907.9 1001.81 907.297 1001.81C906.693 1001.81 906.24 1002.27 906.24 1002.87C906.24 1003.47 906.693 1003.93 907.297 1003.93C907.75 1004.08 908.353 1003.62 908.353 1002.87Z" fill="url(#paint77_linear_185_3640)"/>
<path d="M585.808 916.988C586.392 916.988 586.865 917.462 586.865 918.045C586.865 918.629 586.392 919.102 585.808 919.102C585.225 919.102 584.752 918.629 584.752 918.045C584.752 917.462 585.225 916.988 585.808 916.988Z" fill="url(#paint78_linear_185_3640)"/>
<path d="M1041.17 732.246C1041.76 732.246 1042.23 732.719 1042.23 733.303C1042.23 733.886 1041.76 734.359 1041.17 734.359C1040.59 734.359 1040.12 733.886 1040.12 733.303C1040.12 732.719 1040.59 732.246 1041.17 732.246Z" fill="url(#paint79_linear_185_3640)"/>
<path d="M1000.12 757.905C1000.7 757.905 1001.18 758.378 1001.18 758.961C1001.18 759.545 1000.7 760.018 1000.12 760.018C999.537 760.018 999.064 759.545 999.064 758.961C999.064 758.378 999.537 757.905 1000.12 757.905Z" fill="url(#paint80_linear_185_3640)"/>
<path d="M1019.89 722.587C1019.89 721.983 1019.44 721.53 1018.84 721.53C1018.23 721.53 1017.78 721.983 1017.78 722.587C1017.78 723.191 1018.23 723.644 1018.84 723.644C1019.29 723.794 1019.89 723.191 1019.89 722.587Z" fill="url(#paint81_linear_185_3640)"/>
<path d="M1033.93 674.137C1033.93 673.534 1033.48 673.081 1032.87 673.081C1032.27 673.081 1031.82 673.534 1031.82 674.137C1031.82 674.741 1032.27 675.194 1032.87 675.194C1033.33 675.345 1033.93 674.892 1033.93 674.137Z" fill="url(#paint82_linear_185_3640)"/>
<path d="M949.408 512.035C949.992 512.035 950.465 512.508 950.465 513.092C950.465 513.675 949.992 514.148 949.408 514.148C948.825 514.148 948.352 513.675 948.352 513.092C948.352 512.508 948.825 512.035 949.408 512.035Z" fill="url(#paint83_linear_185_3640)"/>
<path d="M858.697 618.896C859.281 618.896 859.754 619.369 859.754 619.952C859.754 620.536 859.281 621.009 858.697 621.009C858.114 621.009 857.641 620.536 857.641 619.952C857.641 619.369 858.114 618.896 858.697 618.896Z" fill="url(#paint84_linear_185_3640)"/>
<path d="M882.392 615.122C882.976 615.122 883.449 615.595 883.449 616.179C883.449 616.762 882.976 617.235 882.392 617.235C881.809 617.235 881.336 616.762 881.336 616.179C881.336 615.595 881.809 615.122 882.392 615.122Z" fill="url(#paint85_linear_185_3640)"/>
<path d="M592.148 827.787C592.732 827.787 593.205 828.26 593.205 828.844C593.205 829.427 592.732 829.9 592.148 829.9C591.565 829.9 591.092 829.427 591.092 828.844C591.092 828.26 591.565 827.787 592.148 827.787Z" fill="url(#paint86_linear_185_3640)"/>
<path d="M612.525 869.746C613.109 869.746 613.582 870.219 613.582 870.803C613.582 871.386 613.109 871.859 612.525 871.859C611.942 871.859 611.469 871.386 611.469 870.803C611.469 870.219 611.942 869.746 612.525 869.746Z" fill="url(#paint87_linear_185_3640)"/>
<path d="M671.992 966.646C672.576 966.646 673.049 967.119 673.049 967.702C673.049 968.286 672.576 968.759 671.992 968.759C671.409 968.759 670.936 968.286 670.936 967.702C670.936 967.119 671.409 966.646 671.992 966.646Z" fill="url(#paint88_linear_185_3640)"/>
<path d="M869.262 1000.61C869.262 999.7 868.507 998.945 867.602 998.945C866.696 998.945 865.941 999.7 865.941 1000.61C865.941 1001.51 866.696 1002.27 867.602 1002.27C868.507 1002.27 869.262 1001.66 869.262 1000.61Z" fill="url(#paint89_linear_185_3640)"/>
<path d="M1043.44 790.355C1043.44 789.45 1042.68 788.695 1041.78 788.695C1040.87 788.695 1040.12 789.45 1040.12 790.355C1040.12 791.261 1040.87 792.016 1041.78 792.016C1042.68 792.016 1043.44 791.261 1043.44 790.355Z" fill="url(#paint90_linear_185_3640)"/>
<path d="M634.258 674.741C634.258 673.835 633.503 673.081 632.598 673.081C631.692 673.081 630.938 673.835 630.938 674.741C630.938 675.647 631.692 676.401 632.598 676.401C633.503 676.401 634.258 675.647 634.258 674.741Z" fill="url(#paint91_linear_185_3640)"/>
<path d="M801.795 626.594C801.795 625.688 801.04 624.933 800.135 624.933C799.229 624.933 798.475 625.688 798.475 626.594C798.475 627.499 799.229 628.254 800.135 628.254C801.04 628.254 801.795 627.499 801.795 626.594Z" fill="url(#paint92_linear_185_3640)"/>
<path d="M915.145 612.557C915.145 611.651 914.39 610.896 913.484 610.896C912.579 610.896 911.824 611.651 911.824 612.557C911.824 613.462 912.579 614.217 913.484 614.217C914.541 614.217 915.145 613.462 915.145 612.557Z" fill="url(#paint93_linear_185_3640)"/>
<path d="M873.336 480.792C873.336 480.188 872.883 479.736 872.279 479.736C871.675 479.736 871.223 480.188 871.223 480.792C871.223 481.396 871.675 481.849 872.279 481.849C872.883 481.849 873.336 481.396 873.336 480.792Z" fill="url(#paint94_linear_185_3640)"/>
<path d="M946.991 572.107C946.991 570.749 945.784 569.541 944.425 569.541C943.067 569.541 941.859 570.749 941.859 572.107C941.859 573.465 943.067 574.673 944.425 574.673C945.784 574.673 946.991 573.465 946.991 572.107Z" fill="url(#paint95_linear_185_3640)"/>
<path d="M633.505 577.389C633.505 576.031 632.297 574.823 630.939 574.823C629.581 574.823 628.373 576.031 628.373 577.389C628.373 578.748 629.581 579.955 630.939 579.955C632.297 579.955 633.505 578.748 633.505 577.389Z" fill="url(#paint96_linear_185_3640)"/>
<path d="M763.457 654.365C763.457 654.063 763.156 653.761 762.854 653.761C762.552 653.761 762.25 654.063 762.25 654.365C762.25 654.667 762.552 654.969 762.854 654.969C763.307 654.969 763.457 654.818 763.457 654.365Z" fill="url(#paint97_linear_185_3640)"/>
<path d="M990.762 685.306C990.762 685.005 990.46 684.703 990.158 684.703C989.857 684.703 989.555 685.005 989.555 685.306C989.555 685.608 989.857 685.91 990.158 685.91C990.46 685.91 990.762 685.759 990.762 685.306Z" fill="url(#paint98_linear_185_3640)"/>
<path d="M786.098 633.536C786.098 633.234 785.796 632.932 785.494 632.932C785.193 632.932 784.891 633.234 784.891 633.536C784.891 633.838 785.193 634.14 785.494 634.14C785.947 634.14 786.098 633.838 786.098 633.536Z" fill="url(#paint99_linear_185_3640)"/>
<path d="M1040.72 755.792C1040.72 755.49 1040.42 755.188 1040.12 755.188C1039.82 755.188 1039.51 755.49 1039.51 755.792C1039.51 756.094 1039.82 756.396 1040.12 756.396C1040.42 756.396 1040.72 756.094 1040.72 755.792Z" fill="url(#paint100_linear_185_3640)"/>
<path d="M691.01 999.096C691.01 998.795 690.708 998.493 690.406 998.493C690.105 998.493 689.803 998.795 689.803 999.096C689.803 999.398 690.105 999.7 690.406 999.7C690.708 999.7 691.01 999.398 691.01 999.096Z" fill="url(#paint101_linear_185_3640)"/>
<path d="M615.997 794.28C615.997 793.978 615.695 793.676 615.393 793.676C615.091 793.676 614.789 793.978 614.789 794.28C614.789 794.582 615.091 794.884 615.393 794.884C615.846 794.884 615.997 794.582 615.997 794.28Z" fill="url(#paint102_linear_185_3640)"/>
<path d="M639.391 777.376C639.391 777.074 639.089 776.772 638.787 776.772C638.485 776.772 638.184 777.074 638.184 777.376C638.184 777.678 638.485 777.979 638.787 777.979C639.089 777.979 639.391 777.678 639.391 777.376Z" fill="url(#paint103_linear_185_3640)"/>
<path d="M806.776 982.191C806.776 981.889 806.474 981.587 806.172 981.587C805.87 981.587 805.568 981.889 805.568 982.191C805.568 982.493 805.87 982.795 806.172 982.795C806.474 982.795 806.776 982.493 806.776 982.191Z" fill="url(#paint104_linear_185_3640)"/>
<path d="M747.76 968.91C747.76 968.608 747.458 968.306 747.156 968.306C746.855 968.306 746.553 968.608 746.553 968.91C746.553 969.212 746.855 969.514 747.156 969.514C747.458 969.514 747.76 969.212 747.76 968.91Z" fill="url(#paint105_linear_185_3640)"/>
<path d="M754.704 1022.04C754.704 1021.74 754.402 1021.43 754.1 1021.43C753.798 1021.43 753.496 1021.74 753.496 1022.04C753.496 1022.34 753.798 1022.64 754.1 1022.64C754.402 1022.64 754.704 1022.34 754.704 1022.04Z" fill="url(#paint106_linear_185_3640)"/>
<path d="M764.362 987.323C764.362 987.021 764.06 986.719 763.758 986.719C763.456 986.719 763.154 987.021 763.154 987.323C763.154 987.625 763.456 987.927 763.758 987.927C764.06 987.927 764.362 987.625 764.362 987.323Z" fill="url(#paint107_linear_185_3640)"/>
<path d="M913.184 918.045C913.184 917.743 912.882 917.441 912.58 917.441C912.278 917.441 911.977 917.743 911.977 918.045C911.977 918.347 912.278 918.648 912.58 918.648C912.882 918.648 913.184 918.347 913.184 918.045Z" fill="url(#paint108_linear_185_3640)"/>
<path d="M1029.4 917.441C1029.4 917.139 1029.1 916.837 1028.8 916.837C1028.5 916.837 1028.19 917.139 1028.19 917.441C1028.19 917.743 1028.5 918.045 1028.8 918.045C1029.1 918.045 1029.4 917.743 1029.4 917.441Z" fill="url(#paint109_linear_185_3640)"/>
<path d="M990.762 954.873C990.762 954.571 990.46 954.269 990.158 954.269C989.857 954.269 989.555 954.571 989.555 954.873C989.555 955.175 989.857 955.477 990.158 955.477C990.46 955.477 990.762 955.175 990.762 954.873Z" fill="url(#paint110_linear_185_3640)"/>
<path d="M671.387 685.306C671.387 685.005 671.085 684.703 670.783 684.703C670.482 684.703 670.18 685.005 670.18 685.306C670.18 685.608 670.482 685.91 670.783 685.91C671.236 685.91 671.387 685.759 671.387 685.306Z" fill="url(#paint111_linear_185_3640)"/>
<path d="M990.762 919.554C990.762 919.253 990.46 918.951 990.158 918.951C989.857 918.951 989.555 919.253 989.555 919.554C989.555 919.856 989.857 920.158 990.158 920.158C990.46 920.158 990.762 919.856 990.762 919.554Z" fill="url(#paint112_linear_185_3640)"/>
<path d="M956.653 1023.4C956.653 1023.09 956.351 1022.79 956.049 1022.79C955.747 1022.79 955.445 1023.09 955.445 1023.4C955.445 1023.7 955.747 1024 956.049 1024C956.351 1024 956.653 1023.7 956.653 1023.4Z" fill="url(#paint113_linear_185_3640)"/>
<path d="M1097.62 841.522C1097.62 841.22 1097.32 840.919 1097.02 840.919C1096.72 840.919 1096.41 841.22 1096.41 841.522C1096.41 841.824 1096.72 842.126 1097.02 842.126C1097.32 842.126 1097.62 841.824 1097.62 841.522Z" fill="url(#paint114_linear_185_3640)"/>
<path d="M1088.87 670.968C1088.87 670.666 1088.57 670.364 1088.27 670.364C1087.96 670.364 1087.66 670.666 1087.66 670.968C1087.66 671.269 1087.96 671.571 1088.27 671.571C1088.57 671.571 1088.87 671.269 1088.87 670.968Z" fill="url(#paint115_linear_185_3640)"/>
<path d="M994.989 548.41C994.989 548.108 994.687 547.806 994.385 547.806C994.083 547.806 993.781 548.108 993.781 548.41C993.781 548.712 994.083 549.014 994.385 549.014C994.687 549.014 994.989 548.712 994.989 548.41Z" fill="url(#paint116_linear_185_3640)"/>
<path d="M620.222 592.935C620.222 591.577 619.014 590.369 617.656 590.369C616.297 590.369 615.09 591.577 615.09 592.935C615.09 594.293 616.297 595.501 617.656 595.501C619.014 595.501 620.222 594.293 620.222 592.935Z" fill="url(#paint117_linear_185_3640)"/>
<path d="M579.169 870.803C579.169 869.445 577.961 868.237 576.603 868.237C575.245 868.237 574.037 869.445 574.037 870.803C574.037 872.162 575.245 873.369 576.603 873.369C577.961 873.52 579.169 872.313 579.169 870.803Z" fill="url(#paint118_linear_185_3640)"/>
<path d="M1103.96 758.358C1103.96 757 1102.75 755.792 1101.4 755.792C1100.04 755.792 1098.83 757 1098.83 758.358C1098.83 759.716 1100.04 760.924 1101.4 760.924C1102.91 760.924 1103.96 759.716 1103.96 758.358Z" fill="url(#paint119_linear_185_3640)"/>
<path d="M944.425 982.644C944.425 981.286 943.217 980.078 941.859 980.078C940.5 980.078 939.293 981.286 939.293 982.644C939.293 984.002 940.5 985.21 941.859 985.21C943.217 985.21 944.425 984.153 944.425 982.644Z" fill="url(#paint120_linear_185_3640)"/>
<path d="M721.647 750.359C721.647 749 720.44 747.793 719.081 747.793C717.723 747.793 716.516 749 716.516 750.359C716.516 751.717 717.723 752.925 719.081 752.925C720.591 753.076 721.647 751.868 721.647 750.359Z" fill="url(#paint121_linear_185_3640)"/>
<path d="M741.118 661.157C741.118 659.798 739.911 658.591 738.552 658.591C737.194 658.591 735.986 659.798 735.986 661.157C735.986 662.515 737.194 663.723 738.552 663.723C739.911 663.723 741.118 662.515 741.118 661.157Z" fill="url(#paint122_linear_185_3640)"/>
<path d="M649.05 817.826C649.05 816.467 647.842 815.26 646.484 815.26C645.125 815.26 643.918 816.467 643.918 817.826C643.918 819.184 645.125 820.392 646.484 820.392C647.842 820.392 649.05 819.184 649.05 817.826Z" fill="url(#paint123_linear_185_3640)"/>
<path d="M715.46 820.391C715.46 819.033 714.252 817.825 712.894 817.825C711.536 817.825 710.328 819.033 710.328 820.391C710.328 821.75 711.536 822.957 712.894 822.957C714.252 822.957 715.46 821.75 715.46 820.391Z" fill="url(#paint124_linear_185_3640)"/>
<path d="M770.249 682.136C770.249 680.778 769.041 679.57 767.683 679.57C766.325 679.57 765.117 680.778 765.117 682.136C765.117 683.495 766.325 684.702 767.683 684.702C769.041 684.702 770.249 683.646 770.249 682.136Z" fill="url(#paint125_linear_185_3640)"/>
<path d="M664.142 526.826C664.142 526.223 663.69 525.77 663.086 525.77C662.482 525.77 662.029 526.223 662.029 526.826C662.029 527.43 662.482 527.883 663.086 527.883C663.539 527.883 664.142 527.43 664.142 526.826Z" fill="url(#paint126_linear_185_3640)"/>
<path d="M837.112 476.566C837.112 475.208 835.905 474 834.546 474C833.188 474 831.98 475.208 831.98 476.566C831.98 477.924 833.188 479.132 834.546 479.132C835.905 479.132 837.112 478.075 837.112 476.566Z" fill="url(#paint127_linear_185_3640)"/>
<path d="M756.061 486.225C756.061 484.867 754.854 483.659 753.496 483.659C752.137 483.659 750.93 484.867 750.93 486.225C750.93 487.584 752.137 488.791 753.496 488.791C755.005 488.791 756.061 487.735 756.061 486.225Z" fill="url(#paint128_linear_185_3640)"/>
<path d="M977.933 621.16C977.933 619.801 976.725 618.594 975.367 618.594C974.008 618.594 972.801 619.801 972.801 621.16C972.801 622.518 974.008 623.726 975.367 623.726C976.876 623.726 977.933 622.518 977.933 621.16Z" fill="url(#paint129_linear_185_3640)"/>
<path d="M766.175 511.583C766.175 510.224 764.967 509.017 763.609 509.017C762.25 509.017 761.043 510.224 761.043 511.583C761.043 512.941 762.25 514.148 763.609 514.148C764.967 514.148 766.175 512.941 766.175 511.583Z" fill="url(#paint130_linear_185_3640)"/>
<path d="M625.956 889.368C625.956 888.009 624.748 886.802 623.39 886.802C622.032 886.802 620.824 888.009 620.824 889.368C620.824 890.726 622.032 891.934 623.39 891.934C624.748 891.934 625.956 890.726 625.956 889.368Z" fill="url(#paint131_linear_185_3640)"/>
<path d="M843.602 959.098C843.602 957.74 842.395 956.532 841.037 956.532C839.678 956.532 838.471 957.74 838.471 959.098C838.471 960.457 839.678 961.664 841.037 961.664C842.546 961.664 843.602 960.457 843.602 959.098Z" fill="url(#paint132_linear_185_3640)"/>
<path d="M899.297 939.779C899.297 939.176 898.844 938.723 898.24 938.723C897.636 938.723 897.184 939.176 897.184 939.779C897.184 940.383 897.636 940.836 898.24 940.836C898.844 940.987 899.297 940.383 899.297 939.779Z" fill="url(#paint133_linear_185_3640)"/>
<path d="M986.988 862.502C987.572 862.502 988.045 862.975 988.045 863.559C988.045 864.142 987.572 864.615 986.988 864.615C986.405 864.615 985.932 864.142 985.932 863.559C985.932 862.975 986.405 862.502 986.988 862.502Z" fill="url(#paint134_linear_185_3640)"/>
<path d="M889.939 902.046C890.523 902.046 890.996 902.519 890.996 903.103C890.996 903.686 890.523 904.159 889.939 904.159C889.356 904.159 888.883 903.686 888.883 903.103C888.883 902.519 889.356 902.046 889.939 902.046Z" fill="url(#paint135_linear_185_3640)"/>
<path d="M1047.81 822.504C1048.4 822.504 1048.87 822.977 1048.87 823.561C1048.87 824.144 1048.4 824.617 1047.81 824.617C1047.23 824.617 1046.76 824.144 1046.76 823.561C1046.76 822.977 1047.23 822.504 1047.81 822.504Z" fill="url(#paint136_linear_185_3640)"/>
<path d="M661.578 1006.79C662.162 1006.79 662.635 1007.27 662.635 1007.85C662.635 1008.43 662.162 1008.91 661.578 1008.91C660.995 1008.91 660.521 1008.43 660.521 1007.85C660.521 1007.27 660.995 1006.79 661.578 1006.79Z" fill="url(#paint137_linear_185_3640)"/>
<path d="M590.185 636.253C590.769 636.253 591.242 636.726 591.242 637.31C591.242 637.893 590.769 638.366 590.185 638.366C589.602 638.366 589.129 637.893 589.129 637.31C589.129 636.726 589.602 636.253 590.185 636.253Z" fill="url(#paint138_linear_185_3640)"/>
<path d="M553.057 772.093C553.64 772.093 554.113 772.566 554.113 773.15C554.113 773.733 553.64 774.206 553.057 774.206C552.473 774.206 552 773.733 552 773.15C552 772.566 552.473 772.093 553.057 772.093Z" fill="url(#paint139_linear_185_3640)"/>
<path d="M629.277 728.171C629.277 727.567 628.824 727.114 628.221 727.114C627.617 727.114 627.164 727.567 627.164 728.171C627.164 728.775 627.617 729.228 628.221 729.228C628.824 729.378 629.277 728.775 629.277 728.171Z" fill="url(#paint140_linear_185_3640)"/>
<path d="M660.371 744.473C660.371 743.567 659.617 742.812 658.711 742.812C657.805 742.812 657.051 743.567 657.051 744.473C657.051 745.378 657.805 746.133 658.711 746.133C659.617 746.133 660.371 745.378 660.371 744.473Z" fill="url(#paint141_linear_185_3640)"/>
<path d="M596.828 883.783C597.412 883.783 597.885 884.256 597.885 884.84C597.885 885.423 597.412 885.896 596.828 885.896C596.245 885.896 595.771 885.423 595.771 884.84C595.771 884.256 596.245 883.783 596.828 883.783Z" fill="url(#paint142_linear_185_3640)"/>
<path d="M737.346 999.096C737.929 999.096 738.402 999.569 738.402 1000.15C738.402 1000.74 737.929 1001.21 737.346 1001.21C736.762 1001.21 736.289 1000.74 736.289 1000.15C736.289 999.569 736.762 999.096 737.346 999.096Z" fill="url(#paint143_linear_185_3640)"/>
<path d="M874.392 915.479C874.976 915.479 875.449 915.952 875.449 916.535C875.449 917.119 874.976 917.592 874.392 917.592C873.809 917.592 873.336 917.119 873.336 916.535C873.336 915.952 873.809 915.479 874.392 915.479Z" fill="url(#paint144_linear_185_3640)"/>
<path d="M822.773 994.417C823.357 994.417 823.83 994.89 823.83 995.474C823.83 996.057 823.357 996.53 822.773 996.53C822.19 996.53 821.717 996.057 821.717 995.474C821.717 994.89 822.19 994.417 822.773 994.417Z" fill="url(#paint145_linear_185_3640)"/>
<path d="M1083.59 705.682C1084.17 705.682 1084.64 706.155 1084.64 706.738C1084.64 707.322 1084.17 707.795 1083.59 707.795C1083 707.795 1082.53 707.322 1082.53 706.738C1082.53 706.155 1083 705.682 1083.59 705.682Z" fill="url(#paint146_linear_185_3640)"/>
<path d="M963.293 517.771C963.876 517.771 964.349 518.244 964.349 518.827C964.349 519.411 963.876 519.884 963.293 519.884C962.709 519.884 962.236 519.411 962.236 518.827C962.236 518.244 962.709 517.771 963.293 517.771Z" fill="url(#paint147_linear_185_3640)"/>
<path d="M693.273 516.563C693.857 516.563 694.33 517.036 694.33 517.619C694.33 518.203 693.857 518.676 693.273 518.676C692.69 518.676 692.217 518.203 692.217 517.619C692.217 517.036 692.69 516.563 693.273 516.563Z" fill="url(#paint148_linear_185_3640)"/>
<path d="M1029.85 731.039C1030.44 731.039 1030.91 731.512 1030.91 732.096C1030.91 732.679 1030.44 733.152 1029.85 733.152C1029.27 733.152 1028.8 732.679 1028.8 732.096C1028.8 731.512 1029.27 731.039 1029.85 731.039Z" fill="url(#paint149_linear_185_3640)"/>
<path d="M1033.17 720.474C1033.76 720.474 1034.23 720.947 1034.23 721.53C1034.23 722.114 1033.76 722.587 1033.17 722.587C1032.59 722.587 1032.12 722.114 1032.12 721.53C1032.12 720.947 1032.59 720.474 1033.17 720.474Z" fill="url(#paint150_linear_185_3640)"/>
<path d="M1015.52 845.748C1015.52 845.144 1015.06 844.692 1014.46 844.692C1013.86 844.692 1013.4 845.144 1013.4 845.748C1013.4 846.352 1013.86 846.805 1014.46 846.805C1015.06 846.956 1015.52 846.352 1015.52 845.748Z" fill="url(#paint151_linear_185_3640)"/>
</g>
<g opacity="0.2">
<path d="M1137.81 581.012C1138.39 581.012 1138.87 580.538 1138.87 579.955C1138.87 579.371 1138.39 578.898 1137.81 578.898C1137.22 578.898 1136.75 579.371 1136.75 579.955C1136.75 580.538 1137.22 581.012 1137.81 581.012Z" fill="url(#paint152_linear_185_3640)"/>
<path d="M1144.15 670.213C1144.73 670.213 1145.2 669.74 1145.2 669.156C1145.2 668.573 1144.73 668.1 1144.15 668.1C1143.56 668.1 1143.09 668.573 1143.09 669.156C1143.09 669.74 1143.56 670.213 1144.15 670.213Z" fill="url(#paint153_linear_185_3640)"/>
<path d="M1164.53 628.254C1165.11 628.254 1165.58 627.781 1165.58 627.197C1165.58 626.614 1165.11 626.141 1164.53 626.141C1163.94 626.141 1163.47 626.614 1163.47 627.197C1163.47 627.781 1163.94 628.254 1164.53 628.254Z" fill="url(#paint154_linear_185_3640)"/>
<path d="M1223.99 531.354C1224.58 531.354 1225.05 530.881 1225.05 530.298C1225.05 529.714 1224.58 529.241 1223.99 529.241C1223.41 529.241 1222.94 529.714 1222.94 530.298C1222.94 530.881 1223.41 531.354 1223.99 531.354Z" fill="url(#paint155_linear_185_3640)"/>
<path d="M1186.26 823.259C1186.26 824.165 1185.5 824.919 1184.6 824.919C1183.69 824.919 1182.94 824.165 1182.94 823.259C1182.94 822.353 1183.69 821.599 1184.6 821.599C1185.5 821.599 1186.26 822.353 1186.26 823.259Z" fill="url(#paint156_linear_185_3640)"/>
<path d="M1353.8 871.406C1353.8 872.312 1353.04 873.067 1352.13 873.067C1351.23 873.067 1350.47 872.312 1350.47 871.406C1350.47 870.501 1351.23 869.746 1352.13 869.746C1353.04 869.746 1353.8 870.501 1353.8 871.406Z" fill="url(#paint157_linear_185_3640)"/>
<path d="M1185.5 920.611C1185.5 921.969 1184.3 923.177 1182.94 923.177C1181.58 923.177 1180.37 921.969 1180.37 920.611C1180.37 919.252 1181.58 918.045 1182.94 918.045C1184.3 918.045 1185.5 919.252 1185.5 920.611Z" fill="url(#paint158_linear_185_3640)"/>
<path d="M1315.46 843.635C1315.46 843.937 1315.16 844.239 1314.85 844.239C1314.55 844.239 1314.25 843.937 1314.25 843.635C1314.25 843.333 1314.55 843.031 1314.85 843.031C1315.31 843.031 1315.46 843.182 1315.46 843.635Z" fill="url(#paint159_linear_185_3640)"/>
<path d="M1338.1 864.464C1338.1 864.766 1337.8 865.068 1337.49 865.068C1337.19 865.068 1336.89 864.766 1336.89 864.464C1336.89 864.162 1337.19 863.86 1337.49 863.86C1337.95 863.86 1338.1 864.162 1338.1 864.464Z" fill="url(#paint160_linear_185_3640)"/>
<path d="M1243.01 498.904C1243.01 499.205 1242.71 499.507 1242.41 499.507C1242.1 499.507 1241.8 499.205 1241.8 498.904C1241.8 498.602 1242.1 498.3 1242.41 498.3C1242.71 498.3 1243.01 498.602 1243.01 498.904Z" fill="url(#paint161_linear_185_3640)"/>
<path d="M1168 703.72C1168 704.022 1167.69 704.324 1167.39 704.324C1167.09 704.324 1166.79 704.022 1166.79 703.72C1166.79 703.418 1167.09 703.116 1167.39 703.116C1167.85 703.116 1168 703.418 1168 703.72Z" fill="url(#paint162_linear_185_3640)"/>
<path d="M1191.39 720.624C1191.39 720.926 1191.09 721.228 1190.79 721.228C1190.49 721.228 1190.18 720.926 1190.18 720.624C1190.18 720.322 1190.49 720.021 1190.79 720.021C1191.09 720.021 1191.39 720.322 1191.39 720.624Z" fill="url(#paint163_linear_185_3640)"/>
<path d="M1358.78 515.809C1358.78 516.111 1358.47 516.413 1358.17 516.413C1357.87 516.413 1357.57 516.111 1357.57 515.809C1357.57 515.507 1357.87 515.205 1358.17 515.205C1358.47 515.205 1358.78 515.507 1358.78 515.809Z" fill="url(#paint164_linear_185_3640)"/>
<path d="M1299.76 529.09C1299.76 529.392 1299.46 529.694 1299.16 529.694C1298.85 529.694 1298.55 529.392 1298.55 529.09C1298.55 528.788 1298.85 528.486 1299.16 528.486C1299.46 528.486 1299.76 528.788 1299.76 529.09Z" fill="url(#paint165_linear_185_3640)"/>
<path d="M1306.7 475.962C1306.7 476.264 1306.4 476.566 1306.1 476.566C1305.8 476.566 1305.5 476.264 1305.5 475.962C1305.5 475.66 1305.8 475.358 1306.1 475.358C1306.4 475.358 1306.7 475.66 1306.7 475.962Z" fill="url(#paint166_linear_185_3640)"/>
<path d="M1316.36 510.677C1316.36 510.979 1316.06 511.281 1315.76 511.281C1315.46 511.281 1315.15 510.979 1315.15 510.677C1315.15 510.375 1315.46 510.073 1315.76 510.073C1316.06 510.073 1316.36 510.375 1316.36 510.677Z" fill="url(#paint167_linear_185_3640)"/>
<path d="M1223.39 812.694C1223.39 812.995 1223.09 813.297 1222.78 813.297C1222.48 813.297 1222.18 812.995 1222.18 812.694C1222.18 812.392 1222.48 812.09 1222.78 812.09C1223.24 812.09 1223.39 812.241 1223.39 812.694Z" fill="url(#paint168_linear_185_3640)"/>
<path d="M1172.22 905.065C1172.22 906.423 1171.01 907.631 1169.66 907.631C1168.3 907.631 1167.09 906.423 1167.09 905.065C1167.09 903.707 1168.3 902.499 1169.66 902.499C1171.01 902.499 1172.22 903.707 1172.22 905.065Z" fill="url(#paint169_linear_185_3640)"/>
<path d="M1131.17 627.197C1131.17 628.555 1129.96 629.763 1128.6 629.763C1127.24 629.763 1126.04 628.555 1126.04 627.197C1126.04 625.838 1127.24 624.631 1128.6 624.631C1129.96 624.48 1131.17 625.687 1131.17 627.197Z" fill="url(#paint170_linear_185_3640)"/>
<path d="M1273.65 747.641C1273.65 749 1272.44 750.207 1271.08 750.207C1269.72 750.207 1268.52 749 1268.52 747.641C1268.52 746.283 1269.72 745.075 1271.08 745.075C1272.59 744.924 1273.65 746.132 1273.65 747.641Z" fill="url(#paint171_linear_185_3640)"/>
<path d="M1293.12 836.843C1293.12 838.202 1291.91 839.409 1290.55 839.409C1289.19 839.409 1287.99 838.202 1287.99 836.843C1287.99 835.485 1289.19 834.277 1290.55 834.277C1291.91 834.277 1293.12 835.485 1293.12 836.843Z" fill="url(#paint172_linear_185_3640)"/>
<path d="M1201.05 680.174C1201.05 681.533 1199.84 682.74 1198.48 682.74C1197.13 682.74 1195.92 681.533 1195.92 680.174C1195.92 678.816 1197.13 677.608 1198.48 677.608C1199.84 677.608 1201.05 678.816 1201.05 680.174Z" fill="url(#paint173_linear_185_3640)"/>
<path d="M1267.46 677.609C1267.46 678.967 1266.25 680.175 1264.89 680.175C1263.54 680.175 1262.33 678.967 1262.33 677.609C1262.33 676.25 1263.54 675.043 1264.89 675.043C1266.25 675.043 1267.46 676.25 1267.46 677.609Z" fill="url(#paint174_linear_185_3640)"/>
<path d="M1322.25 815.864C1322.25 817.222 1321.04 818.43 1319.68 818.43C1318.32 818.43 1317.12 817.222 1317.12 815.864C1317.12 814.505 1318.32 813.298 1319.68 813.298C1321.04 813.298 1322.25 814.354 1322.25 815.864Z" fill="url(#paint175_linear_185_3640)"/>
<path d="M1216.14 971.174C1216.14 971.777 1215.69 972.23 1215.09 972.23C1214.48 972.23 1214.03 971.777 1214.03 971.174C1214.03 970.57 1214.48 970.117 1215.09 970.117C1215.54 970.117 1216.14 970.57 1216.14 971.174Z" fill="url(#paint176_linear_185_3640)"/>
<path d="M1308.06 1011.77C1308.06 1013.13 1306.85 1014.34 1305.5 1014.34C1304.14 1014.34 1302.93 1013.13 1302.93 1011.77C1302.93 1010.42 1304.14 1009.21 1305.5 1009.21C1307 1009.21 1308.06 1010.27 1308.06 1011.77Z" fill="url(#paint177_linear_185_3640)"/>
<path d="M1318.17 986.417C1318.17 987.776 1316.97 988.983 1315.61 988.983C1314.25 988.983 1313.04 987.776 1313.04 986.417C1313.04 985.059 1314.25 983.852 1315.61 983.852C1316.97 983.852 1318.17 985.059 1318.17 986.417Z" fill="url(#paint178_linear_185_3640)"/>
<path d="M1177.96 608.632C1177.96 609.991 1176.75 611.198 1175.39 611.198C1174.03 611.198 1172.82 609.991 1172.82 608.632C1172.82 607.274 1174.03 606.066 1175.39 606.066C1176.75 606.066 1177.96 607.274 1177.96 608.632Z" fill="url(#paint179_linear_185_3640)"/>
<path d="M1213.58 491.207C1214.16 491.207 1214.63 490.734 1214.63 490.15C1214.63 489.567 1214.16 489.094 1213.58 489.094C1212.99 489.094 1212.52 489.567 1212.52 490.15C1212.52 490.734 1212.99 491.207 1213.58 491.207Z" fill="url(#paint180_linear_185_3640)"/>
<path d="M1142.19 861.747C1142.77 861.747 1143.24 861.274 1143.24 860.69C1143.24 860.107 1142.77 859.634 1142.19 859.634C1141.6 859.634 1141.13 860.107 1141.13 860.69C1141.13 861.274 1141.6 861.747 1142.19 861.747Z" fill="url(#paint181_linear_185_3640)"/>
<path d="M1105.06 725.907C1105.64 725.907 1106.11 725.434 1106.11 724.85C1106.11 724.267 1105.64 723.794 1105.06 723.794C1104.47 723.794 1104 724.267 1104 724.85C1104 725.434 1104.47 725.907 1105.06 725.907Z" fill="url(#paint182_linear_185_3640)"/>
<path d="M1181.28 769.829C1181.28 770.433 1180.82 770.886 1180.22 770.886C1179.62 770.886 1179.16 770.433 1179.16 769.829C1179.16 769.225 1179.62 768.772 1180.22 768.772C1180.82 768.622 1181.28 769.225 1181.28 769.829Z" fill="url(#paint183_linear_185_3640)"/>
<path d="M1212.37 753.527C1212.37 754.433 1211.62 755.188 1210.71 755.188C1209.81 755.188 1209.05 754.433 1209.05 753.527C1209.05 752.622 1209.81 751.867 1210.71 751.867C1211.62 751.867 1212.37 752.622 1212.37 753.527Z" fill="url(#paint184_linear_185_3640)"/>
<path d="M1148.83 614.217C1149.41 614.217 1149.88 613.744 1149.88 613.16C1149.88 612.577 1149.41 612.104 1148.83 612.104C1148.24 612.104 1147.77 612.577 1147.77 613.16C1147.77 613.744 1148.24 614.217 1148.83 614.217Z" fill="url(#paint185_linear_185_3640)"/>
<path d="M1289.35 498.904C1289.93 498.904 1290.4 498.431 1290.4 497.848C1290.4 497.264 1289.93 496.791 1289.35 496.791C1288.76 496.791 1288.29 497.264 1288.29 497.848C1288.29 498.431 1288.76 498.904 1289.35 498.904Z" fill="url(#paint186_linear_185_3640)"/>
<path d="M1245.27 981.437C1245.86 981.437 1246.33 980.964 1246.33 980.381C1246.33 979.797 1245.86 979.324 1245.27 979.324C1244.69 979.324 1244.22 979.797 1244.22 980.381C1244.22 980.964 1244.69 981.437 1245.27 981.437Z" fill="url(#paint187_linear_185_3640)"/>
</g>
</g>
<defs>
<linearGradient id="paint0_linear_185_3640" x1="391.369" y1="569.39" x2="393.857" y2="569.485" gradientUnits="userSpaceOnUse">
<stop stop-color="#FDFCA4"/>
<stop offset="1" stop-color="#D9AD49"/>
</linearGradient>
<linearGradient id="paint1_linear_185_3640" x1="354.24" y1="494.045" x2="356.728" y2="494.139" gradientUnits="userSpaceOnUse">
<stop stop-color="#FDFCA4"/>
<stop offset="1" stop-color="#D9AD49"/>
</linearGradient>
<linearGradient id="paint2_linear_185_3640" x1="32.752" y1="578.898" x2="35.2394" y2="578.994" gradientUnits="userSpaceOnUse">
<stop stop-color="#FDFCA4"/>
<stop offset="1" stop-color="#D9AD49"/>
</linearGradient>
<linearGradient id="paint3_linear_185_3640" x1="488.117" y1="763.641" x2="490.605" y2="763.736" gradientUnits="userSpaceOnUse">
<stop stop-color="#FDFCA4"/>
<stop offset="1" stop-color="#D9AD49"/>
</linearGradient>
<linearGradient id="paint4_linear_185_3640" x1="447.064" y1="737.982" x2="449.552" y2="738.078" gradientUnits="userSpaceOnUse">
<stop stop-color="#FDFCA4"/>
<stop offset="1" stop-color="#D9AD49"/>
</linearGradient>
<linearGradient id="paint5_linear_185_3640" x1="465.779" y1="774.333" x2="468.267" y2="774.427" gradientUnits="userSpaceOnUse">
<stop stop-color="#FDFCA4"/>
<stop offset="1" stop-color="#D9AD49"/>
</linearGradient>
<linearGradient id="paint6_linear_185_3640" x1="479.816" y1="822.777" x2="482.304" y2="822.871" gradientUnits="userSpaceOnUse">
<stop stop-color="#FDFCA4"/>
<stop offset="1" stop-color="#D9AD49"/>
</linearGradient>
<linearGradient id="paint7_linear_185_3640" x1="396.352" y1="983.852" x2="398.839" y2="983.947" gradientUnits="userSpaceOnUse">
<stop stop-color="#FDFCA4"/>
<stop offset="1" stop-color="#D9AD49"/>
</linearGradient>
<linearGradient id="paint8_linear_185_3640" x1="305.641" y1="876.991" x2="308.128" y2="877.087" gradientUnits="userSpaceOnUse">
<stop stop-color="#FDFCA4"/>
<stop offset="1" stop-color="#D9AD49"/>
</linearGradient>
<linearGradient id="paint9_linear_185_3640" x1="329.336" y1="880.765" x2="331.823" y2="880.86" gradientUnits="userSpaceOnUse">
<stop stop-color="#FDFCA4"/>
<stop offset="1" stop-color="#D9AD49"/>
</linearGradient>
<linearGradient id="paint10_linear_185_3640" x1="39.0918" y1="668.1" x2="41.5792" y2="668.195" gradientUnits="userSpaceOnUse">
<stop stop-color="#FDFCA4"/>
<stop offset="1" stop-color="#D9AD49"/>
</linearGradient>
<linearGradient id="paint11_linear_185_3640" x1="59.4688" y1="626.141" x2="61.9561" y2="626.236" gradientUnits="userSpaceOnUse">
<stop stop-color="#FDFCA4"/>
<stop offset="1" stop-color="#D9AD49"/>
</linearGradient>
<linearGradient id="paint12_linear_185_3640" x1="118.936" y1="529.241" x2="121.423" y2="529.337" gradientUnits="userSpaceOnUse">
<stop stop-color="#FDFCA4"/>
<stop offset="1" stop-color="#D9AD49"/>
</linearGradient>
<linearGradient id="paint13_linear_185_3640" x1="313.941" y1="495.734" x2="317.85" y2="495.884" gradientUnits="userSpaceOnUse">
<stop stop-color="#FDFCA4"/>
<stop offset="1" stop-color="#D9AD49"/>
</linearGradient>
<linearGradient id="paint14_linear_185_3640" x1="488.117" y1="705.984" x2="492.026" y2="706.134" gradientUnits="userSpaceOnUse">
<stop stop-color="#FDFCA4"/>
<stop offset="1" stop-color="#D9AD49"/>
</linearGradient>
<linearGradient id="paint15_linear_185_3640" x1="78.9375" y1="821.599" x2="82.8462" y2="821.749" gradientUnits="userSpaceOnUse">
<stop stop-color="#FDFCA4"/>
<stop offset="1" stop-color="#D9AD49"/>
</linearGradient>
<linearGradient id="paint16_linear_185_3640" x1="246.475" y1="869.746" x2="250.383" y2="869.896" gradientUnits="userSpaceOnUse">
<stop stop-color="#FDFCA4"/>
<stop offset="1" stop-color="#D9AD49"/>
</linearGradient>
<linearGradient id="paint17_linear_185_3640" x1="359.824" y1="883.783" x2="363.733" y2="883.933" gradientUnits="userSpaceOnUse">
<stop stop-color="#FDFCA4"/>
<stop offset="1" stop-color="#D9AD49"/>
</linearGradient>
<linearGradient id="paint18_linear_185_3640" x1="319.223" y1="1016.15" x2="321.71" y2="1016.25" gradientUnits="userSpaceOnUse">
<stop stop-color="#FDFCA4"/>
<stop offset="1" stop-color="#D9AD49"/>
</linearGradient>
<linearGradient id="paint19_linear_185_3640" x1="389.859" y1="923.327" x2="395.9" y2="923.559" gradientUnits="userSpaceOnUse">
<stop stop-color="#FDFCA4"/>
<stop offset="1" stop-color="#D9AD49"/>
</linearGradient>
<linearGradient id="paint20_linear_185_3640" x1="76.373" y1="918.045" x2="82.4138" y2="918.277" gradientUnits="userSpaceOnUse">
<stop stop-color="#FDFCA4"/>
<stop offset="1" stop-color="#D9AD49"/>
</linearGradient>
<linearGradient id="paint21_linear_185_3640" x1="210.25" y1="843.031" x2="211.671" y2="843.086" gradientUnits="userSpaceOnUse">
<stop stop-color="#FDFCA4"/>
<stop offset="1" stop-color="#D9AD49"/>
</linearGradient>
<linearGradient id="paint22_linear_185_3640" x1="437.555" y1="812.09" x2="438.976" y2="812.144" gradientUnits="userSpaceOnUse">
<stop stop-color="#FDFCA4"/>
<stop offset="1" stop-color="#D9AD49"/>
</linearGradient>
<linearGradient id="paint23_linear_185_3640" x1="232.891" y1="863.86" x2="234.312" y2="863.915" gradientUnits="userSpaceOnUse">
<stop stop-color="#FDFCA4"/>
<stop offset="1" stop-color="#D9AD49"/>
</linearGradient>
<linearGradient id="paint24_linear_185_3640" x1="487.514" y1="741.604" x2="488.935" y2="741.659" gradientUnits="userSpaceOnUse">
<stop stop-color="#FDFCA4"/>
<stop offset="1" stop-color="#D9AD49"/>
</linearGradient>
<linearGradient id="paint25_linear_185_3640" x1="137.803" y1="498.3" x2="139.224" y2="498.354" gradientUnits="userSpaceOnUse">
<stop stop-color="#FDFCA4"/>
<stop offset="1" stop-color="#D9AD49"/>
</linearGradient>
<linearGradient id="paint26_linear_185_3640" x1="62.7891" y1="703.116" x2="64.2104" y2="703.171" gradientUnits="userSpaceOnUse">
<stop stop-color="#FDFCA4"/>
<stop offset="1" stop-color="#D9AD49"/>
</linearGradient>
<linearGradient id="paint27_linear_185_3640" x1="86.1836" y1="720.021" x2="87.6049" y2="720.075" gradientUnits="userSpaceOnUse">
<stop stop-color="#FDFCA4"/>
<stop offset="1" stop-color="#D9AD49"/>
</linearGradient>
<linearGradient id="paint28_linear_185_3640" x1="253.568" y1="515.205" x2="254.99" y2="515.26" gradientUnits="userSpaceOnUse">
<stop stop-color="#FDFCA4"/>
<stop offset="1" stop-color="#D9AD49"/>
</linearGradient>
<linearGradient id="paint29_linear_185_3640" x1="194.553" y1="528.486" x2="195.974" y2="528.541" gradientUnits="userSpaceOnUse">
<stop stop-color="#FDFCA4"/>
<stop offset="1" stop-color="#D9AD49"/>
</linearGradient>
<linearGradient id="paint30_linear_185_3640" x1="201.496" y1="475.358" x2="202.917" y2="475.413" gradientUnits="userSpaceOnUse">
<stop stop-color="#FDFCA4"/>
<stop offset="1" stop-color="#D9AD49"/>
</linearGradient>
<linearGradient id="paint31_linear_185_3640" x1="211.154" y1="510.073" x2="212.576" y2="510.128" gradientUnits="userSpaceOnUse">
<stop stop-color="#FDFCA4"/>
<stop offset="1" stop-color="#D9AD49"/>
</linearGradient>
<linearGradient id="paint32_linear_185_3640" x1="359.977" y1="579.352" x2="361.398" y2="579.406" gradientUnits="userSpaceOnUse">
<stop stop-color="#FDFCA4"/>
<stop offset="1" stop-color="#D9AD49"/>
</linearGradient>
<linearGradient id="paint33_linear_185_3640" x1="476.193" y1="579.955" x2="477.615" y2="580.01" gradientUnits="userSpaceOnUse">
<stop stop-color="#FDFCA4"/>
<stop offset="1" stop-color="#D9AD49"/>
</linearGradient>
<linearGradient id="paint34_linear_185_3640" x1="437.555" y1="542.523" x2="438.976" y2="542.578" gradientUnits="userSpaceOnUse">
<stop stop-color="#FDFCA4"/>
<stop offset="1" stop-color="#D9AD49"/>
</linearGradient>
<linearGradient id="paint35_linear_185_3640" x1="118.18" y1="812.09" x2="119.601" y2="812.144" gradientUnits="userSpaceOnUse">
<stop stop-color="#FDFCA4"/>
<stop offset="1" stop-color="#D9AD49"/>
</linearGradient>
<linearGradient id="paint36_linear_185_3640" x1="437.555" y1="577.842" x2="438.976" y2="577.896" gradientUnits="userSpaceOnUse">
<stop stop-color="#FDFCA4"/>
<stop offset="1" stop-color="#D9AD49"/>
</linearGradient>
<linearGradient id="paint37_linear_185_3640" x1="403.445" y1="474" x2="404.867" y2="474.055" gradientUnits="userSpaceOnUse">
<stop stop-color="#FDFCA4"/>
<stop offset="1" stop-color="#D9AD49"/>
</linearGradient>
<linearGradient id="paint38_linear_185_3640" x1="544.414" y1="655.874" x2="545.835" y2="655.929" gradientUnits="userSpaceOnUse">
<stop stop-color="#FDFCA4"/>
<stop offset="1" stop-color="#D9AD49"/>
</linearGradient>
<linearGradient id="paint39_linear_185_3640" x1="535.662" y1="826.429" x2="537.084" y2="826.483" gradientUnits="userSpaceOnUse">
<stop stop-color="#FDFCA4"/>
<stop offset="1" stop-color="#D9AD49"/>
</linearGradient>
<linearGradient id="paint40_linear_185_3640" x1="441.781" y1="948.986" x2="443.203" y2="949.041" gradientUnits="userSpaceOnUse">
<stop stop-color="#FDFCA4"/>
<stop offset="1" stop-color="#D9AD49"/>
</linearGradient>
<linearGradient id="paint41_linear_185_3640" x1="63.0898" y1="902.499" x2="69.1306" y2="902.731" gradientUnits="userSpaceOnUse">
<stop stop-color="#FDFCA4"/>
<stop offset="1" stop-color="#D9AD49"/>
</linearGradient>
<linearGradient id="paint42_linear_185_3640" x1="22.0371" y1="624.618" x2="28.0779" y2="624.849" gradientUnits="userSpaceOnUse">
<stop stop-color="#FDFCA4"/>
<stop offset="1" stop-color="#D9AD49"/>
</linearGradient>
<linearGradient id="paint43_linear_185_3640" x1="546.83" y1="737.076" x2="552.871" y2="737.308" gradientUnits="userSpaceOnUse">
<stop stop-color="#FDFCA4"/>
<stop offset="1" stop-color="#D9AD49"/>
</linearGradient>
<linearGradient id="paint44_linear_185_3640" x1="387.293" y1="512.79" x2="393.334" y2="513.022" gradientUnits="userSpaceOnUse">
<stop stop-color="#FDFCA4"/>
<stop offset="1" stop-color="#D9AD49"/>
</linearGradient>
<linearGradient id="paint45_linear_185_3640" x1="164.516" y1="745.062" x2="170.556" y2="745.294" gradientUnits="userSpaceOnUse">
<stop stop-color="#FDFCA4"/>
<stop offset="1" stop-color="#D9AD49"/>
</linearGradient>
<linearGradient id="paint46_linear_185_3640" x1="183.986" y1="834.277" x2="190.027" y2="834.509" gradientUnits="userSpaceOnUse">
<stop stop-color="#FDFCA4"/>
<stop offset="1" stop-color="#D9AD49"/>
</linearGradient>
<linearGradient id="paint47_linear_185_3640" x1="91.918" y1="677.608" x2="97.9588" y2="677.84" gradientUnits="userSpaceOnUse">
<stop stop-color="#FDFCA4"/>
<stop offset="1" stop-color="#D9AD49"/>
</linearGradient>
<linearGradient id="paint48_linear_185_3640" x1="158.328" y1="675.043" x2="164.369" y2="675.275" gradientUnits="userSpaceOnUse">
<stop stop-color="#FDFCA4"/>
<stop offset="1" stop-color="#D9AD49"/>
</linearGradient>
<linearGradient id="paint49_linear_185_3640" x1="213.117" y1="813.298" x2="219.158" y2="813.53" gradientUnits="userSpaceOnUse">
<stop stop-color="#FDFCA4"/>
<stop offset="1" stop-color="#D9AD49"/>
</linearGradient>
<linearGradient id="paint50_linear_185_3640" x1="110.029" y1="970.117" x2="112.517" y2="970.213" gradientUnits="userSpaceOnUse">
<stop stop-color="#FDFCA4"/>
<stop offset="1" stop-color="#D9AD49"/>
</linearGradient>
<linearGradient id="paint51_linear_185_3640" x1="279.98" y1="1018.87" x2="286.021" y2="1019.1" gradientUnits="userSpaceOnUse">
<stop stop-color="#FDFCA4"/>
<stop offset="1" stop-color="#D9AD49"/>
</linearGradient>
<linearGradient id="paint52_linear_185_3640" x1="198.93" y1="1009.21" x2="204.97" y2="1009.44" gradientUnits="userSpaceOnUse">
<stop stop-color="#FDFCA4"/>
<stop offset="1" stop-color="#D9AD49"/>
</linearGradient>
<linearGradient id="paint53_linear_185_3640" x1="420.801" y1="874.274" x2="426.842" y2="874.506" gradientUnits="userSpaceOnUse">
<stop stop-color="#FDFCA4"/>
<stop offset="1" stop-color="#D9AD49"/>
</linearGradient>
<linearGradient id="paint54_linear_185_3640" x1="209.043" y1="983.852" x2="215.084" y2="984.083" gradientUnits="userSpaceOnUse">
<stop stop-color="#FDFCA4"/>
<stop offset="1" stop-color="#D9AD49"/>
</linearGradient>
<linearGradient id="paint55_linear_185_3640" x1="68.8242" y1="606.066" x2="74.865" y2="606.298" gradientUnits="userSpaceOnUse">
<stop stop-color="#FDFCA4"/>
<stop offset="1" stop-color="#D9AD49"/>
</linearGradient>
<linearGradient id="paint56_linear_185_3640" x1="286.471" y1="536.336" x2="292.512" y2="536.568" gradientUnits="userSpaceOnUse">
<stop stop-color="#FDFCA4"/>
<stop offset="1" stop-color="#D9AD49"/>
</linearGradient>
<linearGradient id="paint57_linear_185_3640" x1="345.184" y1="557.141" x2="347.671" y2="557.235" gradientUnits="userSpaceOnUse">
<stop stop-color="#FDFCA4"/>
<stop offset="1" stop-color="#D9AD49"/>
</linearGradient>
<linearGradient id="paint58_linear_185_3640" x1="433.932" y1="633.385" x2="436.419" y2="633.48" gradientUnits="userSpaceOnUse">
<stop stop-color="#FDFCA4"/>
<stop offset="1" stop-color="#D9AD49"/>
</linearGradient>
<linearGradient id="paint59_linear_185_3640" x1="336.883" y1="593.841" x2="339.37" y2="593.936" gradientUnits="userSpaceOnUse">
<stop stop-color="#FDFCA4"/>
<stop offset="1" stop-color="#D9AD49"/>
</linearGradient>
<linearGradient id="paint60_linear_185_3640" x1="494.758" y1="673.383" x2="497.245" y2="673.478" gradientUnits="userSpaceOnUse">
<stop stop-color="#FDFCA4"/>
<stop offset="1" stop-color="#D9AD49"/>
</linearGradient>
<linearGradient id="paint61_linear_185_3640" x1="108.521" y1="489.094" x2="111.009" y2="489.189" gradientUnits="userSpaceOnUse">
<stop stop-color="#FDFCA4"/>
<stop offset="1" stop-color="#D9AD49"/>
</linearGradient>
<linearGradient id="paint62_linear_185_3640" x1="37.1289" y1="859.634" x2="39.6163" y2="859.729" gradientUnits="userSpaceOnUse">
<stop stop-color="#FDFCA4"/>
<stop offset="1" stop-color="#D9AD49"/>
</linearGradient>
<linearGradient id="paint63_linear_185_3640" x1="0" y1="723.794" x2="2.48738" y2="723.889" gradientUnits="userSpaceOnUse">
<stop stop-color="#FDFCA4"/>
<stop offset="1" stop-color="#D9AD49"/>
</linearGradient>
<linearGradient id="paint64_linear_185_3640" x1="75.1641" y1="768.749" x2="77.6515" y2="768.843" gradientUnits="userSpaceOnUse">
<stop stop-color="#FDFCA4"/>
<stop offset="1" stop-color="#D9AD49"/>
</linearGradient>
<linearGradient id="paint65_linear_185_3640" x1="105.051" y1="751.867" x2="108.96" y2="752.017" gradientUnits="userSpaceOnUse">
<stop stop-color="#FDFCA4"/>
<stop offset="1" stop-color="#D9AD49"/>
</linearGradient>
<linearGradient id="paint66_linear_185_3640" x1="43.7715" y1="612.104" x2="46.2589" y2="612.199" gradientUnits="userSpaceOnUse">
<stop stop-color="#FDFCA4"/>
<stop offset="1" stop-color="#D9AD49"/>
</linearGradient>
<linearGradient id="paint67_linear_185_3640" x1="184.289" y1="496.791" x2="186.776" y2="496.886" gradientUnits="userSpaceOnUse">
<stop stop-color="#FDFCA4"/>
<stop offset="1" stop-color="#D9AD49"/>
</linearGradient>
<linearGradient id="paint68_linear_185_3640" x1="321.336" y1="580.408" x2="323.823" y2="580.504" gradientUnits="userSpaceOnUse">
<stop stop-color="#FDFCA4"/>
<stop offset="1" stop-color="#D9AD49"/>
</linearGradient>
<linearGradient id="paint69_linear_185_3640" x1="269.717" y1="501.47" x2="272.204" y2="501.565" gradientUnits="userSpaceOnUse">
<stop stop-color="#FDFCA4"/>
<stop offset="1" stop-color="#D9AD49"/>
</linearGradient>
<linearGradient id="paint70_linear_185_3640" x1="530.529" y1="790.205" x2="533.017" y2="790.3" gradientUnits="userSpaceOnUse">
<stop stop-color="#FDFCA4"/>
<stop offset="1" stop-color="#D9AD49"/>
</linearGradient>
<linearGradient id="paint71_linear_185_3640" x1="410.236" y1="978.116" x2="412.724" y2="978.212" gradientUnits="userSpaceOnUse">
<stop stop-color="#FDFCA4"/>
<stop offset="1" stop-color="#D9AD49"/>
</linearGradient>
<linearGradient id="paint72_linear_185_3640" x1="140.217" y1="979.324" x2="142.704" y2="979.42" gradientUnits="userSpaceOnUse">
<stop stop-color="#FDFCA4"/>
<stop offset="1" stop-color="#D9AD49"/>
</linearGradient>
<linearGradient id="paint73_linear_185_3640" x1="476.797" y1="764.848" x2="479.284" y2="764.943" gradientUnits="userSpaceOnUse">
<stop stop-color="#FDFCA4"/>
<stop offset="1" stop-color="#D9AD49"/>
</linearGradient>
<linearGradient id="paint74_linear_185_3640" x1="480.117" y1="775.413" x2="482.605" y2="775.508" gradientUnits="userSpaceOnUse">
<stop stop-color="#FDFCA4"/>
<stop offset="1" stop-color="#D9AD49"/>
</linearGradient>
<linearGradient id="paint75_linear_185_3640" x1="461.402" y1="651.172" x2="463.89" y2="651.266" gradientUnits="userSpaceOnUse">
<stop stop-color="#FDFCA4"/>
<stop offset="1" stop-color="#D9AD49"/>
</linearGradient>
<linearGradient id="paint76_linear_185_3640" x1="943.369" y1="928.61" x2="945.857" y2="928.515" gradientUnits="userSpaceOnUse">
<stop stop-color="#FDFCA4"/>
<stop offset="1" stop-color="#D9AD49"/>
</linearGradient>
<linearGradient id="paint77_linear_185_3640" x1="906.24" y1="1003.96" x2="908.728" y2="1003.86" gradientUnits="userSpaceOnUse">
<stop stop-color="#FDFCA4"/>
<stop offset="1" stop-color="#D9AD49"/>
</linearGradient>
<linearGradient id="paint78_linear_185_3640" x1="584.752" y1="919.102" x2="587.239" y2="919.006" gradientUnits="userSpaceOnUse">
<stop stop-color="#FDFCA4"/>
<stop offset="1" stop-color="#D9AD49"/>
</linearGradient>
<linearGradient id="paint79_linear_185_3640" x1="1040.12" y1="734.359" x2="1042.6" y2="734.264" gradientUnits="userSpaceOnUse">
<stop stop-color="#FDFCA4"/>
<stop offset="1" stop-color="#D9AD49"/>
</linearGradient>
<linearGradient id="paint80_linear_185_3640" x1="999.064" y1="760.018" x2="1001.55" y2="759.922" gradientUnits="userSpaceOnUse">
<stop stop-color="#FDFCA4"/>
<stop offset="1" stop-color="#D9AD49"/>
</linearGradient>
<linearGradient id="paint81_linear_185_3640" x1="1017.78" y1="723.667" x2="1020.27" y2="723.573" gradientUnits="userSpaceOnUse">
<stop stop-color="#FDFCA4"/>
<stop offset="1" stop-color="#D9AD49"/>
</linearGradient>
<linearGradient id="paint82_linear_185_3640" x1="1031.82" y1="675.223" x2="1034.3" y2="675.129" gradientUnits="userSpaceOnUse">
<stop stop-color="#FDFCA4"/>
<stop offset="1" stop-color="#D9AD49"/>
</linearGradient>
<linearGradient id="paint83_linear_185_3640" x1="948.352" y1="514.148" x2="950.839" y2="514.053" gradientUnits="userSpaceOnUse">
<stop stop-color="#FDFCA4"/>
<stop offset="1" stop-color="#D9AD49"/>
</linearGradient>
<linearGradient id="paint84_linear_185_3640" x1="857.641" y1="621.009" x2="860.128" y2="620.913" gradientUnits="userSpaceOnUse">
<stop stop-color="#FDFCA4"/>
<stop offset="1" stop-color="#D9AD49"/>
</linearGradient>
<linearGradient id="paint85_linear_185_3640" x1="881.336" y1="617.235" x2="883.823" y2="617.14" gradientUnits="userSpaceOnUse">
<stop stop-color="#FDFCA4"/>
<stop offset="1" stop-color="#D9AD49"/>
</linearGradient>
<linearGradient id="paint86_linear_185_3640" x1="591.092" y1="829.9" x2="593.579" y2="829.805" gradientUnits="userSpaceOnUse">
<stop stop-color="#FDFCA4"/>
<stop offset="1" stop-color="#D9AD49"/>
</linearGradient>
<linearGradient id="paint87_linear_185_3640" x1="611.469" y1="871.859" x2="613.956" y2="871.764" gradientUnits="userSpaceOnUse">
<stop stop-color="#FDFCA4"/>
<stop offset="1" stop-color="#D9AD49"/>
</linearGradient>
<linearGradient id="paint88_linear_185_3640" x1="670.936" y1="968.759" x2="673.423" y2="968.663" gradientUnits="userSpaceOnUse">
<stop stop-color="#FDFCA4"/>
<stop offset="1" stop-color="#D9AD49"/>
</linearGradient>
<linearGradient id="paint89_linear_185_3640" x1="865.941" y1="1002.27" x2="869.85" y2="1002.12" gradientUnits="userSpaceOnUse">
<stop stop-color="#FDFCA4"/>
<stop offset="1" stop-color="#D9AD49"/>
</linearGradient>
<linearGradient id="paint90_linear_185_3640" x1="1040.12" y1="792.016" x2="1044.03" y2="791.866" gradientUnits="userSpaceOnUse">
<stop stop-color="#FDFCA4"/>
<stop offset="1" stop-color="#D9AD49"/>
</linearGradient>
<linearGradient id="paint91_linear_185_3640" x1="630.938" y1="676.401" x2="634.846" y2="676.251" gradientUnits="userSpaceOnUse">
<stop stop-color="#FDFCA4"/>
<stop offset="1" stop-color="#D9AD49"/>
</linearGradient>
<linearGradient id="paint92_linear_185_3640" x1="798.475" y1="628.254" x2="802.383" y2="628.104" gradientUnits="userSpaceOnUse">
<stop stop-color="#FDFCA4"/>
<stop offset="1" stop-color="#D9AD49"/>
</linearGradient>
<linearGradient id="paint93_linear_185_3640" x1="911.824" y1="614.217" x2="915.733" y2="614.067" gradientUnits="userSpaceOnUse">
<stop stop-color="#FDFCA4"/>
<stop offset="1" stop-color="#D9AD49"/>
</linearGradient>
<linearGradient id="paint94_linear_185_3640" x1="871.223" y1="481.849" x2="873.71" y2="481.753" gradientUnits="userSpaceOnUse">
<stop stop-color="#FDFCA4"/>
<stop offset="1" stop-color="#D9AD49"/>
</linearGradient>
<linearGradient id="paint95_linear_185_3640" x1="941.859" y1="574.673" x2="947.9" y2="574.441" gradientUnits="userSpaceOnUse">
<stop stop-color="#FDFCA4"/>
<stop offset="1" stop-color="#D9AD49"/>
</linearGradient>
<linearGradient id="paint96_linear_185_3640" x1="628.373" y1="579.955" x2="634.414" y2="579.723" gradientUnits="userSpaceOnUse">
<stop stop-color="#FDFCA4"/>
<stop offset="1" stop-color="#D9AD49"/>
</linearGradient>
<linearGradient id="paint97_linear_185_3640" x1="762.25" y1="654.969" x2="763.671" y2="654.914" gradientUnits="userSpaceOnUse">
<stop stop-color="#FDFCA4"/>
<stop offset="1" stop-color="#D9AD49"/>
</linearGradient>
<linearGradient id="paint98_linear_185_3640" x1="989.555" y1="685.91" x2="990.976" y2="685.856" gradientUnits="userSpaceOnUse">
<stop stop-color="#FDFCA4"/>
<stop offset="1" stop-color="#D9AD49"/>
</linearGradient>
<linearGradient id="paint99_linear_185_3640" x1="784.891" y1="634.14" x2="786.312" y2="634.085" gradientUnits="userSpaceOnUse">
<stop stop-color="#FDFCA4"/>
<stop offset="1" stop-color="#D9AD49"/>
</linearGradient>
<linearGradient id="paint100_linear_185_3640" x1="1039.51" y1="756.396" x2="1040.94" y2="756.341" gradientUnits="userSpaceOnUse">
<stop stop-color="#FDFCA4"/>
<stop offset="1" stop-color="#D9AD49"/>
</linearGradient>
<linearGradient id="paint101_linear_185_3640" x1="689.803" y1="999.7" x2="691.224" y2="999.646" gradientUnits="userSpaceOnUse">
<stop stop-color="#FDFCA4"/>
<stop offset="1" stop-color="#D9AD49"/>
</linearGradient>
<linearGradient id="paint102_linear_185_3640" x1="614.789" y1="794.884" x2="616.21" y2="794.829" gradientUnits="userSpaceOnUse">
<stop stop-color="#FDFCA4"/>
<stop offset="1" stop-color="#D9AD49"/>
</linearGradient>
<linearGradient id="paint103_linear_185_3640" x1="638.184" y1="777.979" x2="639.605" y2="777.925" gradientUnits="userSpaceOnUse">
<stop stop-color="#FDFCA4"/>
<stop offset="1" stop-color="#D9AD49"/>
</linearGradient>
<linearGradient id="paint104_linear_185_3640" x1="805.568" y1="982.795" x2="806.99" y2="982.74" gradientUnits="userSpaceOnUse">
<stop stop-color="#FDFCA4"/>
<stop offset="1" stop-color="#D9AD49"/>
</linearGradient>
<linearGradient id="paint105_linear_185_3640" x1="746.553" y1="969.514" x2="747.974" y2="969.459" gradientUnits="userSpaceOnUse">
<stop stop-color="#FDFCA4"/>
<stop offset="1" stop-color="#D9AD49"/>
</linearGradient>
<linearGradient id="paint106_linear_185_3640" x1="753.496" y1="1022.64" x2="754.917" y2="1022.59" gradientUnits="userSpaceOnUse">
<stop stop-color="#FDFCA4"/>
<stop offset="1" stop-color="#D9AD49"/>
</linearGradient>
<linearGradient id="paint107_linear_185_3640" x1="763.154" y1="987.927" x2="764.576" y2="987.872" gradientUnits="userSpaceOnUse">
<stop stop-color="#FDFCA4"/>
<stop offset="1" stop-color="#D9AD49"/>
</linearGradient>
<linearGradient id="paint108_linear_185_3640" x1="911.977" y1="918.648" x2="913.398" y2="918.594" gradientUnits="userSpaceOnUse">
<stop stop-color="#FDFCA4"/>
<stop offset="1" stop-color="#D9AD49"/>
</linearGradient>
<linearGradient id="paint109_linear_185_3640" x1="1028.19" y1="918.045" x2="1029.61" y2="917.99" gradientUnits="userSpaceOnUse">
<stop stop-color="#FDFCA4"/>
<stop offset="1" stop-color="#D9AD49"/>
</linearGradient>
<linearGradient id="paint110_linear_185_3640" x1="989.555" y1="955.477" x2="990.976" y2="955.422" gradientUnits="userSpaceOnUse">
<stop stop-color="#FDFCA4"/>
<stop offset="1" stop-color="#D9AD49"/>
</linearGradient>
<linearGradient id="paint111_linear_185_3640" x1="670.18" y1="685.91" x2="671.601" y2="685.856" gradientUnits="userSpaceOnUse">
<stop stop-color="#FDFCA4"/>
<stop offset="1" stop-color="#D9AD49"/>
</linearGradient>
<linearGradient id="paint112_linear_185_3640" x1="989.555" y1="920.158" x2="990.976" y2="920.104" gradientUnits="userSpaceOnUse">
<stop stop-color="#FDFCA4"/>
<stop offset="1" stop-color="#D9AD49"/>
</linearGradient>
<linearGradient id="paint113_linear_185_3640" x1="955.445" y1="1024" x2="956.867" y2="1023.95" gradientUnits="userSpaceOnUse">
<stop stop-color="#FDFCA4"/>
<stop offset="1" stop-color="#D9AD49"/>
</linearGradient>
<linearGradient id="paint114_linear_185_3640" x1="1096.41" y1="842.126" x2="1097.84" y2="842.071" gradientUnits="userSpaceOnUse">
<stop stop-color="#FDFCA4"/>
<stop offset="1" stop-color="#D9AD49"/>
</linearGradient>
<linearGradient id="paint115_linear_185_3640" x1="1087.66" y1="671.571" x2="1089.08" y2="671.517" gradientUnits="userSpaceOnUse">
<stop stop-color="#FDFCA4"/>
<stop offset="1" stop-color="#D9AD49"/>
</linearGradient>
<linearGradient id="paint116_linear_185_3640" x1="993.781" y1="549.014" x2="995.203" y2="548.959" gradientUnits="userSpaceOnUse">
<stop stop-color="#FDFCA4"/>
<stop offset="1" stop-color="#D9AD49"/>
</linearGradient>
<linearGradient id="paint117_linear_185_3640" x1="615.09" y1="595.501" x2="621.131" y2="595.269" gradientUnits="userSpaceOnUse">
<stop stop-color="#FDFCA4"/>
<stop offset="1" stop-color="#D9AD49"/>
</linearGradient>
<linearGradient id="paint118_linear_185_3640" x1="574.037" y1="873.382" x2="580.078" y2="873.151" gradientUnits="userSpaceOnUse">
<stop stop-color="#FDFCA4"/>
<stop offset="1" stop-color="#D9AD49"/>
</linearGradient>
<linearGradient id="paint119_linear_185_3640" x1="1098.83" y1="760.924" x2="1104.87" y2="760.692" gradientUnits="userSpaceOnUse">
<stop stop-color="#FDFCA4"/>
<stop offset="1" stop-color="#D9AD49"/>
</linearGradient>
<linearGradient id="paint120_linear_185_3640" x1="939.293" y1="985.21" x2="945.334" y2="984.978" gradientUnits="userSpaceOnUse">
<stop stop-color="#FDFCA4"/>
<stop offset="1" stop-color="#D9AD49"/>
</linearGradient>
<linearGradient id="paint121_linear_185_3640" x1="716.516" y1="752.938" x2="722.556" y2="752.706" gradientUnits="userSpaceOnUse">
<stop stop-color="#FDFCA4"/>
<stop offset="1" stop-color="#D9AD49"/>
</linearGradient>
<linearGradient id="paint122_linear_185_3640" x1="735.986" y1="663.723" x2="742.027" y2="663.491" gradientUnits="userSpaceOnUse">
<stop stop-color="#FDFCA4"/>
<stop offset="1" stop-color="#D9AD49"/>
</linearGradient>
<linearGradient id="paint123_linear_185_3640" x1="643.918" y1="820.392" x2="649.959" y2="820.16" gradientUnits="userSpaceOnUse">
<stop stop-color="#FDFCA4"/>
<stop offset="1" stop-color="#D9AD49"/>
</linearGradient>
<linearGradient id="paint124_linear_185_3640" x1="710.328" y1="822.957" x2="716.369" y2="822.725" gradientUnits="userSpaceOnUse">
<stop stop-color="#FDFCA4"/>
<stop offset="1" stop-color="#D9AD49"/>
</linearGradient>
<linearGradient id="paint125_linear_185_3640" x1="765.117" y1="684.702" x2="771.158" y2="684.47" gradientUnits="userSpaceOnUse">
<stop stop-color="#FDFCA4"/>
<stop offset="1" stop-color="#D9AD49"/>
</linearGradient>
<linearGradient id="paint126_linear_185_3640" x1="662.029" y1="527.883" x2="664.517" y2="527.787" gradientUnits="userSpaceOnUse">
<stop stop-color="#FDFCA4"/>
<stop offset="1" stop-color="#D9AD49"/>
</linearGradient>
<linearGradient id="paint127_linear_185_3640" x1="831.98" y1="479.132" x2="838.021" y2="478.9" gradientUnits="userSpaceOnUse">
<stop stop-color="#FDFCA4"/>
<stop offset="1" stop-color="#D9AD49"/>
</linearGradient>
<linearGradient id="paint128_linear_185_3640" x1="750.93" y1="488.791" x2="756.97" y2="488.559" gradientUnits="userSpaceOnUse">
<stop stop-color="#FDFCA4"/>
<stop offset="1" stop-color="#D9AD49"/>
</linearGradient>
<linearGradient id="paint129_linear_185_3640" x1="972.801" y1="623.726" x2="978.842" y2="623.494" gradientUnits="userSpaceOnUse">
<stop stop-color="#FDFCA4"/>
<stop offset="1" stop-color="#D9AD49"/>
</linearGradient>
<linearGradient id="paint130_linear_185_3640" x1="761.043" y1="514.148" x2="767.084" y2="513.917" gradientUnits="userSpaceOnUse">
<stop stop-color="#FDFCA4"/>
<stop offset="1" stop-color="#D9AD49"/>
</linearGradient>
<linearGradient id="paint131_linear_185_3640" x1="620.824" y1="891.934" x2="626.865" y2="891.702" gradientUnits="userSpaceOnUse">
<stop stop-color="#FDFCA4"/>
<stop offset="1" stop-color="#D9AD49"/>
</linearGradient>
<linearGradient id="paint132_linear_185_3640" x1="838.471" y1="961.664" x2="844.512" y2="961.432" gradientUnits="userSpaceOnUse">
<stop stop-color="#FDFCA4"/>
<stop offset="1" stop-color="#D9AD49"/>
</linearGradient>
<linearGradient id="paint133_linear_185_3640" x1="897.184" y1="940.859" x2="899.671" y2="940.765" gradientUnits="userSpaceOnUse">
<stop stop-color="#FDFCA4"/>
<stop offset="1" stop-color="#D9AD49"/>
</linearGradient>
<linearGradient id="paint134_linear_185_3640" x1="985.932" y1="864.615" x2="988.419" y2="864.52" gradientUnits="userSpaceOnUse">
<stop stop-color="#FDFCA4"/>
<stop offset="1" stop-color="#D9AD49"/>
</linearGradient>
<linearGradient id="paint135_linear_185_3640" x1="888.883" y1="904.159" x2="891.37" y2="904.064" gradientUnits="userSpaceOnUse">
<stop stop-color="#FDFCA4"/>
<stop offset="1" stop-color="#D9AD49"/>
</linearGradient>
<linearGradient id="paint136_linear_185_3640" x1="1046.76" y1="824.617" x2="1049.25" y2="824.522" gradientUnits="userSpaceOnUse">
<stop stop-color="#FDFCA4"/>
<stop offset="1" stop-color="#D9AD49"/>
</linearGradient>
<linearGradient id="paint137_linear_185_3640" x1="660.521" y1="1008.91" x2="663.009" y2="1008.81" gradientUnits="userSpaceOnUse">
<stop stop-color="#FDFCA4"/>
<stop offset="1" stop-color="#D9AD49"/>
</linearGradient>
<linearGradient id="paint138_linear_185_3640" x1="589.129" y1="638.366" x2="591.616" y2="638.271" gradientUnits="userSpaceOnUse">
<stop stop-color="#FDFCA4"/>
<stop offset="1" stop-color="#D9AD49"/>
</linearGradient>
<linearGradient id="paint139_linear_185_3640" x1="552" y1="774.206" x2="554.487" y2="774.111" gradientUnits="userSpaceOnUse">
<stop stop-color="#FDFCA4"/>
<stop offset="1" stop-color="#D9AD49"/>
</linearGradient>
<linearGradient id="paint140_linear_185_3640" x1="627.164" y1="729.251" x2="629.652" y2="729.157" gradientUnits="userSpaceOnUse">
<stop stop-color="#FDFCA4"/>
<stop offset="1" stop-color="#D9AD49"/>
</linearGradient>
<linearGradient id="paint141_linear_185_3640" x1="657.051" y1="746.133" x2="660.96" y2="745.983" gradientUnits="userSpaceOnUse">
<stop stop-color="#FDFCA4"/>
<stop offset="1" stop-color="#D9AD49"/>
</linearGradient>
<linearGradient id="paint142_linear_185_3640" x1="595.771" y1="885.896" x2="598.259" y2="885.801" gradientUnits="userSpaceOnUse">
<stop stop-color="#FDFCA4"/>
<stop offset="1" stop-color="#D9AD49"/>
</linearGradient>
<linearGradient id="paint143_linear_185_3640" x1="736.289" y1="1001.21" x2="738.776" y2="1001.11" gradientUnits="userSpaceOnUse">
<stop stop-color="#FDFCA4"/>
<stop offset="1" stop-color="#D9AD49"/>
</linearGradient>
<linearGradient id="paint144_linear_185_3640" x1="873.336" y1="917.592" x2="875.823" y2="917.496" gradientUnits="userSpaceOnUse">
<stop stop-color="#FDFCA4"/>
<stop offset="1" stop-color="#D9AD49"/>
</linearGradient>
<linearGradient id="paint145_linear_185_3640" x1="821.717" y1="996.53" x2="824.204" y2="996.435" gradientUnits="userSpaceOnUse">
<stop stop-color="#FDFCA4"/>
<stop offset="1" stop-color="#D9AD49"/>
</linearGradient>
<linearGradient id="paint146_linear_185_3640" x1="1082.53" y1="707.795" x2="1085.02" y2="707.7" gradientUnits="userSpaceOnUse">
<stop stop-color="#FDFCA4"/>
<stop offset="1" stop-color="#D9AD49"/>
</linearGradient>
<linearGradient id="paint147_linear_185_3640" x1="962.236" y1="519.884" x2="964.724" y2="519.788" gradientUnits="userSpaceOnUse">
<stop stop-color="#FDFCA4"/>
<stop offset="1" stop-color="#D9AD49"/>
</linearGradient>
<linearGradient id="paint148_linear_185_3640" x1="692.217" y1="518.676" x2="694.704" y2="518.58" gradientUnits="userSpaceOnUse">
<stop stop-color="#FDFCA4"/>
<stop offset="1" stop-color="#D9AD49"/>
</linearGradient>
<linearGradient id="paint149_linear_185_3640" x1="1028.8" y1="733.152" x2="1031.28" y2="733.057" gradientUnits="userSpaceOnUse">
<stop stop-color="#FDFCA4"/>
<stop offset="1" stop-color="#D9AD49"/>
</linearGradient>
<linearGradient id="paint150_linear_185_3640" x1="1032.12" y1="722.587" x2="1034.6" y2="722.492" gradientUnits="userSpaceOnUse">
<stop stop-color="#FDFCA4"/>
<stop offset="1" stop-color="#D9AD49"/>
</linearGradient>
<linearGradient id="paint151_linear_185_3640" x1="1013.4" y1="846.828" x2="1015.89" y2="846.734" gradientUnits="userSpaceOnUse">
<stop stop-color="#FDFCA4"/>
<stop offset="1" stop-color="#D9AD49"/>
</linearGradient>
<linearGradient id="paint152_linear_185_3640" x1="1136.75" y1="578.898" x2="1139.24" y2="578.994" gradientUnits="userSpaceOnUse">
<stop stop-color="#FDFCA4"/>
<stop offset="1" stop-color="#D9AD49"/>
</linearGradient>
<linearGradient id="paint153_linear_185_3640" x1="1143.09" y1="668.1" x2="1145.58" y2="668.195" gradientUnits="userSpaceOnUse">
<stop stop-color="#FDFCA4"/>
<stop offset="1" stop-color="#D9AD49"/>
</linearGradient>
<linearGradient id="paint154_linear_185_3640" x1="1163.47" y1="626.141" x2="1165.96" y2="626.236" gradientUnits="userSpaceOnUse">
<stop stop-color="#FDFCA4"/>
<stop offset="1" stop-color="#D9AD49"/>
</linearGradient>
<linearGradient id="paint155_linear_185_3640" x1="1222.94" y1="529.241" x2="1225.42" y2="529.337" gradientUnits="userSpaceOnUse">
<stop stop-color="#FDFCA4"/>
<stop offset="1" stop-color="#D9AD49"/>
</linearGradient>
<linearGradient id="paint156_linear_185_3640" x1="1182.94" y1="821.599" x2="1186.85" y2="821.749" gradientUnits="userSpaceOnUse">
<stop stop-color="#FDFCA4"/>
<stop offset="1" stop-color="#D9AD49"/>
</linearGradient>
<linearGradient id="paint157_linear_185_3640" x1="1350.47" y1="869.746" x2="1354.38" y2="869.896" gradientUnits="userSpaceOnUse">
<stop stop-color="#FDFCA4"/>
<stop offset="1" stop-color="#D9AD49"/>
</linearGradient>
<linearGradient id="paint158_linear_185_3640" x1="1180.37" y1="918.045" x2="1186.41" y2="918.277" gradientUnits="userSpaceOnUse">
<stop stop-color="#FDFCA4"/>
<stop offset="1" stop-color="#D9AD49"/>
</linearGradient>
<linearGradient id="paint159_linear_185_3640" x1="1314.25" y1="843.031" x2="1315.67" y2="843.086" gradientUnits="userSpaceOnUse">
<stop stop-color="#FDFCA4"/>
<stop offset="1" stop-color="#D9AD49"/>
</linearGradient>
<linearGradient id="paint160_linear_185_3640" x1="1336.89" y1="863.86" x2="1338.31" y2="863.915" gradientUnits="userSpaceOnUse">
<stop stop-color="#FDFCA4"/>
<stop offset="1" stop-color="#D9AD49"/>
</linearGradient>
<linearGradient id="paint161_linear_185_3640" x1="1241.8" y1="498.3" x2="1243.22" y2="498.354" gradientUnits="userSpaceOnUse">
<stop stop-color="#FDFCA4"/>
<stop offset="1" stop-color="#D9AD49"/>
</linearGradient>
<linearGradient id="paint162_linear_185_3640" x1="1166.79" y1="703.116" x2="1168.21" y2="703.171" gradientUnits="userSpaceOnUse">
<stop stop-color="#FDFCA4"/>
<stop offset="1" stop-color="#D9AD49"/>
</linearGradient>
<linearGradient id="paint163_linear_185_3640" x1="1190.18" y1="720.021" x2="1191.6" y2="720.075" gradientUnits="userSpaceOnUse">
<stop stop-color="#FDFCA4"/>
<stop offset="1" stop-color="#D9AD49"/>
</linearGradient>
<linearGradient id="paint164_linear_185_3640" x1="1357.57" y1="515.205" x2="1358.99" y2="515.26" gradientUnits="userSpaceOnUse">
<stop stop-color="#FDFCA4"/>
<stop offset="1" stop-color="#D9AD49"/>
</linearGradient>
<linearGradient id="paint165_linear_185_3640" x1="1298.55" y1="528.486" x2="1299.97" y2="528.541" gradientUnits="userSpaceOnUse">
<stop stop-color="#FDFCA4"/>
<stop offset="1" stop-color="#D9AD49"/>
</linearGradient>
<linearGradient id="paint166_linear_185_3640" x1="1305.5" y1="475.358" x2="1306.92" y2="475.413" gradientUnits="userSpaceOnUse">
<stop stop-color="#FDFCA4"/>
<stop offset="1" stop-color="#D9AD49"/>
</linearGradient>
<linearGradient id="paint167_linear_185_3640" x1="1315.15" y1="510.073" x2="1316.58" y2="510.128" gradientUnits="userSpaceOnUse">
<stop stop-color="#FDFCA4"/>
<stop offset="1" stop-color="#D9AD49"/>
</linearGradient>
<linearGradient id="paint168_linear_185_3640" x1="1222.18" y1="812.09" x2="1223.6" y2="812.144" gradientUnits="userSpaceOnUse">
<stop stop-color="#FDFCA4"/>
<stop offset="1" stop-color="#D9AD49"/>
</linearGradient>
<linearGradient id="paint169_linear_185_3640" x1="1167.09" y1="902.499" x2="1173.13" y2="902.731" gradientUnits="userSpaceOnUse">
<stop stop-color="#FDFCA4"/>
<stop offset="1" stop-color="#D9AD49"/>
</linearGradient>
<linearGradient id="paint170_linear_185_3640" x1="1126.04" y1="624.618" x2="1132.08" y2="624.849" gradientUnits="userSpaceOnUse">
<stop stop-color="#FDFCA4"/>
<stop offset="1" stop-color="#D9AD49"/>
</linearGradient>
<linearGradient id="paint171_linear_185_3640" x1="1268.52" y1="745.062" x2="1274.56" y2="745.294" gradientUnits="userSpaceOnUse">
<stop stop-color="#FDFCA4"/>
<stop offset="1" stop-color="#D9AD49"/>
</linearGradient>
<linearGradient id="paint172_linear_185_3640" x1="1287.99" y1="834.277" x2="1294.03" y2="834.509" gradientUnits="userSpaceOnUse">
<stop stop-color="#FDFCA4"/>
<stop offset="1" stop-color="#D9AD49"/>
</linearGradient>
<linearGradient id="paint173_linear_185_3640" x1="1195.92" y1="677.608" x2="1201.96" y2="677.84" gradientUnits="userSpaceOnUse">
<stop stop-color="#FDFCA4"/>
<stop offset="1" stop-color="#D9AD49"/>
</linearGradient>
<linearGradient id="paint174_linear_185_3640" x1="1262.33" y1="675.043" x2="1268.37" y2="675.275" gradientUnits="userSpaceOnUse">
<stop stop-color="#FDFCA4"/>
<stop offset="1" stop-color="#D9AD49"/>
</linearGradient>
<linearGradient id="paint175_linear_185_3640" x1="1317.12" y1="813.298" x2="1323.16" y2="813.53" gradientUnits="userSpaceOnUse">
<stop stop-color="#FDFCA4"/>
<stop offset="1" stop-color="#D9AD49"/>
</linearGradient>
<linearGradient id="paint176_linear_185_3640" x1="1214.03" y1="970.117" x2="1216.52" y2="970.213" gradientUnits="userSpaceOnUse">
<stop stop-color="#FDFCA4"/>
<stop offset="1" stop-color="#D9AD49"/>
</linearGradient>
<linearGradient id="paint177_linear_185_3640" x1="1302.93" y1="1009.21" x2="1308.97" y2="1009.44" gradientUnits="userSpaceOnUse">
<stop stop-color="#FDFCA4"/>
<stop offset="1" stop-color="#D9AD49"/>
</linearGradient>
<linearGradient id="paint178_linear_185_3640" x1="1313.04" y1="983.852" x2="1319.08" y2="984.083" gradientUnits="userSpaceOnUse">
<stop stop-color="#FDFCA4"/>
<stop offset="1" stop-color="#D9AD49"/>
</linearGradient>
<linearGradient id="paint179_linear_185_3640" x1="1172.82" y1="606.066" x2="1178.86" y2="606.298" gradientUnits="userSpaceOnUse">
<stop stop-color="#FDFCA4"/>
<stop offset="1" stop-color="#D9AD49"/>
</linearGradient>
<linearGradient id="paint180_linear_185_3640" x1="1212.52" y1="489.094" x2="1215.01" y2="489.189" gradientUnits="userSpaceOnUse">
<stop stop-color="#FDFCA4"/>
<stop offset="1" stop-color="#D9AD49"/>
</linearGradient>
<linearGradient id="paint181_linear_185_3640" x1="1141.13" y1="859.634" x2="1143.62" y2="859.729" gradientUnits="userSpaceOnUse">
<stop stop-color="#FDFCA4"/>
<stop offset="1" stop-color="#D9AD49"/>
</linearGradient>
<linearGradient id="paint182_linear_185_3640" x1="1104" y1="723.794" x2="1106.49" y2="723.889" gradientUnits="userSpaceOnUse">
<stop stop-color="#FDFCA4"/>
<stop offset="1" stop-color="#D9AD49"/>
</linearGradient>
<linearGradient id="paint183_linear_185_3640" x1="1179.16" y1="768.749" x2="1181.65" y2="768.843" gradientUnits="userSpaceOnUse">
<stop stop-color="#FDFCA4"/>
<stop offset="1" stop-color="#D9AD49"/>
</linearGradient>
<linearGradient id="paint184_linear_185_3640" x1="1209.05" y1="751.867" x2="1212.96" y2="752.017" gradientUnits="userSpaceOnUse">
<stop stop-color="#FDFCA4"/>
<stop offset="1" stop-color="#D9AD49"/>
</linearGradient>
<linearGradient id="paint185_linear_185_3640" x1="1147.77" y1="612.104" x2="1150.26" y2="612.199" gradientUnits="userSpaceOnUse">
<stop stop-color="#FDFCA4"/>
<stop offset="1" stop-color="#D9AD49"/>
</linearGradient>
<linearGradient id="paint186_linear_185_3640" x1="1288.29" y1="496.791" x2="1290.78" y2="496.886" gradientUnits="userSpaceOnUse">
<stop stop-color="#FDFCA4"/>
<stop offset="1" stop-color="#D9AD49"/>
</linearGradient>
<linearGradient id="paint187_linear_185_3640" x1="1244.22" y1="979.324" x2="1246.7" y2="979.42" gradientUnits="userSpaceOnUse">
<stop stop-color="#FDFCA4"/>
<stop offset="1" stop-color="#D9AD49"/>
</linearGradient>
<clipPath id="clip0_185_3640">
<rect width="1366" height="1024" fill="white"/>
</clipPath>
</defs>
</svg>
