<svg width="1162" height="26" viewBox="0 0 1162 26" fill="none" xmlns="http://www.w3.org/2000/svg">
<path d="M0.333333 23C0.333333 24.4728 1.52724 25.6667 3 25.6667C4.47276 25.6667 5.66667 24.4728 5.66667 23C5.66667 21.5272 4.47276 20.3333 3 20.3333C1.52724 20.3333 0.333333 21.5272 0.333333 23ZM1135.5 23V23.5H1135.68L1135.82 23.3808L1135.5 23ZM1156.33 3C1156.33 4.47276 1157.53 5.66667 1159 5.66667C1160.47 5.66667 1161.67 4.47276 1161.67 3C1161.67 1.52724 1160.47 0.333333 1159 0.333333C1157.53 0.333333 1156.33 1.52724 1156.33 3ZM3 23.5H401V22.5H3V23.5ZM401 23.5H799V22.5H401V23.5ZM799 23.5H1135.5V22.5H799V23.5ZM1135.82 23.3808L1159.32 3.38077L1158.68 2.61923L1135.18 22.6192L1135.82 23.3808Z" fill="url(#paint0_linear_185_3965)"/>
<defs>
<linearGradient id="paint0_linear_185_3965" x1="3" y1="3" x2="233.413" y2="513.796" gradientUnits="userSpaceOnUse">
<stop stop-color="#FDFCA4"/>
<stop offset="1" stop-color="#D9AD49"/>
</linearGradient>
</defs>
</svg>
