<svg width="20" height="20" viewBox="0 0 20 20" fill="none" xmlns="http://www.w3.org/2000/svg">
<mask id="mask0_43_1330" style="mask-type:luminance" maskUnits="userSpaceOnUse" x="7" y="3" width="9" height="9">
<path d="M11.4598 11.8889C13.7689 11.8889 15.6408 10.017 15.6408 7.70786C15.6408 5.39876 13.7689 3.52686 11.4598 3.52686C9.15071 3.52686 7.27881 5.39876 7.27881 7.70786C7.27881 10.017 9.15071 11.8889 11.4598 11.8889Z" fill="white"/>
</mask>
<g mask="url(#mask0_43_1330)">
<mask id="mask1_43_1330" style="mask-type:luminance" maskUnits="userSpaceOnUse" x="7" y="5" width="9" height="8">
<path d="M7.04492 5.43337H15.8786V12.0586H7.04492V5.43337Z" fill="white"/>
</mask>
<g mask="url(#mask1_43_1330)">
<rect x="6.99268" y="5.14111" width="8.9573" height="7.0139" fill="#FFC907"/>
</g>
</g>
<mask id="mask2_43_1330" style="mask-type:luminance" maskUnits="userSpaceOnUse" x="3" y="5" width="14" height="10">
<path d="M15.1071 14.2598H4.60303C3.90433 13.4278 3.39937 12.4264 3.15827 11.3267H9.41709C10.0213 11.6688 10.7188 11.8642 11.463 11.8642C12.2074 11.8642 12.9058 11.6688 13.5098 11.3267H16.5517C16.3106 12.4264 15.8056 13.4279 15.1069 14.2598M16.5536 8.39249H15.5643C15.6017 8.1695 15.6207 7.94194 15.6207 7.70848C15.6207 6.87933 15.3787 6.1084 14.9603 5.45944H15.1155V5.45849C15.8122 6.29231 16.3152 7.29405 16.5536 8.39249ZM3.15625 8.39249C3.39459 7.29405 3.89764 6.29231 4.59434 5.45849C4.59434 5.45944 4.59434 5.45944 4.59337 5.45944H7.9677C7.54925 6.1084 7.3073 6.87933 7.3073 7.70848C7.3073 7.94194 7.32638 8.1695 7.36343 8.39249H3.15625Z" fill="white"/>
</mask>
<g mask="url(#mask2_43_1330)">
<mask id="mask3_43_1330" style="mask-type:luminance" maskUnits="userSpaceOnUse" x="2" y="5" width="15" height="10">
<path d="M2.92285 5.4406H16.5841V14.4668H2.92285V5.4406Z" fill="white"/>
</mask>
<g mask="url(#mask3_43_1330)">
<path d="M3 9.85468C3 13.6406 6.06866 16.709 9.85552 16.709C13.6407 16.709 16.7101 13.6406 16.7101 9.85468C16.7101 6.06856 13.6407 3.00014 9.85552 3.00014C6.06866 3.00014 3 6.06856 3 9.85468Z" fill="#FFC907"/>
</g>
</g>
<mask id="mask4_43_1330" style="mask-type:luminance" maskUnits="userSpaceOnUse" x="3" y="3" width="14" height="14">
<path d="M3 9.85468C3 13.6406 6.06866 16.709 9.85552 16.709C13.6407 16.709 16.7101 13.6406 16.7101 9.85468C16.7101 6.06856 13.6407 3.00014 9.85552 3.00014C6.06866 3.00014 3 6.06856 3 9.85468Z" fill="white"/>
</mask>
<g mask="url(#mask4_43_1330)">
<path d="M16.7091 8.39317H3V11.3272H16.7091V8.39317ZM16.7091 14.2602H3V16.7075H16.7091V14.2602ZM16.7091 5.4599H3V3.00136H16.7091V5.4599Z" fill="black"/>
</g>
</svg>
