<svg width="20" height="20" viewBox="0 0 20 20" fill="none" xmlns="http://www.w3.org/2000/svg">
<path d="M10.9974 2.81201V9.86183C10.9974 10.1841 10.7557 10.4258 10.4334 10.4258H9.5874C9.54712 10.4258 9.50684 10.4661 9.50684 10.5064V16.4282C9.70826 16.4282 9.90968 16.4685 10.1514 16.4685C13.9381 16.4685 16.9998 13.4069 16.9998 9.62012C16.9998 6.11535 14.3813 3.21486 10.9974 2.81201ZM10.8362 13.3666C10.3528 13.3666 9.99025 12.9637 9.99025 12.5206C9.99025 12.0372 10.3931 11.6746 10.8362 11.6746C11.3196 11.6746 11.6822 12.0775 11.6822 12.5206C11.7225 12.9637 11.3196 13.3666 10.8362 13.3666ZM12.8505 13.3666C12.367 13.3666 12.0045 12.9637 12.0045 12.5206C12.0045 12.0372 12.4073 11.6746 12.8505 11.6746C13.3339 11.6746 13.6964 12.0775 13.6964 12.5206C13.6964 12.9637 13.3339 13.3666 12.8505 13.3666ZM14.8647 13.3666C14.3813 13.3666 14.0187 12.9637 14.0187 12.5206C14.0187 12.0372 14.4216 11.6746 14.8647 11.6746C15.3481 11.6746 15.7107 12.0775 15.7107 12.5206C15.7107 12.9637 15.3481 13.3666 14.8647 13.3666Z" fill="#00985F"/>
<path fill-rule="evenodd" clip-rule="evenodd" d="M9.84839 2.77148C6.06163 2.77148 3 5.83312 3 9.61988C3 12.9232 5.29623 15.6626 8.39814 16.3071V10.1436C8.39814 9.86159 8.63985 9.61988 8.92185 9.57959H9.76782C9.80811 9.57959 9.84839 9.53931 9.84839 9.49902V2.77148ZM7.67302 7.56536C7.67302 8.00849 8.03558 8.41134 8.519 8.41134C9.00242 8.41134 9.36498 8.00849 9.36498 7.56536C9.36498 7.12223 9.00242 6.71938 8.519 6.71938C8.07587 6.71938 7.67302 7.08194 7.67302 7.56536Z" fill="#00985F"/>
</svg>
