<svg width="20" height="20" viewBox="0 0 20 20" fill="none" xmlns="http://www.w3.org/2000/svg">
<path d="M16.8748 2.2915H3.12484C2.90382 2.2915 2.69186 2.3793 2.53558 2.53558C2.3793 2.69186 2.2915 2.90382 2.2915 3.12484V16.8748C2.2915 17.0958 2.3793 17.3078 2.53558 17.4641C2.69186 17.6204 2.90382 17.7082 3.12484 17.7082H16.8748C17.0958 17.7082 17.3078 17.6204 17.4641 17.4641C17.6204 17.3078 17.7082 17.0958 17.7082 16.8748V3.12484C17.7082 2.90382 17.6204 2.69186 17.4641 2.53558C17.3078 2.3793 17.0958 2.2915 16.8748 2.2915Z" fill="#FC2E2E"/>
<path d="M9.99991 3.5752C13.6999 3.5752 17.9582 16.4919 9.99991 16.4919C2.04158 16.4919 6.29991 3.5752 9.99991 3.5752Z" fill="white"/>
</svg>
