<svg width="20" height="20" viewBox="0 0 20 20" fill="none" xmlns="http://www.w3.org/2000/svg">
<path d="M3 9.11289V9.97909L5.0552 9.72206V8.78453L3 9.11289ZM3.65585 10.0317V13H4.40828V9.94435L3.65585 10.0317ZM5.33277 8.74014V13H6.12561V8.61345L5.33277 8.74014ZM6.27332 8.58978V9.56975L7.4182 9.42654V8.40688L6.27332 8.58978ZM6.27332 10.2991V11.2968L7.02486 11.2502V10.2255L6.27332 10.2991ZM6.27332 12.0161V13H7.4182V11.9768L6.27332 12.0161ZM10.379 7.93226V13H11.4183V7.76621L10.379 7.93231M11.6124 7.73516V8.90084L13.1271 8.71149V7.49307L11.6124 7.73516ZM11.6124 9.77751V10.9648L12.6052 10.9032V9.68086L11.6124 9.77751ZM11.6124 11.8326V13H13.1271V11.7806L11.6124 11.8326ZM7.72112 8.35839V13H8.62427V8.21407L7.72112 8.35844M8.79283 11.9297V13H10.1038V11.8847L8.79283 11.9297ZM16.5229 7.43576C16.1945 7.0829 15.7128 6.93816 15.186 7.02421V8.3171C15.3993 8.30363 15.5722 8.39364 15.6492 8.57487C15.7708 8.86061 15.6454 9.28933 15.3494 9.68653C14.8925 10.2995 13.6777 11.5541 13.6777 11.5541L15.4217 11.4889C16.4872 10.3052 16.8699 9.58678 16.9386 8.69008C16.9746 8.21569 16.8232 7.75855 16.5229 7.43576ZM17 13V11.6472L13.4627 11.7683M13.4627 11.7683L13.4631 13H17M14.9827 7.05319C13.9551 7.30206 13.4505 8.16161 13.5087 9.56417L14.6043 9.45362C14.5544 8.66124 14.7676 8.47328 14.9832 8.36993L14.9827 7.05323" fill="white"/>
</svg>
