<svg width="15" height="16" viewBox="0 0 15 16" fill="none" xmlns="http://www.w3.org/2000/svg">
<path d="M1.3335 1.3335H2.6885C3.161 1.3335 3.39683 1.3335 3.58516 1.43683C3.66281 1.47957 3.73314 1.53443 3.7935 1.59933C3.93933 1.75683 3.99683 1.986 4.111 2.44433L4.26266 3.05016C4.34683 3.38683 4.38933 3.55516 4.45433 3.69683C4.56544 3.93857 4.73281 4.15021 4.94245 4.31403C5.15209 4.47785 5.3979 4.58911 5.65933 4.6385C5.81266 4.66683 5.986 4.66683 6.3335 4.66683" stroke="url(#paint0_linear_3105_19782)" stroke-linecap="round"/>
<path d="M13.0004 12.167H4.29202C4.17119 12.167 4.11035 12.167 4.06369 12.162C3.94798 12.1491 3.83626 12.1121 3.73574 12.0533C3.63521 11.9946 3.5481 11.9155 3.48003 11.821C3.41196 11.7266 3.36444 11.6189 3.34052 11.505C3.31661 11.391 3.31684 11.2733 3.34119 11.1595C3.36035 11.0857 3.38287 11.0129 3.40869 10.9412C3.45202 10.8128 3.47285 10.7487 3.49702 10.6912C3.61565 10.407 3.81066 10.1613 4.06043 9.98127C4.3102 9.80122 4.60496 9.69388 4.91202 9.67116C4.97369 9.66699 5.04202 9.66699 5.17619 9.66699H9.66702" stroke="url(#paint1_linear_3105_19782)" stroke-linecap="round" stroke-linejoin="round"/>
<path d="M10.1069 9.66699H7.14526C6.13193 9.66699 5.62526 9.66699 5.23443 9.43783C5.06965 9.34086 4.92279 9.21626 4.80026 9.06949C4.5086 8.72116 4.42526 8.22116 4.25943 7.22199C4.09026 6.20949 4.0061 5.70283 4.20693 5.32783C4.29048 5.17133 4.40638 5.0344 4.54693 4.92616C4.8836 4.66699 5.39693 4.66699 6.4236 4.66699H11.9703C13.1786 4.66699 13.7828 4.66699 14.0278 5.06199C14.2719 5.45783 14.0011 5.99783 13.4611 7.07866L13.0886 7.82449C12.6403 8.72116 12.4161 9.16949 12.0136 9.41783C11.6103 9.66699 11.1094 9.66699 10.1069 9.66699Z" stroke="url(#paint2_linear_3105_19782)" stroke-linecap="round"/>
<path d="M12.1668 15.5002C12.6271 15.5002 13.0002 15.1271 13.0002 14.6668C13.0002 14.2066 12.6271 13.8335 12.1668 13.8335C11.7066 13.8335 11.3335 14.2066 11.3335 14.6668C11.3335 15.1271 11.7066 15.5002 12.1668 15.5002Z" fill="url(#paint3_linear_3105_19782)"/>
<path d="M5.50033 15.5002C5.96056 15.5002 6.33366 15.1271 6.33366 14.6668C6.33366 14.2066 5.96056 13.8335 5.50033 13.8335C5.04009 13.8335 4.66699 14.2066 4.66699 14.6668C4.66699 15.1271 5.04009 15.5002 5.50033 15.5002Z" fill="url(#paint4_linear_3105_19782)"/>
<defs>
<linearGradient id="paint0_linear_3105_19782" x1="1.3335" y1="1.3335" x2="7.20844" y2="1.67149" gradientUnits="userSpaceOnUse">
<stop stop-color="#FDFCA4"/>
<stop offset="1" stop-color="#D9AD49"/>
</linearGradient>
<linearGradient id="paint1_linear_3105_19782" x1="3.32275" y1="9.66699" x2="14.4854" y2="11.3243" gradientUnits="userSpaceOnUse">
<stop stop-color="#FDFCA4"/>
<stop offset="1" stop-color="#D9AD49"/>
</linearGradient>
<linearGradient id="paint2_linear_3105_19782" x1="4.08984" y1="4.66699" x2="15.8425" y2="5.57107" gradientUnits="userSpaceOnUse">
<stop stop-color="#FDFCA4"/>
<stop offset="1" stop-color="#D9AD49"/>
</linearGradient>
<linearGradient id="paint3_linear_3105_19782" x1="11.3335" y1="13.8335" x2="13.2954" y2="13.9087" gradientUnits="userSpaceOnUse">
<stop stop-color="#FDFCA4"/>
<stop offset="1" stop-color="#D9AD49"/>
</linearGradient>
<linearGradient id="paint4_linear_3105_19782" x1="4.66699" y1="13.8335" x2="6.6289" y2="13.9087" gradientUnits="userSpaceOnUse">
<stop stop-color="#FDFCA4"/>
<stop offset="1" stop-color="#D9AD49"/>
</linearGradient>
</defs>
</svg>
