<svg width="10" height="11" viewBox="0 0 10 11" fill="none" xmlns="http://www.w3.org/2000/svg">
<path d="M5 11C3.71563 11 2.64463 10.5581 1.787 9.67436C0.929375 8.7906 0.500375 7.6906 0.5 6.37436C0.5 5.79146 0.63125 5.20855 0.89375 4.62564C1.15625 4.04274 1.48437 3.48334 1.87812 2.94744C2.27187 2.41154 2.69844 1.90855 3.15781 1.43847C3.61719 0.968382 4.04375 0.559408 4.4375 0.211545C4.5125 0.136331 4.59931 0.0823652 4.69794 0.0496473C4.79656 0.0169294 4.89725 0.000382336 5 6.26779e-06C5.10275 -0.0003698 5.20363 0.0161772 5.30263 0.0496473C5.40163 0.0831174 5.48825 0.137083 5.5625 0.211545C5.95625 0.559408 6.38281 0.968382 6.84219 1.43847C7.30156 1.90855 7.72812 2.41154 8.12187 2.94744C8.51562 3.48334 8.84375 4.04274 9.10625 4.62564C9.36875 5.20855 9.5 5.79146 9.5 6.37436C9.5 7.6906 9.07119 8.7906 8.21356 9.67436C7.35594 10.5581 6.28475 11 5 11ZM6.40625 8.74359C6.64062 8.74359 6.83994 8.66142 7.00419 8.49708C7.16844 8.33274 7.25037 8.13286 7.25 7.89744C7.24963 7.66202 7.16769 7.46233 7.00419 7.29836C6.84069 7.1344 6.64138 7.05204 6.40625 7.05128C6.17112 7.05053 5.972 7.13289 5.80887 7.29836C5.64575 7.46383 5.56363 7.66352 5.5625 7.89744C5.56137 8.13135 5.6435 8.33123 5.80887 8.49708C5.97425 8.66292 6.17337 8.7451 6.40625 8.74359ZM3.17188 8.32051C3.28438 8.43333 3.41562 8.48974 3.56562 8.48974C3.71562 8.48974 3.84687 8.43333 3.95937 8.32051L6.82812 5.44359C6.94063 5.33077 6.99688 5.19915 6.99688 5.04872C6.99688 4.89829 6.94063 4.76667 6.82812 4.65385C6.71562 4.54103 6.58213 4.48462 6.42763 4.48462C6.27313 4.48462 6.13944 4.54103 6.02656 4.65385L3.17188 7.51667C3.05937 7.62949 3.00312 7.76356 3.00312 7.91887C3.00312 8.07419 3.05937 8.20807 3.17188 8.32051ZM3.59375 5.92308C3.82812 5.92308 4.02744 5.84091 4.19169 5.67657C4.35594 5.51223 4.43787 5.31235 4.4375 5.07693C4.43713 4.84151 4.35519 4.64182 4.19169 4.47785C4.02819 4.31388 3.82888 4.23153 3.59375 4.23077C3.35862 4.23002 3.1595 4.31238 2.99637 4.47785C2.83325 4.64332 2.75113 4.84301 2.75 5.07693C2.74887 5.31084 2.831 5.51072 2.99637 5.67657C3.16175 5.84241 3.36087 5.92458 3.59375 5.92308Z" fill="url(#paint0_linear_3105_20330)"/>
<defs>
<linearGradient id="paint0_linear_3105_20330" x1="5.28846" y1="0" x2="5.28846" y2="11" gradientUnits="userSpaceOnUse">
<stop stop-color="#FDFCA4"/>
<stop offset="1" stop-color="#D9AD49"/>
</linearGradient>
</defs>
</svg>
