<svg width="24" height="24" viewBox="0 0 24 24" fill="none" xmlns="http://www.w3.org/2000/svg">
<path d="M17.2 16.5H6.8C6.58 16.5 6.4 16.6687 6.4 16.875V17.625C6.4 17.8313 6.58 18 6.8 18H17.2C17.42 18 17.6 17.8313 17.6 17.625V16.875C17.6 16.6687 17.42 16.5 17.2 16.5ZM18.8 9C18.1375 9 17.6 9.50391 17.6 10.125C17.6 10.2914 17.64 10.4461 17.71 10.5891L15.9 11.6062C15.515 11.8219 15.0175 11.7 14.795 11.3344L12.7575 7.99219C13.025 7.78594 13.2 7.47656 13.2 7.125C13.2 6.50391 12.6625 6 12 6C11.3375 6 10.8 6.50391 10.8 7.125C10.8 7.47656 10.975 7.78594 11.2425 7.99219L9.205 11.3344C8.9825 11.7 8.4825 11.8219 8.1 11.6062L6.2925 10.5891C6.36 10.4484 6.4025 10.2914 6.4025 10.125C6.4025 9.50391 5.865 9 5.2025 9C4.54 9 4 9.50391 4 10.125C4 10.7461 4.5375 11.25 5.2 11.25C5.265 11.25 5.33 11.2406 5.3925 11.2312L7.2 15.75H16.8L18.6075 11.2312C18.67 11.2406 18.735 11.25 18.8 11.25C19.4625 11.25 20 10.7461 20 10.125C20 9.50391 19.4625 9 18.8 9Z" fill="white"/>
<path d="M17.2 16.5H6.8C6.58 16.5 6.4 16.6687 6.4 16.875V17.625C6.4 17.8313 6.58 18 6.8 18H17.2C17.42 18 17.6 17.8313 17.6 17.625V16.875C17.6 16.6687 17.42 16.5 17.2 16.5ZM18.8 9C18.1375 9 17.6 9.50391 17.6 10.125C17.6 10.2914 17.64 10.4461 17.71 10.5891L15.9 11.6062C15.515 11.8219 15.0175 11.7 14.795 11.3344L12.7575 7.99219C13.025 7.78594 13.2 7.47656 13.2 7.125C13.2 6.50391 12.6625 6 12 6C11.3375 6 10.8 6.50391 10.8 7.125C10.8 7.47656 10.975 7.78594 11.2425 7.99219L9.205 11.3344C8.9825 11.7 8.4825 11.8219 8.1 11.6062L6.2925 10.5891C6.36 10.4484 6.4025 10.2914 6.4025 10.125C6.4025 9.50391 5.865 9 5.2025 9C4.54 9 4 9.50391 4 10.125C4 10.7461 4.5375 11.25 5.2 11.25C5.265 11.25 5.33 11.2406 5.3925 11.2312L7.2 15.75H16.8L18.6075 11.2312C18.67 11.2406 18.735 11.25 18.8 11.25C19.4625 11.25 20 10.7461 20 10.125C20 9.50391 19.4625 9 18.8 9Z" fill="url(#paint0_linear_43_581)"/>
<defs>
<linearGradient id="paint0_linear_43_581" x1="12.5128" y1="6" x2="12.5128" y2="18" gradientUnits="userSpaceOnUse">
<stop stop-color="#FDFCA4"/>
<stop offset="1" stop-color="#D9AD49"/>
</linearGradient>
</defs>
</svg>
