<svg width="24" height="24" viewBox="0 0 24 24" fill="none" xmlns="http://www.w3.org/2000/svg">
<path d="M12 6.375C12.1591 6.375 12.3117 6.43426 12.4243 6.53975C12.5368 6.64524 12.6 6.78832 12.6 6.9375V9.1875C12.6 9.33668 12.5368 9.47976 12.4243 9.58525C12.3117 9.69074 12.1591 9.75 12 9.75C11.8409 9.75 11.6883 9.69074 11.5757 9.58525C11.4632 9.47976 11.4 9.33668 11.4 9.1875V6.9375C11.4 6.78832 11.4632 6.64524 11.5757 6.53975C11.6883 6.43426 11.8409 6.375 12 6.375ZM16.8 15.375C16.8 16.5685 16.2943 17.7131 15.3941 18.557C14.4939 19.4009 13.273 19.875 12 19.875C10.727 19.875 9.50606 19.4009 8.60589 18.557C7.70571 17.7131 7.2 16.5685 7.2 15.375V8.625C7.2 7.43153 7.70571 6.28693 8.60589 5.44302C9.50606 4.59911 10.727 4.125 12 4.125C13.273 4.125 14.4939 4.59911 15.3941 5.44302C16.2943 6.28693 16.8 7.43153 16.8 8.625V15.375ZM12 3C10.4087 3 8.88258 3.59263 7.75736 4.64752C6.63214 5.70242 6 7.13316 6 8.625V15.375C6 16.8668 6.63214 18.2976 7.75736 19.3525C8.88258 20.4074 10.4087 21 12 21C13.5913 21 15.1174 20.4074 16.2426 19.3525C17.3679 18.2976 18 16.8668 18 15.375V8.625C18 7.13316 17.3679 5.70242 16.2426 4.64752C15.1174 3.59263 13.5913 3 12 3Z" fill="#FDFCA4"/>
</svg>
