<svg width="72" height="88" viewBox="0 0 72 88" fill="none" xmlns="http://www.w3.org/2000/svg">
<g filter="url(#filter0_dd_185_2221)">
<path d="M8.9434 72.3861V65.2061C8.9434 64.2283 9.27562 63.4061 9.94007 62.7394C10.6045 62.0727 11.4267 61.7416 12.4067 61.7461H15.9934V49.1794H12.4034C11.4256 49.1794 10.6034 48.8472 9.93674 48.1827C9.27007 47.5183 8.93896 46.6961 8.9434 45.7161V38.5394C8.9434 37.5616 9.27562 36.7394 9.94007 36.0727C10.6045 35.4061 11.4267 35.0749 12.4067 35.0794H15.9934V22.5127H12.4034C11.4256 22.5127 10.6034 22.1805 9.93674 21.5161C9.27007 20.8516 8.93896 20.0294 8.9434 19.0494V11.8761C8.9434 10.8983 9.27562 10.0761 9.94007 9.40939C10.6045 8.74273 11.4267 8.41162 12.4067 8.41606H22.9167C23.8945 8.41606 24.7167 8.74828 25.3834 9.41273C26.0501 10.0772 26.3812 10.8994 26.3767 11.8794V19.0561C26.3767 20.0338 26.0445 20.8561 25.3801 21.5227C24.7156 22.1894 23.8934 22.5205 22.9134 22.5161H19.3267V35.0827H22.9167C23.8945 35.0827 24.7167 35.4149 25.3834 36.0794C26.0501 36.7438 26.3812 37.5661 26.3767 38.5461V40.4661H42.2767V38.5427C42.2767 37.5649 42.609 36.7427 43.2734 36.0761C43.9378 35.4094 44.7601 35.0783 45.7401 35.0827H56.2501C57.2278 35.0827 58.0501 35.4149 58.7167 36.0794C59.3834 36.7438 59.7145 37.5661 59.7101 38.5461V45.7227C59.7101 46.7005 59.3778 47.5227 58.7134 48.1894C58.049 48.8561 57.2267 49.1872 56.2467 49.1827H45.7367C44.759 49.1827 43.9367 48.8505 43.2701 48.1861C42.6034 47.5216 42.2723 46.6994 42.2767 45.7194V43.7961H26.3767V45.7194C26.3767 46.6972 26.0445 47.5194 25.3801 48.1861C24.7156 48.8527 23.8934 49.1838 22.9134 49.1794H19.3267V61.7461H22.9167C23.8945 61.7461 24.7167 62.0783 25.3834 62.7427C26.0501 63.4072 26.3812 64.2294 26.3767 65.2094V72.3861C26.3767 73.3638 26.0445 74.1861 25.3801 74.8527C24.7156 75.5194 23.8934 75.8505 22.9134 75.8461H12.4067C11.429 75.8461 10.6067 75.5138 9.94007 74.8494C9.2734 74.1849 8.94229 73.3627 8.94674 72.3827" fill="url(#paint0_linear_185_2221)"/>
</g>
<defs>
<filter id="filter0_dd_185_2221" x="0.943359" y="0.416016" width="70.7676" height="87.4297" filterUnits="userSpaceOnUse" color-interpolation-filters="sRGB">
<feFlood flood-opacity="0" result="BackgroundImageFix"/>
<feColorMatrix in="SourceAlpha" type="matrix" values="0 0 0 0 0 0 0 0 0 0 0 0 0 0 0 0 0 0 127 0" result="hardAlpha"/>
<feOffset dx="8" dy="8"/>
<feGaussianBlur stdDeviation="2"/>
<feComposite in2="hardAlpha" operator="out"/>
<feColorMatrix type="matrix" values="0 0 0 0 1 0 0 0 0 1 0 0 0 0 1 0 0 0 0.04 0"/>
<feBlend mode="normal" in2="BackgroundImageFix" result="effect1_dropShadow_185_2221"/>
<feColorMatrix in="SourceAlpha" type="matrix" values="0 0 0 0 0 0 0 0 0 0 0 0 0 0 0 0 0 0 127 0" result="hardAlpha"/>
<feOffset/>
<feGaussianBlur stdDeviation="4"/>
<feComposite in2="hardAlpha" operator="out"/>
<feColorMatrix type="matrix" values="0 0 0 0 0.929412 0 0 0 0 0.85098 0 0 0 0 0.482353 0 0 0 0.16 0"/>
<feBlend mode="normal" in2="effect1_dropShadow_185_2221" result="effect2_dropShadow_185_2221"/>
<feBlend mode="normal" in="SourceGraphic" in2="effect2_dropShadow_185_2221" result="shape"/>
</filter>
<linearGradient id="paint0_linear_185_2221" x1="8.94336" y1="75.5498" x2="70.5316" y2="21.0465" gradientUnits="userSpaceOnUse">
<stop stop-color="#FDFCA4"/>
<stop offset="1" stop-color="#D9AD49"/>
</linearGradient>
</defs>
</svg>
