<svg width="16" height="16" viewBox="0 0 16 16" fill="none" xmlns="http://www.w3.org/2000/svg">
<path d="M1.23077 13.7127C1.23077 14.3193 1.49011 14.9011 1.95174 15.3301C2.41337 15.759 3.03947 16 3.69231 16H7.23077C7.27157 16 7.3107 15.9849 7.33956 15.9581C7.36841 15.9313 7.38462 15.895 7.38462 15.857V9.2811C7.38462 9.24319 7.36841 9.20683 7.33956 9.18002C7.3107 9.15321 7.27157 9.13815 7.23077 9.13815H1.53846C1.45686 9.13815 1.37859 9.16827 1.32089 9.22189C1.26319 9.27551 1.23077 9.34823 1.23077 9.42406V13.7127ZM7.38462 7.85155V3.99176H8.61538V7.85155C8.61538 7.88947 8.63159 7.92583 8.66045 7.95264C8.6893 7.97945 8.72843 7.99451 8.76923 7.99451H14.1538C14.3635 7.99452 14.5716 7.96128 14.7692 7.89622C15.1289 7.77758 15.4402 7.55847 15.6605 7.26895C15.8809 6.97942 15.9995 6.63365 16 6.27904V5.70722C16 5.25225 15.8055 4.81592 15.4593 4.49421C15.1131 4.1725 14.6435 3.99176 14.1538 3.99176H12.5946C12.5812 3.99156 12.5681 3.98811 12.5566 3.98176C12.5451 3.97541 12.5355 3.96636 12.5289 3.95553C12.5223 3.9447 12.5189 3.93245 12.5189 3.92C12.519 3.90755 12.5225 3.89533 12.5292 3.88454C12.8853 3.3259 13.001 2.66283 12.853 2.02828C12.705 1.39373 12.3044 0.834611 11.7314 0.46304C11.1584 0.091469 10.4554 -0.0650856 9.76335 0.0247675C9.07133 0.114621 8.44145 0.444239 8 0.947528C7.55855 0.444239 6.92867 0.114621 6.23665 0.0247675C5.54463 -0.0650856 4.84164 0.091469 4.26863 0.46304C3.69563 0.834611 3.29497 1.39373 3.147 2.02828C2.99902 2.66283 3.11468 3.3259 3.47077 3.88454C3.47747 3.89533 3.48102 3.90755 3.48108 3.92C3.48113 3.93245 3.47769 3.9447 3.47108 3.95553C3.46448 3.96636 3.45494 3.97541 3.44342 3.98176C3.43189 3.98811 3.41878 3.99156 3.40538 3.99176H1.84615C1.35652 3.99176 0.886947 4.1725 0.540726 4.49421C0.194505 4.81592 0 5.25225 0 5.70722V6.27904C0.000543163 6.63365 0.119117 6.97942 0.339463 7.26895C0.559809 7.55847 0.87114 7.77758 1.23077 7.89622C1.42839 7.96128 1.6365 7.99452 1.84615 7.99451H7.23077C7.27157 7.99451 7.3107 7.97945 7.33956 7.95264C7.36841 7.92583 7.38462 7.88947 7.38462 7.85155ZM8.61538 2.56221C8.61538 2.27947 8.70561 2.00308 8.87466 1.76799C9.04371 1.5329 9.28399 1.34967 9.5651 1.24147C9.84622 1.13327 10.1556 1.10496 10.454 1.16012C10.7524 1.21528 11.0265 1.35144 11.2417 1.55136C11.4569 1.75129 11.6034 2.00601 11.6627 2.28332C11.7221 2.56062 11.6916 2.84806 11.5752 3.10927C11.4588 3.37049 11.2616 3.59376 11.0086 3.75084C10.7556 3.90792 10.4581 3.99176 10.1538 3.99176H8.61538V2.56221ZM5.73615 1.13623C5.94692 1.12219 6.15854 1.14865 6.35782 1.21395C6.5571 1.27925 6.73977 1.382 6.89443 1.51579C7.0491 1.64958 7.17244 1.81154 7.25678 1.99158C7.34111 2.17161 7.38463 2.36586 7.38462 2.56221V3.99176H5.84615C5.44834 3.99081 5.06639 3.84671 4.78046 3.58971C4.49453 3.3327 4.32686 2.98277 4.31263 2.61336C4.29839 2.24394 4.43871 1.88377 4.70413 1.60842C4.96955 1.33307 5.33943 1.16397 5.73615 1.13659V1.13623ZM8.76923 16H12.3077C12.9605 16 13.5866 15.759 14.0483 15.3301C14.5099 14.9011 14.7692 14.3193 14.7692 13.7127V9.42406C14.7692 9.34823 14.7368 9.27551 14.6791 9.22189C14.6214 9.16827 14.5431 9.13815 14.4615 9.13815H8.76923C8.72843 9.13815 8.6893 9.15321 8.66045 9.18002C8.63159 9.20683 8.61538 9.24319 8.61538 9.2811V15.857C8.61538 15.895 8.63159 15.9313 8.66045 15.9581C8.6893 15.9849 8.72843 16 8.76923 16Z" fill="url(#paint0_linear_1398_110)"/>
<defs>
<linearGradient id="paint0_linear_1398_110" x1="0" y1="0" x2="18.8343" y2="0.722376" gradientUnits="userSpaceOnUse">
<stop stop-color="#FDFCA4"/>
<stop offset="1" stop-color="#D9AD49"/>
</linearGradient>
</defs>
</svg>
