<svg width="28" height="28" viewBox="0 0 28 28" fill="none" xmlns="http://www.w3.org/2000/svg">
<path d="M4.10349 6.05756V6.11503L4.16096 6.10354L5.37935 7.32193H5.10349C4.5512 7.32193 4.10349 7.76965 4.10349 8.32193V20.115C4.10349 20.6673 4.5512 21.115 5.10349 21.115H19.1725L23.8792 25.8218C24.2824 26.225 24.9361 26.225 25.3392 25.8218C25.7423 25.4187 25.7424 24.7653 25.3394 24.3621L4.1332 3.14474C3.72909 2.74064 3.07431 2.73935 2.66862 3.14187C2.26144 3.54587 2.25928 4.2036 2.6638 4.61026L4.10349 6.05756ZM8.02303 11.2415C8.25291 11.0231 8.42533 10.7702 8.54027 10.4828L11.1839 13.1265C11.0575 13.4714 11 13.8392 11 14.2185C11 15.138 11.3679 16.0116 12.0115 16.6553C12.6552 17.2989 13.5288 17.6668 14.4483 17.6668C14.8276 17.6668 15.1954 17.6093 15.5403 17.4829L16.8736 18.8162H8.70119C8.70119 18.207 8.45981 17.6208 8.02303 17.1955C7.59774 16.7587 7.01153 16.5173 6.40234 16.5173V11.9196C7.01153 11.9196 7.59774 11.6783 8.02303 11.2415Z" fill="white"/>
<path fill-rule="evenodd" clip-rule="evenodd" d="M24.8621 21.0001V19.1874H23.0574L24.8621 21.0001ZM22.8851 7.24147H11.1638L21.0782 17.1995H24.8575V9.23402C24.8575 8.13742 23.9752 7.24147 22.8851 7.24147Z" fill="white"/>
</svg>
