<svg width="80" height="80" viewBox="0 0 80 80" fill="none" xmlns="http://www.w3.org/2000/svg">
<g filter="url(#filter0_dd_43_650)">
<path d="M29.1138 37.6456C27.1652 37.6456 25.4366 37.1951 23.9281 36.2942C22.4404 35.3723 21.2671 34.0523 20.4081 32.3342C19.57 30.5951 19.1509 28.5313 19.1509 26.1427C19.1509 23.7542 19.57 21.7008 20.4081 19.9827C21.2671 18.2437 22.4404 16.9237 23.9281 16.0227C25.4366 15.1008 27.1652 14.6399 29.1138 14.6399C31.0623 14.6399 32.7804 15.1008 34.2681 16.0227C35.7766 16.9237 36.95 18.2437 37.7881 19.9827C38.6471 21.7008 39.0766 23.7542 39.0766 26.1427C39.0766 28.5313 38.6471 30.5951 37.7881 32.3342C36.95 34.0523 35.7766 35.3723 34.2681 36.2942C32.7804 37.1951 31.0623 37.6456 29.1138 37.6456ZM29.1138 31.7056C30.79 31.7056 31.6281 29.8513 31.6281 26.1427C31.6281 22.4342 30.79 20.5799 29.1138 20.5799C27.4376 20.5799 26.5995 22.4342 26.5995 26.1427C26.5995 29.8513 27.4376 31.7056 29.1138 31.7056Z" fill="url(#paint0_linear_43_650)"/>
<path d="M50.8744 37.6456C48.9258 37.6456 47.1972 37.1951 45.6887 36.2942C44.201 35.3723 43.0277 34.0523 42.1687 32.3342C41.3306 30.5951 40.9115 28.5313 40.9115 26.1427C40.9115 23.7542 41.3306 21.7008 42.1687 19.9827C43.0277 18.2437 44.201 16.9237 45.6887 16.0227C47.1972 15.1008 48.9258 14.6399 50.8744 14.6399C52.823 14.6399 54.541 15.1008 56.0287 16.0227C57.5372 16.9237 58.7106 18.2437 59.5487 19.9827C60.4077 21.7008 60.8372 23.7542 60.8372 26.1427C60.8372 28.5313 60.4077 30.5951 59.5487 32.3342C58.7106 34.0523 57.5372 35.3723 56.0287 36.2942C54.541 37.1951 52.823 37.6456 50.8744 37.6456ZM50.8744 31.7056C52.5506 31.7056 53.3887 29.8513 53.3887 26.1427C53.3887 22.4342 52.5506 20.5799 50.8744 20.5799C49.1982 20.5799 48.3601 22.4342 48.3601 26.1427C48.3601 29.8513 49.1982 31.7056 50.8744 31.7056Z" fill="url(#paint1_linear_43_650)"/>
<path d="M37.7638 59.9627V65.7142H20.1323V61.157L28.0838 53.8027C28.7752 53.1532 29.2361 52.598 29.4666 52.137C29.6971 51.6761 29.8123 51.2256 29.8123 50.7856C29.8123 50.2408 29.6238 49.8218 29.2466 49.5285C28.8904 49.2142 28.3666 49.057 27.6752 49.057C27.0047 49.057 26.3761 49.2351 25.7895 49.5913C25.2028 49.9475 24.7523 50.4504 24.438 51.0999L18.8438 48.3027C19.6818 46.7313 20.9076 45.4951 22.5209 44.5942C24.1342 43.6723 26.0828 43.2113 28.3666 43.2113C30.1057 43.2113 31.6457 43.4942 32.9866 44.0599C34.3276 44.6256 35.3752 45.4323 36.1295 46.4799C36.8838 47.5275 37.2609 48.7323 37.2609 50.0942C37.2609 51.3094 36.999 52.4513 36.4752 53.5199C35.9723 54.5675 34.9771 55.7618 33.4895 57.1027L30.3466 59.9627H37.7638Z" fill="url(#paint2_linear_43_650)"/>
<path d="M60.6248 61.9427H57.702V65.7142H50.5048V61.9427H39.0963V57.2285L48.4306 43.7142H56.0363L47.7391 56.1913H50.7248V52.8285H57.702V56.1913H60.6248V61.9427Z" fill="url(#paint3_linear_43_650)"/>
</g>
<defs>
<filter id="filter0_dd_43_650" x="10.8438" y="6.63989" width="61.9937" height="71.0742" filterUnits="userSpaceOnUse" color-interpolation-filters="sRGB">
<feFlood flood-opacity="0" result="BackgroundImageFix"/>
<feColorMatrix in="SourceAlpha" type="matrix" values="0 0 0 0 0 0 0 0 0 0 0 0 0 0 0 0 0 0 127 0" result="hardAlpha"/>
<feOffset dx="8" dy="8"/>
<feGaussianBlur stdDeviation="2"/>
<feComposite in2="hardAlpha" operator="out"/>
<feColorMatrix type="matrix" values="0 0 0 0 1 0 0 0 0 1 0 0 0 0 1 0 0 0 0.04 0"/>
<feBlend mode="normal" in2="BackgroundImageFix" result="effect1_dropShadow_43_650"/>
<feColorMatrix in="SourceAlpha" type="matrix" values="0 0 0 0 0 0 0 0 0 0 0 0 0 0 0 0 0 0 127 0" result="hardAlpha"/>
<feOffset/>
<feGaussianBlur stdDeviation="4"/>
<feComposite in2="hardAlpha" operator="out"/>
<feColorMatrix type="matrix" values="0 0 0 0 0.929412 0 0 0 0 0.85098 0 0 0 0 0.482353 0 0 0 0.16 0"/>
<feBlend mode="normal" in2="effect1_dropShadow_43_650" result="effect2_dropShadow_43_650"/>
<feBlend mode="normal" in="SourceGraphic" in2="effect2_dropShadow_43_650" result="shape"/>
</filter>
<linearGradient id="paint0_linear_43_650" x1="18.8437" y1="65.4898" x2="65.8146" y2="20.0948" gradientUnits="userSpaceOnUse">
<stop stop-color="#FDFCA4"/>
<stop offset="1" stop-color="#D9AD49"/>
</linearGradient>
<linearGradient id="paint1_linear_43_650" x1="18.8437" y1="65.4898" x2="65.8146" y2="20.0948" gradientUnits="userSpaceOnUse">
<stop stop-color="#FDFCA4"/>
<stop offset="1" stop-color="#D9AD49"/>
</linearGradient>
<linearGradient id="paint2_linear_43_650" x1="18.8437" y1="65.4898" x2="65.8146" y2="20.0948" gradientUnits="userSpaceOnUse">
<stop stop-color="#FDFCA4"/>
<stop offset="1" stop-color="#D9AD49"/>
</linearGradient>
<linearGradient id="paint3_linear_43_650" x1="18.8437" y1="65.4898" x2="65.8146" y2="20.0948" gradientUnits="userSpaceOnUse">
<stop stop-color="#FDFCA4"/>
<stop offset="1" stop-color="#D9AD49"/>
</linearGradient>
</defs>
</svg>
