<svg width="88" height="87" viewBox="0 0 88 87" fill="none" xmlns="http://www.w3.org/2000/svg">
<g filter="url(#filter0_dd_43_689)">
<path d="M13.7245 17.307V17.4712L13.8887 17.4384L17.3698 20.9195C15.3565 20.9195 13.7245 22.5515 13.7245 24.5648V56.3283C13.7245 58.5375 15.5153 60.3283 17.7245 60.3283H56.7787L70.2266 73.7763C71.3785 74.9282 73.2461 74.9282 74.398 73.7763C75.5497 72.6247 75.5499 70.7575 74.3986 69.6055L18.8805 14.0558L13.8094 8.98465C12.6548 7.83006 10.784 7.8264 9.62485 8.97644C8.46148 10.1307 8.45531 12.01 9.61109 13.1718L13.7245 17.307ZM24.9232 32.1182C25.58 31.4942 26.0726 30.7717 26.401 29.9507L33.9544 37.504C33.5931 38.4893 33.4289 39.5402 33.4289 40.6239C33.4289 43.2512 34.4798 45.7471 36.3189 47.5861C38.158 49.4252 40.6539 50.4761 43.2811 50.4761C44.3649 50.4761 45.4158 50.3119 46.401 49.9507L50.2105 53.7602H26.8608C26.8608 52.0196 26.1711 50.3448 24.9232 49.1297C23.7081 47.8817 22.0332 47.1921 20.2926 47.1921V34.0558C22.0332 34.0558 23.7081 33.3661 24.9232 32.1182Z" fill="url(#paint0_linear_43_689)"/>
<path fill-rule="evenodd" clip-rule="evenodd" d="M73.0348 59.9999V54.8208H67.8784L73.0348 59.9999ZM67.3861 20.6896H34.0693H33.8969L62.2237 49.1412H73.0216V26.3826C73.0216 23.2494 70.5008 20.6896 67.3861 20.6896Z" fill="url(#paint1_linear_43_689)"/>
</g>
<defs>
<filter id="filter0_dd_43_689" x="0.748047" y="0.116211" width="86.5137" height="86.5239" filterUnits="userSpaceOnUse" color-interpolation-filters="sRGB">
<feFlood flood-opacity="0" result="BackgroundImageFix"/>
<feColorMatrix in="SourceAlpha" type="matrix" values="0 0 0 0 0 0 0 0 0 0 0 0 0 0 0 0 0 0 127 0" result="hardAlpha"/>
<feOffset dx="8" dy="8"/>
<feGaussianBlur stdDeviation="2"/>
<feComposite in2="hardAlpha" operator="out"/>
<feColorMatrix type="matrix" values="0 0 0 0 1 0 0 0 0 1 0 0 0 0 1 0 0 0 0.04 0"/>
<feBlend mode="normal" in2="BackgroundImageFix" result="effect1_dropShadow_43_689"/>
<feColorMatrix in="SourceAlpha" type="matrix" values="0 0 0 0 0 0 0 0 0 0 0 0 0 0 0 0 0 0 127 0" result="hardAlpha"/>
<feOffset/>
<feGaussianBlur stdDeviation="4"/>
<feComposite in2="hardAlpha" operator="out"/>
<feColorMatrix type="matrix" values="0 0 0 0 0.929412 0 0 0 0 0.85098 0 0 0 0 0.482353 0 0 0 0.16 0"/>
<feBlend mode="normal" in2="effect1_dropShadow_43_689" result="effect2_dropShadow_43_689"/>
<feBlend mode="normal" in="SourceGraphic" in2="effect2_dropShadow_43_689" result="shape"/>
</filter>
<linearGradient id="paint0_linear_43_689" x1="7.51757" y1="75.559" x2="70.1591" y2="1.92782" gradientUnits="userSpaceOnUse">
<stop stop-color="#FDFCA4"/>
<stop offset="1" stop-color="#D9AD49"/>
</linearGradient>
<linearGradient id="paint1_linear_43_689" x1="7.51757" y1="75.559" x2="70.1591" y2="1.92782" gradientUnits="userSpaceOnUse">
<stop stop-color="#FDFCA4"/>
<stop offset="1" stop-color="#D9AD49"/>
</linearGradient>
</defs>
</svg>
