<svg width="28" height="28" viewBox="0 0 28 28" fill="none" xmlns="http://www.w3.org/2000/svg">
<path d="M25 10.7222V18.2778L22.1364 19.2222L19.1868 14.0278C18.9386 13.5933 18.2418 13.8106 18.3182 14.3206L19.2727 23L9.72727 19.2222L10.825 11.61C11.0501 10.0529 11.8353 8.62839 13.0364 7.5979C14.2375 6.5674 15.7739 6.00006 17.3636 6H25L23.4918 8.23833C24.3891 8.72 25 9.64556 25 10.7222ZM6.86364 7.88889H10.2809C10.7582 7.17111 11.35 6.53833 12.0277 6H6.86364C6.33864 6 5.90909 6.425 5.90909 6.94444C5.90909 7.46389 6.33864 7.88889 6.86364 7.88889ZM8.62 13.5556H4.95455C4.42955 13.5556 4 13.9806 4 14.5C4 15.0194 4.42955 15.4444 4.95455 15.4444H8.34318L8.62 13.5556ZM5.90909 11.6667H8.88727L8.935 11.3456C9.01136 10.7978 9.145 10.2783 9.32636 9.77778H5.90909C5.38409 9.77778 4.95455 10.2028 4.95455 10.7222C4.95455 11.2417 5.38409 11.6667 5.90909 11.6667Z" fill="white"/>
</svg>
