<svg width="28" height="28" viewBox="0 0 28 28" fill="none" xmlns="http://www.w3.org/2000/svg">
<path d="M21.2745 15C21.6219 15 21.959 15.0407 22.2961 15.0915V11.95C22.2961 11.4108 22.0809 10.8936 21.6977 10.5123C21.3145 10.1309 20.7948 9.91672 20.2529 9.91672H19.2313V7.88338C19.2313 5.07738 16.9428 2.80005 14.1232 2.80005C11.3035 2.80005 9.01506 5.07738 9.01506 7.88338V9.91672H7.99344C7.45154 9.91672 6.93183 10.1309 6.54865 10.5123C6.16546 10.8936 5.9502 11.4108 5.9502 11.95V22.1167C5.9502 23.2452 6.85944 24.15 7.99344 24.15H15.9723C15.4513 23.2554 15.1448 22.2184 15.1448 21.1C15.1448 17.7349 17.893 15 21.2745 15ZM11.0583 7.88338C11.0583 6.19572 12.4273 4.83338 14.1232 4.83338C15.8191 4.83338 17.188 6.19572 17.188 7.88338V9.91672H11.0583V7.88338ZM14.1232 19.0667C13.7191 19.0667 13.324 18.9475 12.988 18.724C12.652 18.5006 12.3901 18.183 12.2355 17.8115C12.0808 17.44 12.0403 17.0311 12.1192 16.6367C12.198 16.2423 12.3926 15.88 12.6784 15.5956C12.9641 15.3112 13.3282 15.1176 13.7246 15.0391C14.1209 14.9607 14.5317 15.0009 14.9051 15.1548C15.2784 15.3087 15.5975 15.5693 15.8221 15.9037C16.0466 16.2381 16.1664 16.6312 16.1664 17.0334C16.1664 18.1619 15.2572 19.0667 14.1232 19.0667ZM24.8502 19.3209L19.9975 24.15L17.188 21.1L18.3731 19.9207L19.9975 21.5372L23.6651 17.8874L24.8502 19.3209Z" fill="white"/>
</svg>
