<svg width="28" height="28" viewBox="0 0 28 28" fill="none" xmlns="http://www.w3.org/2000/svg">
<path d="M10.1897 13.176C9.50772 13.176 8.90272 13.0184 8.37472 12.703C7.85406 12.3804 7.44339 11.9184 7.14272 11.317C6.84939 10.7084 6.70272 9.98602 6.70272 9.15002C6.70272 8.31402 6.84939 7.59536 7.14272 6.99402C7.44339 6.38536 7.85406 5.92336 8.37472 5.60802C8.90272 5.28536 9.50772 5.12402 10.1897 5.12402C10.8717 5.12402 11.4731 5.28536 11.9937 5.60802C12.5217 5.92336 12.9324 6.38536 13.2257 6.99402C13.5264 7.59536 13.6767 8.31402 13.6767 9.15002C13.6767 9.98602 13.5264 10.7084 13.2257 11.317C12.9324 11.9184 12.5217 12.3804 11.9937 12.703C11.4731 13.0184 10.8717 13.176 10.1897 13.176ZM10.1897 11.097C10.7764 11.097 11.0697 10.448 11.0697 9.15002C11.0697 7.85202 10.7764 7.20302 10.1897 7.20302C9.60306 7.20302 9.30972 7.85202 9.30972 9.15002C9.30972 10.448 9.60306 11.097 10.1897 11.097Z" fill="white"/>
<path d="M17.8059 13.176C17.1239 13.176 16.5189 13.0184 15.9909 12.703C15.4703 12.3804 15.0596 11.9184 14.7589 11.317C14.4656 10.7084 14.3189 9.98602 14.3189 9.15002C14.3189 8.31402 14.4656 7.59536 14.7589 6.99402C15.0596 6.38536 15.4703 5.92336 15.9909 5.60802C16.5189 5.28536 17.1239 5.12402 17.8059 5.12402C18.4879 5.12402 19.0893 5.28536 19.6099 5.60802C20.1379 5.92336 20.5486 6.38536 20.8419 6.99402C21.1426 7.59536 21.2929 8.31402 21.2929 9.15002C21.2929 9.98602 21.1426 10.7084 20.8419 11.317C20.5486 11.9184 20.1379 12.3804 19.6099 12.703C19.0893 13.0184 18.4879 13.176 17.8059 13.176ZM17.8059 11.097C18.3926 11.097 18.6859 10.448 18.6859 9.15002C18.6859 7.85202 18.3926 7.20302 17.8059 7.20302C17.2193 7.20302 16.9259 7.85202 16.9259 9.15002C16.9259 10.448 17.2193 11.097 17.8059 11.097Z" fill="white"/>
<path d="M13.2172 20.987V23H7.04621V21.405L9.82922 18.831C10.0712 18.6037 10.2325 18.4094 10.3132 18.248C10.3939 18.0867 10.4342 17.929 10.4342 17.775C10.4342 17.5844 10.3682 17.4377 10.2362 17.335C10.1115 17.225 9.92822 17.17 9.68621 17.17C9.45155 17.17 9.23155 17.2324 9.02621 17.357C8.82088 17.4817 8.66321 17.6577 8.55321 17.885L6.59521 16.906C6.88855 16.356 7.31755 15.9234 7.88221 15.608C8.44688 15.2854 9.12888 15.124 9.92822 15.124C10.5369 15.124 11.0759 15.223 11.5452 15.421C12.0145 15.619 12.3812 15.9014 12.6452 16.268C12.9092 16.6347 13.0412 17.0564 13.0412 17.533C13.0412 17.9584 12.9495 18.358 12.7662 18.732C12.5902 19.0987 12.2419 19.5167 11.7212 19.986L10.6212 20.987H13.2172Z" fill="white"/>
<path d="M21.2186 21.68H20.1956V23H17.6766V21.68H13.6836V20.03L16.9506 15.3H19.6126L16.7086 19.667H17.7536V18.49H20.1956V19.667H21.2186V21.68Z" fill="white"/>
</svg>
