<?xml version="1.0" encoding="utf-8"?><svg viewBox="0 0 24 24" xmlns="http://www.w3.org/2000/svg" xmlns:xlink="http://www.w3.org/1999/xlink"><style>:root>svg{display:none}:root>svg:target{display:block}</style><svg viewBox="0 0 14 16" id="cart" xmlns="http://www.w3.org/2000/svg"><path d="M13.793 4.05v9.875c0 .273-.051.527-.154.764a2.008 2.008 0 01-1.82 1.211H2.93c-.272 0-.527-.051-.764-.154a2.007 2.007 0 01-1.21-1.82V4.05H2.93v-.988a2.91 2.91 0 01.872-2.09c.273-.268.586-.479.941-.633a2.946 2.946 0 011.15-.24 2.9 2.9 0 011.489.402A2.872 2.872 0 018.855.1a2.91 2.91 0 012.09.872c.269.272.48.586.634.94.154.356.234.739.24 1.15v.988h1.974zm-2.962-.988a1.932 1.932 0 00-.58-1.388 2.167 2.167 0 00-.632-.425 1.852 1.852 0 00-.764-.162c-.231 0-.45.039-.655.116a2.9 2.9 0 01.355.548c.087.18.151.36.192.54.042.18.07.362.085.548.016.185.023.383.023.594v.617h1.976v-.988zm-6.913.988h3.95v-.988a1.93 1.93 0 00-.579-1.388 2.168 2.168 0 00-.632-.425 1.852 1.852 0 00-.764-.162c-.273 0-.527.052-.764.154a2.007 2.007 0 00-1.211 1.821v.988zm6.187 10.863a1.972 1.972 0 01-.262-.988V5.037h-7.9v8.888a.957.957 0 00.285.695c.088.087.193.16.316.216a.836.836 0 00.386.077h7.175zm2.7-9.876h-1.974v8.888a.958.958 0 00.285.695c.088.087.193.16.316.216a.835.835 0 00.386.077.958.958 0 00.694-.286c.088-.087.16-.193.216-.316a.837.837 0 00.078-.386V5.037z"/></svg><svg viewBox="0 0 15 16" id="cart-2" xmlns="http://www.w3.org/2000/svg"><path d="M1.333 1.333h1.355c.473 0 .709 0 .897.104a.833.833 0 01.208.162c.146.158.204.387.318.845l.152.606c.084.337.126.505.191.647a1.667 1.667 0 001.205.941c.154.029.327.029.675.029" stroke-linecap="round"/><path d="M13 12.167H4.292c-.12 0-.182 0-.228-.005a.832.832 0 01-.723-1.003c.02-.073.042-.146.068-.218.043-.128.064-.192.088-.25a1.666 1.666 0 011.415-1.02c.062-.004.13-.004.264-.004h4.491" stroke-linecap="round" stroke-linejoin="round"/><path d="M10.107 9.667H7.145c-1.013 0-1.52 0-1.91-.23A1.667 1.667 0 014.8 9.07c-.291-.348-.375-.848-.54-1.847-.17-1.013-.254-1.52-.053-1.894.083-.157.2-.294.34-.402.337-.259.85-.259 1.877-.259h5.546c1.209 0 1.813 0 2.058.395.244.396-.027.936-.567 2.017l-.372.745c-.449.897-.673 1.345-1.075 1.594-.404.249-.905.249-1.907.249z" stroke-linecap="round"/><path d="M12.167 15.5a.833.833 0 100-1.667.833.833 0 000 1.667zM5.5 15.5a.833.833 0 100-1.667.833.833 0 000 1.667z"/></svg><svg viewBox="0 0 24 24" id="close" xmlns="http://www.w3.org/2000/svg"><path d="M23.361 21.15l-9.302-9.29 9.303-9.184.317-.317c.317-.422.422-.95.211-1.372-.211-.422-.529-.845-1.057-.95-.529-.106-1.057 0-1.586.528l-9.302 9.29-6.66-6.651L2.643.564C2.22.038 1.69-.068 1.163.038.634.142.21.565 0 1.092v.74c.106.422.423.738.74 1.055l9.09 9.079-9.09 9.078c-.317.317-.634.634-.74 1.056v.633c.211.634.529 1.056 1.163 1.267h.634c.423-.106.74-.422 1.057-.633l9.091-9.079 9.09 9.079c.318.316.53.527.952.633h.635l.21-.106c.53-.21.952-.738.952-1.372.106-.633-.105-.95-.422-1.372z"/></svg><svg viewBox="0 0 12 12" id="delete" xmlns="http://www.w3.org/2000/svg"><path d="M3.625 1.08H3.5a.123.123 0 00.125-.12v.12zm0 0h4.75V.96c0 .066.056.12.125.12h-.125v1.08H9.5V.96c0-.53-.448-.96-1-.96h-5c-.552 0-1 .43-1 .96v1.2h1.125V1.08zM11.5 2.16H.5a.49.49 0 00-.5.48v.48c0 .066.056.12.125.12h.944l.386 7.845c.025.511.465.915.998.915h7.094c.534 0 .973-.402.998-.915l.386-7.845h.944A.123.123 0 0012 3.12v-.48a.49.49 0 00-.5-.48zm-2.073 8.76H2.573l-.378-7.68h7.61l-.378 7.68z"/></svg><svg viewBox="0 0 15 14" id="quit" xmlns="http://www.w3.org/2000/svg"><path d="M9.75 14c.199 0 .39-.074.53-.205s.22-.31.22-.495a.677.677 0 00-.22-.495.778.778 0 00-.53-.205H3.5c-.53 0-1.04-.197-1.414-.547a1.806 1.806 0 01-.586-1.32V3.267c0-.495.21-.97.586-1.32.375-.35.884-.547 1.414-.547h6.25c.199 0 .39-.074.53-.205s.22-.31.22-.495a.677.677 0 00-.22-.495A.778.778 0 009.75 0H3.5a3.63 3.63 0 00-2.475.957A3.16 3.16 0 000 3.267v7.466a3.16 3.16 0 001.025 2.31A3.63 3.63 0 003.5 14h6.25zm.99-10.548a.799.799 0 01.823-.121c.09.038.171.093.238.16l3 3.034c.128.13.199.299.199.475a.675.675 0 01-.2.475l-3 3.033a.774.774 0 01-.52.224.782.782 0 01-.54-.185.681.681 0 01-.24-.487.674.674 0 01.2-.503L12.538 7.7H4.75a.778.778 0 01-.53-.205.677.677 0 01-.22-.495c0-.186.079-.364.22-.495a.778.778 0 01.53-.205h7.787l-1.838-1.858a.694.694 0 01-.153-.233.657.657 0 01.023-.536.7.7 0 01.172-.22z"/></svg><svg viewBox="0 0 16 16" id="search" xmlns="http://www.w3.org/2000/svg"><path d="M6.594 13.177A6.596 6.596 0 01.005 6.59 6.596 6.596 0 016.595 0a6.596 6.596 0 016.588 6.589 6.596 6.596 0 01-6.589 6.588zm0-11.928a5.346 5.346 0 00-5.34 5.34 5.346 5.346 0 005.34 5.34 5.346 5.346 0 005.34-5.34 5.346 5.346 0 00-5.34-5.34zm9.216 14.568a.625.625 0 000-.883l-2.795-2.795a.624.624 0 10-.883.883l2.795 2.795a.623.623 0 00.883 0z"/></svg></svg>