<svg width="132" height="78" viewBox="0 0 132 78" fill="none" xmlns="http://www.w3.org/2000/svg">
<path fill-rule="evenodd" clip-rule="evenodd" d="M40.873 6.81152H86.1774C89.4456 6.81152 91.9482 6.81152 93.9454 6.97785C95.9598 7.14549 97.532 7.48649 98.9212 8.21004C101.184 9.38858 103.03 11.2385 104.205 13.5073C104.927 14.9 105.267 16.476 105.434 18.4957C105.6 20.4979 105.6 23.0064 105.6 26.2828V37.4557H103.999V26.321C103.999 22.999 103.998 20.5566 103.839 18.6285C103.68 16.71 103.367 15.3727 102.784 14.2471C101.761 12.2716 100.154 10.6608 98.1831 9.63455C97.0605 9.04986 95.7265 8.73683 93.8128 8.57753C91.8895 8.41742 89.4533 8.41676 86.1396 8.41676H40.9108C37.5972 8.41676 35.1609 8.41742 33.2376 8.57753C31.3239 8.73683 29.9899 9.04986 28.8673 9.63455C26.8967 10.6608 25.2899 12.2716 24.2663 14.2471C23.6831 15.3727 23.3709 16.71 23.212 18.6285C23.0522 20.5566 23.0516 22.999 23.0516 26.321V50.5957C23.0516 53.9178 23.0522 56.3602 23.212 58.2883C23.3709 60.2068 23.6831 61.5441 24.2663 62.6697C25.2899 64.6452 26.8967 66.256 28.8673 67.2822C29.9899 67.8669 31.3239 68.18 33.2376 68.3393C35.1609 68.4994 37.5972 68.5 40.9108 68.5H100.602V70.1053H40.8729C37.6048 70.1053 35.1024 70.1053 33.1051 69.9389C31.0906 69.7713 29.5184 69.4303 28.1292 68.7068C25.866 67.5282 24.0208 65.6783 22.8453 63.4095C22.1235 62.0168 21.7833 60.4408 21.6161 58.4211C21.4502 56.4189 21.4502 53.9102 21.4502 50.6337V26.2831C21.4502 23.0065 21.4502 20.4979 21.6161 18.4957C21.7833 16.476 22.1235 14.9 22.8453 13.5073C24.0208 11.2385 25.866 9.38858 28.1292 8.21004C29.5184 7.48649 31.0906 7.14549 33.1051 6.97785C35.1024 6.81152 37.6048 6.81152 40.873 6.81152Z" fill="url(#paint0_linear_190_507)"/>
<path fill-rule="evenodd" clip-rule="evenodd" d="M26.3999 55.1733C26.3999 55.1539 26.3999 55.1342 26.3999 55.1145H26.9582C26.9582 57.5422 26.9609 58.7031 27.2721 59.644C28.0202 61.9066 30.0216 63.676 32.5812 64.3373C33.6454 64.6122 34.9588 64.6148 37.7048 64.6148H100.65V65.1083H37.6384C34.9747 65.1083 33.5754 65.1082 32.4246 64.811C29.6823 64.1024 27.5378 62.2067 26.7361 59.7824C26.3999 58.7651 26.3999 57.5281 26.3999 55.1733Z" fill="#585842"/>
<path d="M44.55 15.1396L30.2399 49.3554C30.0469 49.818 29.6059 50.1178 29.1184 50.1178H22.9998C22.5125 50.1178 22.0715 49.818 21.8786 49.354L8.35134 16.9045C8.00329 16.0701 8.59451 15.1396 9.47278 15.1396H16.0641L26.348 40.1237L36.4586 15.9032C36.6516 15.4392 37.0926 15.1396 37.5799 15.1396H44.55Z" fill="url(#paint1_linear_190_507)"/>
<path d="M52.4383 15.1396H58.1113C58.8226 15.1396 59.3999 15.706 59.3999 16.4039V48.8535C59.3999 49.5514 58.8226 50.1178 58.1113 50.1178H52.4383C51.7271 50.1178 51.1499 49.5514 51.1499 48.8535V16.4039C51.1499 15.706 51.7271 15.1396 52.4383 15.1396Z" fill="url(#paint2_linear_190_507)"/>
<path d="M52.4383 53.449H58.1113C58.8226 53.449 59.3999 54.0104 59.3999 54.7019V60.5242C59.3999 61.2158 58.8226 61.7771 58.1113 61.7771H52.4383C51.7271 61.7771 51.1499 61.2158 51.1499 60.5242V54.7019C51.1499 54.0104 51.7271 53.449 52.4383 53.449Z" fill="url(#paint3_linear_190_507)"/>
<path d="M89.4689 15.1396H68.8878C68.2044 15.1396 67.6499 15.706 67.6499 16.4039V48.8535C67.6499 49.5513 68.2044 50.1178 68.8878 50.1178H75.5753V40.4739H82.4745C88.2978 40.4739 92.7347 38.5107 95.1895 35.0731C96.5934 33.1097 97.3499 30.6659 97.3499 27.8315V23.1878C97.3499 18.7427 93.8216 15.1396 89.4689 15.1396ZM91.0783 26.3181C91.0783 27.4724 90.8257 28.5647 90.3727 29.5433C89.3241 31.8113 87.2022 33.4612 84.6768 33.8089C84.2336 33.8557 83.7657 33.8784 83.273 33.8784H75.5753V21.7352H86.8308C89.1768 21.7352 91.0783 23.677 91.0783 26.0729V26.3181Z" fill="url(#paint4_linear_190_507)"/>
<path d="M80.4534 43.4553L82.897 47.7312V43.4553H84.1502V50.1178H82.897L80.4534 45.8418V50.1178H79.2002V43.4553H80.4534Z" fill="white"/>
<path d="M85.7998 47.0307V46.5426C85.7998 46.0922 85.8506 45.6918 85.952 45.3415C86.0537 44.9849 86.2171 44.6628 86.4428 44.375C86.6742 44.081 86.9985 43.8558 87.4159 43.6993C87.839 43.5367 88.3495 43.4553 88.9476 43.4553H89.2522C89.8501 43.4553 90.3579 43.5367 90.7752 43.6993C91.1983 43.8558 91.5227 44.081 91.7484 44.375C91.9797 44.6628 92.1461 44.9849 92.2476 45.3415C92.3491 45.6918 92.3998 46.0922 92.3998 46.5426V47.0307C92.3998 47.4811 92.3491 47.8845 92.2476 48.2411C92.1461 48.5915 91.9797 48.9136 91.7484 49.2076C91.5227 49.4955 91.1983 49.7207 90.7752 49.8833C90.3579 50.0397 89.8501 50.1178 89.2522 50.1178H88.9476C88.3495 50.1178 87.839 50.0397 87.4159 49.8833C86.9985 49.7207 86.6742 49.4955 86.4428 49.2076C86.2171 48.9136 86.0537 48.5915 85.952 48.2411C85.8506 47.8845 85.7998 47.4811 85.7998 47.0307ZM87.3229 46.7867C87.3229 46.9431 87.3229 47.0619 87.3229 47.1433C87.3286 47.2245 87.337 47.334 87.3483 47.4716C87.3651 47.6092 87.3877 47.7156 87.4159 47.7906C87.4498 47.8658 87.4921 47.9565 87.5429 48.0628C87.5992 48.163 87.6698 48.2411 87.7544 48.2975C87.8447 48.3475 87.949 48.4006 88.0675 48.457C88.1915 48.5132 88.3383 48.5539 88.5075 48.5789C88.6823 48.6039 88.8799 48.6165 89.0998 48.6165C89.3198 48.6165 89.5145 48.6039 89.6837 48.5789C89.8585 48.5539 90.0053 48.5132 90.1237 48.457C90.2478 48.4006 90.3521 48.3475 90.4368 48.2975C90.5271 48.2411 90.5976 48.163 90.6483 48.0628C90.7047 47.9565 90.747 47.8658 90.7752 47.7906C90.8091 47.7156 90.8317 47.6092 90.8429 47.4716C90.8599 47.334 90.8683 47.2245 90.8683 47.1433C90.874 47.0619 90.8768 46.9431 90.8768 46.7867C90.8768 46.6052 90.874 46.4707 90.8683 46.3831C90.8683 46.2893 90.8571 46.1672 90.8345 46.0172C90.8119 45.8608 90.778 45.7451 90.733 45.6699C90.6935 45.5887 90.6314 45.4949 90.5468 45.3885C90.4621 45.2821 90.3549 45.2039 90.2252 45.1539C90.1012 45.1037 89.9432 45.0599 89.7514 45.0225C89.5652 44.9849 89.3481 44.9661 89.0998 44.9661C88.8517 44.9661 88.6316 44.9849 88.4398 45.0225C88.2536 45.0599 88.0956 45.1037 87.966 45.1539C87.8419 45.2039 87.7375 45.2821 87.6529 45.3885C87.5683 45.4949 87.5034 45.5887 87.4582 45.6699C87.4188 45.7451 87.3877 45.8608 87.3651 46.0172C87.3426 46.1672 87.3286 46.2893 87.3229 46.3831C87.3229 46.4707 87.3229 46.6052 87.3229 46.7867Z" fill="white"/>
<path d="M97.7165 48.7555H96.9832L95.4846 46.1402V50.1178H94.0498V43.4553H95.4846L97.3498 46.8661L99.2151 43.4553H100.65V50.1178H99.2151V46.1402L97.7165 48.7555Z" fill="white"/>
<path d="M108.9 43.4553V45.0463H104.153V46.0408H107.87V47.6318H104.153V48.5268H108.9V50.1178H102.3V43.4553H108.9Z" fill="white"/>
<path d="M115.5 50.1178H113.836L112.554 48.0902C111.674 48.0902 111.03 48.0579 110.622 47.9936V50.1178H108.9V43.6486C110.016 43.5197 111.183 43.4553 112.401 43.4553H112.669C114.492 43.4553 115.404 44.1635 115.404 45.5797V45.9658C115.404 46.8993 115.041 47.5236 114.314 47.8391L115.5 49.7315V50.1178ZM112.42 45.0003C111.852 45.0003 111.253 45.0293 110.622 45.0873V46.4584C111.068 46.5162 111.569 46.5452 112.123 46.5452C112.5 46.5452 112.796 46.5324 113.013 46.5067C113.23 46.4744 113.386 46.4165 113.482 46.3328C113.577 46.2426 113.635 46.1558 113.654 46.0721C113.673 45.9883 113.682 45.8533 113.682 45.6665C113.682 45.5506 113.673 45.4638 113.654 45.4058C113.641 45.3479 113.596 45.2835 113.52 45.2127C113.45 45.1355 113.322 45.0807 113.137 45.0486C112.959 45.0163 112.72 45.0003 112.42 45.0003Z" fill="white"/>
<path d="M117.222 50.1178H115.5V49.72L118.668 43.4553H120.582L123.75 49.72V50.1178H122.028L121.411 48.8251H117.828L117.222 50.1178ZM118.541 47.3335H120.709L119.625 45.0564L118.541 47.3335Z" fill="white"/>
<path d="M81.664 56.9446C81.9172 56.9446 82.1256 56.9289 82.2894 56.8977C82.453 56.8663 82.5697 56.8194 82.6391 56.7568C82.7087 56.6944 82.7533 56.638 82.7732 56.588C82.798 56.538 82.8104 56.4754 82.8104 56.4004C82.8104 56.1876 82.7285 56.05 82.5648 55.9874C82.401 55.9186 82.0908 55.878 81.6343 55.8654C81.4507 55.8592 81.2994 55.8497 81.1802 55.8373C81.066 55.8247 80.8998 55.7997 80.6815 55.7621C80.4631 55.7247 80.2795 55.6652 80.1307 55.584C79.9867 55.4964 79.8379 55.3869 79.6841 55.2555C79.5351 55.1179 79.4211 54.9396 79.3416 54.7206C79.2622 54.4954 79.2225 54.2358 79.2225 53.9418V53.8197C79.2225 53.2129 79.4086 52.7219 79.7808 52.3465C80.1579 51.9711 80.7857 51.7834 81.664 51.7834H81.932C82.5871 51.7834 83.2347 51.8867 83.8748 52.0932V53.6414C83.1007 53.41 82.3811 53.2943 81.7162 53.2943C81.4631 53.2943 81.2521 53.31 81.0834 53.3412C80.9197 53.3726 80.8031 53.4195 80.7336 53.4819C80.6641 53.5383 80.617 53.5914 80.5921 53.6414C80.5724 53.6916 80.5624 53.7509 80.5624 53.8197C80.5624 54.0325 80.6443 54.1732 80.8081 54.242C80.9718 54.3108 81.2795 54.3515 81.7311 54.3639C81.8749 54.3703 81.994 54.3765 82.0884 54.3827C82.1877 54.3891 82.329 54.4078 82.5126 54.4391C82.6962 54.4641 82.8526 54.5017 82.9816 54.5517C83.1155 54.5955 83.2594 54.6675 83.4133 54.7675C83.5722 54.8613 83.7012 54.9739 83.8005 55.1053C83.8996 55.2367 83.9815 55.4057 84.046 55.6121C84.1155 55.8123 84.1502 56.0406 84.1502 56.2971V56.4192C84.1502 56.7006 84.1106 56.957 84.0312 57.1886C83.9518 57.4201 83.8228 57.6327 83.6441 57.8267C83.4654 58.0207 83.2099 58.1707 82.8774 58.2771C82.5498 58.3897 82.1578 58.4459 81.7013 58.4459H81.4333C80.6989 58.4459 79.9546 58.3459 79.2002 58.1457V56.5692C80.0934 56.8194 80.9147 56.9446 81.664 56.9446Z" fill="white"/>
<path d="M88.9068 58.4459H87.6357V53.3746H85.7998V51.7834H90.7498V53.3746H88.9068V58.4459Z" fill="white"/>
<path d="M92.3999 55.3588V54.8708C92.3999 54.4203 92.4506 54.0199 92.5523 53.6697C92.6538 53.3131 92.8174 52.9909 93.0431 52.7031C93.2742 52.4091 93.5986 52.1839 94.0161 52.0275C94.4392 51.8648 94.9497 51.7834 95.5476 51.7834H95.8522C96.4501 51.7834 96.9578 51.8648 97.3753 52.0275C97.7984 52.1839 98.1228 52.4091 98.3483 52.7031C98.5796 52.9909 98.746 53.3131 98.8475 53.6697C98.9492 54.0199 98.9999 54.4203 98.9999 54.8708V55.3588C98.9999 55.8091 98.9492 56.2126 98.8475 56.5692C98.746 56.9196 98.5796 57.2417 98.3483 57.5358C98.1228 57.8236 97.7984 58.0488 97.3753 58.2114C96.9578 58.3678 96.4501 58.4459 95.8522 58.4459H95.5476C94.9497 58.4459 94.4392 58.3678 94.0161 58.2114C93.5986 58.0488 93.2742 57.8236 93.0431 57.5358C92.8174 57.2417 92.6538 56.9196 92.5523 56.5692C92.4506 56.2126 92.3999 55.8091 92.3999 55.3588ZM93.923 55.1148C93.923 55.2712 93.923 55.39 93.923 55.4714C93.9286 55.5526 93.9372 55.6621 93.9484 55.7997C93.9653 55.9374 93.9879 56.0438 94.0161 56.1188C94.0499 56.194 94.0922 56.2847 94.1429 56.3909C94.1994 56.4911 94.27 56.5692 94.3545 56.6256C94.4448 56.6756 94.5492 56.7287 94.6677 56.7851C94.7917 56.8413 94.9384 56.882 95.1076 56.907C95.2825 56.932 95.4799 56.9446 95.7 56.9446C95.9199 56.9446 96.1145 56.932 96.2837 56.907C96.4587 56.882 96.6053 56.8413 96.7237 56.7851C96.8478 56.7287 96.9522 56.6756 97.0368 56.6256C97.127 56.5692 97.1976 56.4911 97.2483 56.3909C97.3048 56.2847 97.3471 56.194 97.3753 56.1188C97.4091 56.0438 97.4317 55.9374 97.443 55.7997C97.4598 55.6621 97.4684 55.5526 97.4684 55.4714C97.474 55.39 97.4768 55.2712 97.4768 55.1148C97.4768 54.9334 97.474 54.7989 97.4684 54.7113C97.4684 54.6174 97.457 54.4954 97.4345 54.3453C97.4119 54.1889 97.3781 54.0732 97.333 53.998C97.2934 53.9168 97.2315 53.8228 97.1468 53.7166C97.0621 53.6102 96.955 53.5321 96.8252 53.4819C96.7012 53.4319 96.5432 53.3881 96.3514 53.3506C96.1652 53.3131 95.9481 53.2943 95.7 53.2943C95.4517 53.2943 95.2318 53.3131 95.0398 53.3506C94.8538 53.3881 94.6958 53.4319 94.566 53.4819C94.442 53.5321 94.3377 53.6102 94.253 53.7166C94.1683 53.8228 94.1036 53.9168 94.0584 53.998C94.0189 54.0732 93.9879 54.1889 93.9653 54.3453C93.9428 54.4954 93.9286 54.6174 93.923 54.7113C93.923 54.7989 93.923 54.9334 93.923 55.1148Z" fill="white"/>
<path d="M105.6 58.4459H104.352L103.39 56.4183C102.73 56.4183 102.247 56.386 101.941 56.3218V58.4459H100.65V51.9765C101.487 51.8479 102.362 51.7834 103.276 51.7834H103.476C104.844 51.7834 105.528 52.4916 105.528 53.9078V54.2939C105.528 55.2273 105.256 55.8517 104.71 56.1672L105.6 58.0596V58.4459ZM103.29 53.3285C102.864 53.3285 102.415 53.3574 101.941 53.4152V54.7863C102.276 54.8444 102.651 54.8733 103.067 54.8733C103.35 54.8733 103.572 54.8605 103.735 54.8348C103.897 54.8025 104.015 54.7446 104.086 54.6609C104.158 54.5707 104.201 54.4838 104.215 54.4002C104.23 54.3165 104.237 54.1812 104.237 53.9946C104.237 53.8787 104.23 53.7919 104.215 53.7339C104.206 53.6761 104.172 53.6117 104.115 53.5409C104.062 53.4635 103.967 53.4088 103.828 53.3767C103.694 53.3444 103.515 53.3285 103.29 53.3285Z" fill="white"/>
<path d="M113.85 51.7834V53.3746H109.103V54.369H112.82V55.96H109.103V56.8548H113.85V58.4459H107.25V51.7834H113.85Z" fill="white"/>
<defs>
<linearGradient id="paint0_linear_190_507" x1="66.2223" y1="6.81152" x2="66.2223" y2="70.1053" gradientUnits="userSpaceOnUse">
<stop stop-color="#FDFCA4"/>
<stop offset="1" stop-color="#D9AD49"/>
</linearGradient>
<linearGradient id="paint1_linear_190_507" x1="1.34577" y1="0.864397" x2="136.152" y2="61.4902" gradientUnits="userSpaceOnUse">
<stop stop-color="#EAEAEA"/>
<stop offset="0.53125" stop-color="white"/>
<stop offset="1" stop-color="#F2F2F2"/>
</linearGradient>
<linearGradient id="paint2_linear_190_507" x1="-0.907033" y1="0.864567" x2="138.643" y2="67.0629" gradientUnits="userSpaceOnUse">
<stop stop-color="#EAEAEA"/>
<stop offset="0.53125" stop-color="white"/>
<stop offset="1" stop-color="#F2F2F2"/>
</linearGradient>
<linearGradient id="paint3_linear_190_507" x1="-0.907033" y1="-0.0183531" x2="138.179" y2="66.5568" gradientUnits="userSpaceOnUse">
<stop stop-color="#EAEAEA"/>
<stop offset="0.53125" stop-color="white"/>
<stop offset="1" stop-color="#F2F2F2"/>
</linearGradient>
<linearGradient id="paint4_linear_190_507" x1="1.5744" y1="0.864735" x2="137.575" y2="62.8509" gradientUnits="userSpaceOnUse">
<stop stop-color="#EAEAEA"/>
<stop offset="0.53125" stop-color="white"/>
<stop offset="1" stop-color="#F2F2F2"/>
</linearGradient>
</defs>
</svg>
