<svg width="24" height="24" viewBox="0 0 24 24" fill="none" xmlns="http://www.w3.org/2000/svg">
<path d="M8.4 12C10.1409 12 11.55 10.658 11.55 9C11.55 7.34196 10.1409 6 8.4 6C6.65906 6 5.25 7.34196 5.25 9C5.25 10.658 6.65906 12 8.4 12ZM10.56 12.8571H10.3266C9.74156 13.125 9.09188 13.2857 8.4 13.2857C7.70812 13.2857 7.06125 13.125 6.47344 12.8571H6.24C4.45125 12.8571 3 14.2393 3 15.9429V16.7143C3 17.4241 3.60469 18 4.35 18H12.45C13.1953 18 13.8 17.4241 13.8 16.7143V15.9429C13.8 14.2393 12.3487 12.8571 10.56 12.8571ZM16.5 12C17.9906 12 19.2 10.8482 19.2 9.42857C19.2 8.00893 17.9906 6.85714 16.5 6.85714C15.0094 6.85714 13.8 8.00893 13.8 9.42857C13.8 10.8482 15.0094 12 16.5 12ZM17.85 12.8571H17.7431C17.3522 12.9857 16.9387 13.0714 16.5 13.0714C16.0612 13.0714 15.6478 12.9857 15.2569 12.8571H15.15C14.5763 12.8571 14.0475 13.0152 13.5834 13.2696C14.2697 13.9741 14.7 14.9089 14.7 15.9429V16.9714C14.7 17.0304 14.6859 17.0866 14.6831 17.1429H19.65C20.3953 17.1429 21 16.567 21 15.8571C21 14.1991 19.5909 12.8571 17.85 12.8571Z" fill="url(#paint0_linear_43_3950)"/>
<defs>
<linearGradient id="paint0_linear_43_3950" x1="3" y1="17.9473" x2="12.4771" y2="1.23769" gradientUnits="userSpaceOnUse">
<stop stop-color="#FDFCA4"/>
<stop offset="1" stop-color="#D9AD49"/>
</linearGradient>
</defs>
</svg>
