<svg width="24" height="24" viewBox="0 0 24 24" fill="none" xmlns="http://www.w3.org/2000/svg">
<path d="M15.3235 9.10978C15.3235 10.251 14.9412 11.7725 13.1059 12.3812C13.6412 11.0878 13.7176 9.79449 13.3353 8.57723C12.8 6.97958 11.0412 5.76232 9.81765 5.07761C9.51177 4.84938 8.97647 5.15369 9.05294 5.61016C9.05294 6.44703 8.82353 7.66429 7.52353 8.95762C5.84118 10.6314 5 12.3812 5 14.0549C5 16.2612 6.52941 19 9.58824 19C6.52941 15.9569 8.82353 13.2941 8.82353 13.2941C9.43529 17.7827 12.6471 19 14.1765 19C15.4765 19 18 18.0871 18 14.131C18 11.7725 17.0059 9.94665 16.1647 8.88154C15.9353 8.50115 15.4 8.72939 15.3235 9.10978Z" fill="url(#paint0_linear_229_94)"/>
<defs>
<linearGradient id="paint0_linear_229_94" x1="5" y1="5" x2="20.306" y2="5.54512" gradientUnits="userSpaceOnUse">
<stop stop-color="#FDFCA4"/>
<stop offset="1" stop-color="#D9AD49"/>
</linearGradient>
</defs>
</svg>
