<svg width="20" height="10" viewBox="0 0 20 10" fill="none" xmlns="http://www.w3.org/2000/svg">
<path d="M19.581 0.839848C19.5724 0.729988 19.5412 0.623088 19.4894 0.525818C19.4376 0.428548 19.3663 0.342995 19.28 0.274498C19.1936 0.206001 19.0941 0.156029 18.9876 0.127701C18.8811 0.0993723 18.7699 0.0932951 18.661 0.109848C16.919 0.387848 12.835 1.99985 10 1.99985C7.165 1.99985 3.081 0.387848 1.339 0.109848C1.23011 0.0931432 1.11894 0.0990801 1.01245 0.127288C0.905952 0.155496 0.806422 0.205367 0.720077 0.273786C0.633732 0.342206 0.562428 0.4277 0.510624 0.524927C0.45882 0.622153 0.427629 0.729021 0.419 0.838849C0.277 2.37085 0 6.44985 0 7.06785C0 7.89785 3.472 9.79985 6 9.79985C8.452 9.79985 8.95 7.06785 10 7.06785C11.05 7.06785 11.548 9.79985 14 9.79985C16.528 9.79985 20 7.89785 20 7.06785C20 6.44985 19.723 2.37085 19.581 0.839848ZM7.66 5.71985C7.307 6.03785 6.325 6.78985 5.129 6.55485C3.933 6.31985 3.21 5.23185 2.963 4.79685C2.93376 4.74672 2.9222 4.68822 2.93018 4.63074C2.93816 4.57326 2.96521 4.52012 3.007 4.47985C3.36 4.16185 4.342 3.40985 5.539 3.64485C6.735 3.87985 7.458 4.96785 7.705 5.40285C7.73394 5.45313 7.74524 5.51165 7.73708 5.5691C7.72893 5.62654 7.70179 5.67961 7.66 5.71985ZM17.037 4.79685C16.791 5.23285 16.068 6.31985 14.871 6.55485C13.675 6.78985 12.692 6.03785 12.34 5.71985C12.2982 5.67961 12.2711 5.62654 12.2629 5.5691C12.2548 5.51165 12.2661 5.45313 12.295 5.40285C12.541 4.96685 13.264 3.87985 14.461 3.64485C15.657 3.40985 16.64 4.16185 16.992 4.47985C17.0341 4.5199 17.0615 4.57299 17.0696 4.63052C17.0778 4.68806 17.0663 4.74666 17.037 4.79685Z" fill="url(#paint0_linear_185_4334)"/>
<defs>
<linearGradient id="paint0_linear_185_4334" x1="0" y1="0.100586" x2="23.431" y2="1.95367" gradientUnits="userSpaceOnUse">
<stop stop-color="#FDFCA4"/>
<stop offset="1" stop-color="#D9AD49"/>
</linearGradient>
</defs>
</svg>
