<svg width="20" height="14" viewBox="0 0 20 14" fill="none" xmlns="http://www.w3.org/2000/svg">
<path d="M12.8488 12.2835C12.9102 12.3778 12.9451 12.487 12.9497 12.5995C12.9543 12.712 12.9284 12.8236 12.8748 12.9226C12.8212 13.0216 12.7418 13.1043 12.6451 13.1619C12.5484 13.2195 12.4379 13.2499 12.3253 13.2499H0.798752C0.68617 13.2499 0.575683 13.2195 0.478963 13.1619C0.382243 13.1043 0.302881 13.0216 0.249263 12.9226C0.195645 12.8236 0.169761 12.712 0.174347 12.5995C0.178932 12.487 0.213817 12.3778 0.275314 12.2835C1.15508 10.9293 2.44914 9.89592 3.96438 9.33745C3.12672 8.77979 2.49076 7.96736 2.15055 7.0203C1.81033 6.07325 1.78393 5.04185 2.07523 4.07862C2.36653 3.1154 2.96008 2.27149 3.7681 1.67169C4.57613 1.07189 5.55572 0.748047 6.56203 0.748047C7.56834 0.748047 8.54794 1.07189 9.35596 1.67169C10.164 2.27149 10.7575 3.1154 11.0488 4.07862C11.3401 5.04185 11.3137 6.07325 10.9735 7.0203C10.6333 7.96736 9.99735 8.77979 9.15969 9.33745C10.6749 9.89592 11.969 10.9293 12.8488 12.2835ZM19.7167 12.2718C18.8367 10.9233 17.5456 9.89435 16.0347 9.33745C17.0236 8.67132 17.7215 7.65339 17.9863 6.49084C18.2511 5.3283 18.063 4.10853 17.4602 3.07981C16.8574 2.0511 15.8852 1.29076 14.7415 0.953565C13.5979 0.616371 12.3687 0.727664 11.3042 1.26479C11.2635 1.28581 11.2279 1.31552 11.2 1.35182C11.172 1.38811 11.1524 1.43011 11.1425 1.47483C11.1326 1.51956 11.1326 1.56592 11.1426 1.61062C11.1526 1.65533 11.1723 1.69729 11.2003 1.73354C11.9919 2.72089 12.4464 3.93576 12.4975 5.20019C12.5485 6.46463 12.1933 7.71218 11.4839 8.76011C11.4381 8.82859 11.4211 8.91241 11.4368 8.99333C11.4524 9.07424 11.4994 9.1457 11.5675 9.19214C12.4924 9.83766 13.2842 10.6555 13.8995 11.6007C14.1477 11.9808 14.2491 12.4381 14.1847 12.8874C14.1774 12.9321 14.18 12.9779 14.1922 13.0215C14.2044 13.0651 14.2259 13.1055 14.2552 13.14C14.2846 13.1745 14.3211 13.2022 14.3622 13.2212C14.4033 13.2401 14.448 13.25 14.4933 13.2499H19.2042C19.3418 13.25 19.4756 13.2046 19.5848 13.1208C19.694 13.0371 19.7725 12.9196 19.8081 12.7867C19.8299 12.6992 19.8329 12.6082 19.8172 12.5195C19.8014 12.4308 19.7672 12.3464 19.7167 12.2718Z" fill="url(#paint0_linear_185_4330)"/>
<defs>
<linearGradient id="paint0_linear_185_4330" x1="0.173828" y1="0.748047" x2="23.2587" y2="2.13992" gradientUnits="userSpaceOnUse">
<stop stop-color="#FDFCA4"/>
<stop offset="1" stop-color="#D9AD49"/>
</linearGradient>
</defs>
</svg>
