<svg width="15" height="18" viewBox="0 0 15 18" fill="none" xmlns="http://www.w3.org/2000/svg">
<path fill-rule="evenodd" clip-rule="evenodd" d="M4.83398 0.25H2.02148C1.15815 0.25 0.458984 0.95 0.458984 1.8125V16.1875C0.458984 17.05 1.15898 17.75 2.02148 17.75H12.6465C13.509 17.75 14.209 17.05 14.209 16.1875V9.625C14.209 8.7962 13.8797 8.00134 13.2937 7.41529C12.7076 6.82924 11.9128 6.5 11.084 6.5H9.52148C9.10708 6.5 8.70965 6.33538 8.41663 6.04235C8.1236 5.74933 7.95898 5.3519 7.95898 4.9375V3.375C7.95898 2.5462 7.62974 1.75134 7.04369 1.16529C6.45764 0.57924 5.66279 0.25 4.83398 0.25ZM10.3423 9.36333C10.3923 9.29671 10.4285 9.22076 10.4487 9.13996C10.469 9.05915 10.4728 8.97512 10.4601 8.89279C10.4474 8.81047 10.4184 8.73152 10.3747 8.66058C10.331 8.58964 10.2736 8.52815 10.2059 8.47971C10.1381 8.43127 10.0613 8.39687 9.98007 8.37852C9.89882 8.36018 9.81472 8.35826 9.73271 8.37288C9.65071 8.38751 9.57245 8.41838 9.50255 8.46368C9.43264 8.50898 9.3725 8.56779 9.32565 8.63667L6.62898 12.4117L5.27565 11.0583C5.15717 10.9479 5.00047 10.8878 4.83855 10.8907C4.67663 10.8935 4.52214 10.9591 4.40763 11.0736C4.29312 11.1882 4.22753 11.3426 4.22467 11.5046C4.22181 11.6665 4.28192 11.8232 4.39232 11.9417L6.26732 13.8167C6.33148 13.8808 6.40882 13.9302 6.49397 13.9614C6.57913 13.9926 6.67006 14.0049 6.76045 13.9974C6.85084 13.99 6.93853 13.963 7.01742 13.9182C7.09632 13.8735 7.16453 13.8121 7.21732 13.7383L10.3423 9.36333Z" fill="url(#paint0_linear_185_4315)"/>
<defs>
<linearGradient id="paint0_linear_185_4315" x1="0.458984" y1="0.25" x2="16.6538" y2="0.738039" gradientUnits="userSpaceOnUse">
<stop stop-color="#FDFCA4"/>
<stop offset="1" stop-color="#D9AD49"/>
</linearGradient>
</defs>
</svg>
