<svg width="128" height="324" viewBox="0 0 128 324" fill="none" xmlns="http://www.w3.org/2000/svg">
<path d="M1 0.5C0.723858 0.5 0.5 0.723858 0.5 1C0.5 1.27614 0.723858 1.5 1 1.5V0.5ZM1 64.5C0.723858 64.5 0.5 64.7239 0.5 65C0.5 65.2761 0.723858 65.5 1 65.5V64.5ZM1 322.5C0.723858 322.5 0.5 322.724 0.5 323C0.5 323.276 0.723858 323.5 1 323.5V322.5ZM1 256.5C0.723858 256.5 0.5 256.724 0.5 257C0.5 257.276 0.723858 257.5 1 257.5V256.5ZM1 192.5C0.723858 192.5 0.5 192.724 0.5 193C0.5 193.276 0.723858 193.5 1 193.5V192.5ZM1 128.5C0.723858 128.5 0.5 128.724 0.5 129C0.5 129.276 0.723858 129.5 1 129.5V128.5ZM121.833 161C121.833 162.473 123.027 163.667 124.5 163.667C125.973 163.667 127.167 162.473 127.167 161C127.167 159.527 125.973 158.333 124.5 158.333C123.027 158.333 121.833 159.527 121.833 161ZM1 1.5H5V0.5H1V1.5ZM16.5 13V65H17.5V13H16.5ZM17 64.5H1V65.5H17V64.5ZM5 322.5H1V323.5H5V322.5ZM16.5 257V311H17.5V257H16.5ZM17 256.5H1V257.5H17V256.5ZM16.5 193V257H17.5V193H16.5ZM17 192.5H1V193.5H17V192.5ZM16.5 65V129H17.5V65H16.5ZM17 128.5H1V129.5H17V128.5ZM16.5 129V161H17.5V129H16.5ZM16.5 161V193H17.5V161H16.5ZM17 161.5H124.5V160.5H17V161.5ZM5 323.5C11.9036 323.5 17.5 317.904 17.5 311H16.5C16.5 317.351 11.3513 322.5 5 322.5V323.5ZM5 1.5C11.3513 1.5 16.5 6.64873 16.5 13H17.5C17.5 6.09644 11.9036 0.5 5 0.5V1.5Z" fill="url(#paint0_linear_185_4398)"/>
<defs>
<linearGradient id="paint0_linear_185_4398" x1="1" y1="1" x2="146.56" y2="3.14124" gradientUnits="userSpaceOnUse">
<stop stop-color="#FDFCA4"/>
<stop offset="1" stop-color="#D9AD49"/>
</linearGradient>
</defs>
</svg>
