<svg width="32" height="32" viewBox="0 0 32 32" fill="none" xmlns="http://www.w3.org/2000/svg">
<rect width="32" height="32" rx="4" fill="url(#paint0_linear_346_1941)"/>
<path d="M7.75 14.5C7.55109 14.5 7.36032 14.4209 7.21967 14.2803C7.07902 14.1396 7 13.9489 7 13.75V7.75146C7 7.55255 7.07902 7.36179 7.21967 7.22113C7.36032 7.08048 7.55109 7.00146 7.75 7.00146H13.75C13.9489 7.00146 14.1397 7.08048 14.2803 7.22113C14.421 7.36179 14.5 7.55255 14.5 7.75146V13.75C14.5 13.9489 14.421 14.1396 14.2803 14.2803C14.1397 14.4209 13.9489 14.5 13.75 14.5H7.75ZM18.25 14.5C18.0511 14.5 17.8603 14.4209 17.7197 14.2803C17.579 14.1396 17.5 13.9489 17.5 13.75V7.75146C17.5 7.55255 17.579 7.36179 17.7197 7.22113C17.8603 7.08048 18.0511 7.00146 18.25 7.00146H24.2485C24.4474 7.00146 24.6382 7.08048 24.7788 7.22113C24.9195 7.36179 24.9985 7.55255 24.9985 7.75146V13.75C24.9985 13.9489 24.9195 14.1396 24.7788 14.2803C24.6382 14.4209 24.4474 14.5 24.2485 14.5H18.25ZM7.75 25C7.55109 25 7.36032 24.9209 7.21967 24.7803C7.07902 24.6396 7 24.4489 7 24.25V18.25C7 18.0511 7.07902 17.8603 7.21967 17.7196C7.36032 17.579 7.55109 17.5 7.75 17.5H13.75C13.9489 17.5 14.1397 17.579 14.2803 17.7196C14.421 17.8603 14.5 18.0511 14.5 18.25V24.25C14.5 24.4489 14.421 24.6396 14.2803 24.7803C14.1397 24.9209 13.9489 25 13.75 25H7.75ZM18.25 25C18.0511 25 17.8603 24.9209 17.7197 24.7803C17.579 24.6396 17.5 24.4489 17.5 24.25V18.25C17.5 18.0511 17.579 17.8603 17.7197 17.7196C17.8603 17.579 18.0511 17.5 18.25 17.5H24.2485C24.4474 17.5 24.6382 17.579 24.7788 17.7196C24.9195 17.8603 24.9985 18.0511 24.9985 18.25V24.25C24.9985 24.4489 24.9195 24.6396 24.7788 24.7803C24.6382 24.9209 24.4474 25 24.2485 25H18.25Z" fill="url(#paint1_linear_346_1941)"/>
<defs>
<linearGradient id="paint0_linear_346_1941" x1="28.48" y1="1.95122" x2="-3.36134" y2="26.8178" gradientUnits="userSpaceOnUse">
<stop stop-color="#353535"/>
<stop offset="1" stop-color="#222222"/>
</linearGradient>
<linearGradient id="paint1_linear_346_1941" x1="16.5761" y1="7.00146" x2="16.5761" y2="25" gradientUnits="userSpaceOnUse">
<stop stop-color="#FDFCA4"/>
<stop offset="1" stop-color="#D9AD49"/>
</linearGradient>
</defs>
</svg>
