<svg width="24" height="24" viewBox="0 0 24 24" fill="none" xmlns="http://www.w3.org/2000/svg">
<path d="M16.3313 17C15.2779 17 14.1979 16.7362 13.0913 16.2087C11.9846 15.6808 10.9546 14.9402 10.0013 13.9869C9.05542 13.0331 8.31875 12.005 7.79125 10.9025C7.26375 9.8 7 8.72208 7 7.66875C7 7.48125 7.0625 7.32292 7.1875 7.19375C7.3125 7.06458 7.46875 7 7.65625 7H9.20187C9.37187 7 9.52021 7.05354 9.64687 7.16062C9.77354 7.26771 9.85917 7.40479 9.90375 7.57187L10.2138 9.0625C10.2429 9.2375 10.2377 9.39021 10.1981 9.52063C10.159 9.65104 10.0898 9.75792 9.99062 9.84125L8.61875 11.12C8.87542 11.5858 9.15896 12.0183 9.46938 12.4175C9.77979 12.8171 10.111 13.1956 10.4631 13.5531C10.8256 13.9156 11.216 14.2531 11.6344 14.5656C12.0527 14.8777 12.5119 15.1723 13.0119 15.4494L14.3488 14.0887C14.4504 13.9792 14.5648 13.9069 14.6919 13.8719C14.819 13.8373 14.9594 13.8304 15.1131 13.8512L16.4281 14.12C16.5977 14.1617 16.7354 14.2471 16.8413 14.3763C16.9471 14.5058 17 14.6544 17 14.8219V16.3438C17 16.5313 16.9354 16.6875 16.8063 16.8125C16.6771 16.9375 16.5188 17 16.3313 17Z" fill="url(#paint0_linear_190_536)"/>
<defs>
<linearGradient id="paint0_linear_190_536" x1="12.3205" y1="7" x2="12.3205" y2="17" gradientUnits="userSpaceOnUse">
<stop stop-color="#FDFCA4"/>
<stop offset="1" stop-color="#D9AD49"/>
</linearGradient>
</defs>
</svg>
