<svg width="24" height="24" viewBox="0 0 24 24" fill="none" xmlns="http://www.w3.org/2000/svg">
<path d="M11.667 6C14.9808 6 17.667 8.6862 17.667 12C17.667 15.3138 14.9808 18 11.667 18C10.6067 18.0017 9.56499 17.7211 8.649 17.187L6.51312 17.7698C6.13998 17.8716 5.79749 17.5293 5.89905 17.1561L6.4806 15.0192C5.94606 14.1029 5.66523 13.0608 5.667 12C5.667 8.6862 8.3532 6 11.667 6ZM9.6222 9.18L9.5022 9.1848C9.42451 9.18953 9.34859 9.20994 9.279 9.2448C9.21391 9.28166 9.1545 9.32773 9.1026 9.3816C9.0306 9.4494 8.9898 9.5082 8.946 9.5652C8.72407 9.85374 8.60458 10.208 8.6064 10.572C8.6076 10.866 8.6844 11.1522 8.8044 11.4198C9.0498 11.961 9.4536 12.534 9.9864 13.065C10.1148 13.1928 10.2408 13.3212 10.3764 13.4406C11.0384 14.0235 11.8273 14.4438 12.6804 14.6682L13.0212 14.7204C13.1322 14.7264 13.2432 14.718 13.3548 14.7126C13.5295 14.7036 13.7002 14.6563 13.8546 14.574C13.9332 14.5335 14.0098 14.4895 14.0844 14.442C14.0844 14.442 14.1102 14.4252 14.1594 14.388C14.2404 14.328 14.2902 14.2854 14.3574 14.2152C14.4072 14.1636 14.4504 14.103 14.4834 14.034C14.5302 13.9362 14.577 13.7496 14.5962 13.5942C14.6106 13.4754 14.6064 13.4106 14.6046 13.3704C14.6022 13.3062 14.5488 13.2396 14.4906 13.2114L14.1414 13.0548C14.1414 13.0548 13.6194 12.8274 13.3002 12.6822C13.2668 12.6676 13.231 12.6593 13.1946 12.6576C13.1535 12.6534 13.1121 12.658 13.0729 12.6711C13.0338 12.6843 12.998 12.7056 12.9678 12.7338C12.9648 12.7326 12.9246 12.7668 12.4908 13.2924C12.4659 13.3259 12.4316 13.3511 12.3923 13.365C12.353 13.3789 12.3104 13.3808 12.27 13.3704C12.2309 13.3599 12.1926 13.3467 12.1554 13.3308C12.081 13.2996 12.0552 13.2876 12.0042 13.266C11.6598 13.1157 11.341 12.9127 11.0592 12.6642C10.9836 12.5982 10.9134 12.5262 10.8414 12.4566C10.6053 12.2305 10.3996 11.9748 10.2294 11.6958L10.194 11.6388C10.1686 11.6005 10.148 11.5592 10.1328 11.5158C10.11 11.4276 10.1694 11.3568 10.1694 11.3568C10.1694 11.3568 10.3152 11.1972 10.383 11.1108C10.449 11.0268 10.5048 10.9452 10.5408 10.887C10.6116 10.773 10.6338 10.656 10.5966 10.5654C10.4286 10.155 10.2546 9.7464 10.0758 9.3408C10.0404 9.2604 9.9354 9.2028 9.84 9.1914C9.8076 9.1878 9.7752 9.1842 9.7428 9.1818C9.66222 9.17779 9.58148 9.1786 9.501 9.1842L9.6216 9.1794L9.6222 9.18Z" fill="url(#paint0_linear_190_541)"/>
<defs>
<linearGradient id="paint0_linear_190_541" x1="12.0516" y1="6" x2="12.0516" y2="18" gradientUnits="userSpaceOnUse">
<stop stop-color="#FDFCA4"/>
<stop offset="1" stop-color="#D9AD49"/>
</linearGradient>
</defs>
</svg>
